<?xml version="1.0" encoding="UTF-8"?>
<svg width="350px" height="270px" viewBox="0 0 350 270" version="1.1" xmlns="http://www.w3.org/2000/svg" xmlns:xlink="http://www.w3.org/1999/xlink">
    <!-- Generator: Sketch 58 (84663) - https://sketch.com -->
    <title>undraw_loading_frh4</title>
    <desc>Created with Sketch.</desc>
    <defs>
        <linearGradient x1="50.030931%" y1="99.9774172%" x2="50.030931%" y2="0.0260206048%" id="linearGradient-1">
            <stop stop-color="#808080" stop-opacity="0.25" offset="0%"></stop>
            <stop stop-color="#808080" stop-opacity="0.12" offset="54%"></stop>
            <stop stop-color="#808080" stop-opacity="0.1" offset="100%"></stop>
        </linearGradient>
        <linearGradient x1="50.0046414%" y1="99.9931366%" x2="50.0046414%" y2="-0.00127448826%" id="linearGradient-2">
            <stop stop-color="#808080" stop-opacity="0.25" offset="0%"></stop>
            <stop stop-color="#808080" stop-opacity="0.12" offset="54%"></stop>
            <stop stop-color="#808080" stop-opacity="0.1" offset="100%"></stop>
        </linearGradient>
    </defs>
    <style>
        @keyframes jump {
            10% { 
                transform: translateY(0);
            }

            12.5% { 
                transform: translateY(-5px);
            }

            15% { 
                transform: translateY(0);
            }

            18% { 
                transform: translateY(-25px);
            }

            25% {
                transform: translateY(0);
            }
        }

        @keyframes spin {
            0% { 
                transform: rotate(0deg);
                transform-origin: 162.15605115px 45.28662425px;
            }
            100% {
                transform: rotate(360deg);
                transform-origin: 162.15605115px 45.28662425px;
            }
        }
        #loading-circle-spinner {
            animation: spin 3s linear infinite;
        }

        #spinner-wrapper {
            transform: translate(29.48726115px, 29.48726115px);
        }

        #doggy {
            animation: jump 8s linear infinite;
        }
    </style>
    <g id="Dashboard" stroke="none" stroke-width="1" fill="none" fill-rule="evenodd">
        <g id="Welcome-Screen---1c" transform="translate(-689.000000, -502.000000)">
            <g id="Group-4" transform="translate(499.000000, 307.000000)">
                <g id="undraw_loading_frh4" transform="translate(190.000000, 195.000000)">
                    <path d="M277.442675,221.576433 C282.538217,224.152866 288.770701,222.585987 294.56051,222.767516 C295.353503,222.792994 296.191083,222.869427 296.828025,223.312102 C297.464968,223.754777 297.783439,224.480892 298.213376,225.098726 C299.834395,227.394904 303.159236,228.133758 306.063694,227.745223 C308.968153,227.356688 311.633758,226.063694 314.375796,225.079618 C319.11465,223.382166 324.531847,222.60828 329.207006,224.461783 C329.620898,224.67451 330.082783,224.776541 330.547771,224.757962 C331.573248,224.60828 331.875796,223.372611 332.595541,222.66879 C333.888535,221.394904 336.697452,221.745223 337.267516,220.070064 C337.585987,219.085987 336.834395,218.079618 335.993631,217.410828 C332.808917,214.843949 328.229299,214.420382 324.044586,214.818471 C319.859873,215.216561 315.764331,216.302548 311.550955,216.308917 C306.315287,216.308917 301.254777,214.633758 296.070064,213.949045 C292.477707,213.471338 288.557325,213.531847 285.187898,214.933121 C281.547771,216.461783 280.748408,219.850318 277.442675,221.576433 Z" id="Path" fill="#FFAF20" fill-rule="nonzero" opacity="0.1"></path>
                    <path d="M4.09235669,137.251592 C9.62101911,160.882166 21.3248408,181.308917 39.8184713,191.210191 C78.2611465,211.786624 164.952229,201.171975 229.649682,188.980892 C262.342691,182.84112 292.018201,165.877596 313.898089,140.821656 L4.09235669,137.251592 Z" id="Path" fill="#FFAF20" fill-rule="nonzero" opacity="0.1"></path>
                    <path d="M343.375796,26.0159236 L307.875796,26.0159236 C306.182006,26.0159236 304.808917,24.6428351 304.808917,22.9490446 C304.808917,21.2552541 306.182006,19.8821656 307.875796,19.8821656 L314.012739,19.8821656 C312.356538,19.8288022 311.041542,18.4707544 311.041542,16.8136943 C311.041542,15.1566341 312.356538,13.7985863 314.012739,13.7452229 L309.630573,13.7452229 C307.974373,13.6918595 306.659377,12.3338117 306.659377,10.6767516 C306.659377,9.01969144 307.974373,7.66164365 309.630573,7.60828025 L328.159236,7.60828025 C324.047771,5.69745223 319.242038,4.33757962 313.703822,3.62738854 C263.181529,-2.86305732 245.143312,1.42993631 238.780255,5.8566879 C230.929936,11.3025478 222.171975,15.3089172 212.812102,17.2388535 C181.640127,23.6687898 123.343949,31.4076433 70.5063694,14.7643312 C44.2452229,6.48407643 24.7292994,20.4681529 13.0286624,43.8343949 L349.538217,43.8343949 C349.098726,37.0414013 347.783439,30.7770701 345.369427,25.2834395 C344.814354,25.7589961 344.106721,26.0189891 343.375796,26.0159236 Z" id="Path" fill="#FFAF20" fill-rule="nonzero" opacity="0.1"></path>
                    <path d="M1.07961783,87.9299363 C-0.283858048,101.672449 0.178762971,115.535016 2.45541401,129.156051 L314.136943,140.557325 C322.813174,130.57676 330.098036,119.467345 335.792994,107.531847 L1.07961783,87.9299363 Z M124.353503,117.340764 L118.216561,117.340764 C119.910351,117.340764 121.283439,118.713853 121.283439,120.407643 C121.283439,122.101434 119.910351,123.474522 118.216561,123.474522 L82.7165605,123.474522 C81.02277,123.474522 79.6496815,122.101434 79.6496815,120.407643 C79.6496815,118.713853 81.02277,117.340764 82.7165605,117.340764 L88.8535032,117.340764 C87.1973025,117.287401 85.8823068,115.929353 85.8823068,114.272293 C85.8823068,112.615233 87.1973025,111.257185 88.8535032,111.203822 L84.4713376,111.203822 C82.8151369,111.150458 81.5001412,109.79241 81.5001412,108.13535 C81.5001412,106.47829 82.8151369,105.120242 84.4713376,105.066879 L119.971338,105.066879 C121.627538,105.120242 122.942534,106.47829 122.942534,108.13535 C122.942534,109.79241 121.627538,111.150458 119.971338,111.203822 L124.353503,111.203822 C126.009704,111.257185 127.3247,112.615233 127.3247,114.272293 C127.3247,115.929353 126.009704,117.287401 124.353503,117.340764 L124.353503,117.340764 Z" id="Shape" fill="#FFAF20" fill-rule="nonzero" opacity="0.1"></path>
                    <path d="M349.55414,44.0414013 L9.27388535,52.3216561 C5.13375796,62.9585987 2.4044586,74.9872611 1.13057325,87.4585987 L343.592357,87.4585987 C345.827257,80.1331238 347.481003,72.6428149 348.538217,65.0573248 C349.557325,57.7292994 349.964968,50.6433121 349.55414,44.0414013 Z M70.2133758,71.1624204 L64.0764331,71.1624204 C65.7702236,71.1624204 67.1433121,72.5355089 67.1433121,74.2292994 C67.1433121,75.9230899 65.7702236,77.2961783 64.0764331,77.2961783 L28.5764331,77.2961783 C26.8826426,77.2961783 25.5095541,75.9230899 25.5095541,74.2292994 C25.5095541,72.5355089 26.8826426,71.1624204 28.5764331,71.1624204 L34.7133758,71.1624204 C33.0571751,71.109057 31.7421794,69.7510092 31.7421794,68.093949 C31.7421794,66.4368889 33.0571751,65.0788411 34.7133758,65.0254777 L30.3312102,65.0254777 C28.6750095,64.9721143 27.3600138,63.6140665 27.3600138,61.9570064 C27.3600138,60.2999462 28.6750095,58.9418984 30.3312102,58.888535 L65.8312102,58.888535 C67.4874109,58.9418984 68.8024066,60.2999462 68.8024066,61.9570064 C68.8024066,63.6140665 67.4874109,64.9721143 65.8312102,65.0254777 L70.2133758,65.0254777 C71.8695765,65.0788411 73.1845722,66.4368889 73.1845722,68.093949 C73.1845722,69.7510092 71.8695765,71.109057 70.2133758,71.1624204 L70.2133758,71.1624204 Z" id="Shape" fill="#FFAF20" fill-rule="nonzero" opacity="0.1"></path>
                    <g id="Group" opacity="0.1" transform="translate(183.757962, 118.789809)">
                        <path d="M2.32802548,70.5796178 C2.32802548,70.5796178 11.3089172,48.4458599 28.0796178,40.2324841 C35.1354696,36.8345158 40.8984815,31.2391308 44.5031847,24.2866242 C46.188646,20.971557 47.5670121,17.5091187 48.6210191,13.9426752" id="Path" stroke="#535461" stroke-width="2"></path>
                        <path d="M59.1592357,8.70700637 C57.410828,10.9044586 48.3630573,14.1210191 48.3630573,14.1210191 C48.3630573,14.1210191 49.4522293,4.58280255 51.2006369,2.38535032 C52.2874381,0.833576111 54.1454283,0.0128581321 56.0244495,0.254558774 C57.9034708,0.496259415 59.493274,1.76047099 60.1519811,3.53677192 C60.8106882,5.31307284 60.4295386,7.30817444 59.1624204,8.71656051 L59.1592357,8.70700637 Z" id="Path" fill="#FFAF20" fill-rule="nonzero"></path>
                        <path d="M56.0541401,26.111465 C53.3917197,27.0063694 44.0541401,24.7834395 44.0541401,24.7834395 C44.0541401,24.7834395 50.1528662,17.3694268 52.8152866,16.4745223 C54.5744997,15.7442185 56.5941485,16.056076 58.0511424,17.2830002 C59.5081364,18.5099243 60.1591737,20.4470322 59.7389295,22.304872 C59.3186854,24.1627119 57.897336,25.6310451 56.0541401,26.111465 Z" id="Path" fill="#FFAF20" fill-rule="nonzero"></path>
                        <path d="M39.2197452,46.6878981 C36.4713376,46.1178344 29.5318471,39.4808917 29.5318471,39.4808917 C29.5318471,39.4808917 38.5414013,36.1592357 41.2898089,36.7324841 C43.8735019,37.4525824 45.4566418,40.0522975 44.9106092,42.6782944 C44.3645766,45.3042912 41.8763328,47.0574295 39.2197452,46.6878981 Z" id="Path" fill="#FFAF20" fill-rule="nonzero"></path>
                        <path d="M22.977707,59.388535 C20.1719745,59.2898089 12.2101911,53.9235669 12.2101911,53.9235669 C12.2101911,53.9235669 20.5286624,49.1273885 23.3343949,49.2229299 C25.2289585,49.1729863 26.994709,50.1786479 27.9182614,51.8336151 C28.8418139,53.4885823 28.7705577,55.5193833 27.7332813,57.1055495 C26.6960049,58.6917157 24.8641109,59.5711442 22.977707,59.388535 L22.977707,59.388535 Z" id="Path" fill="#FFAF20" fill-rule="nonzero"></path>
                        <path d="M35.3598726,18.5636943 C35.7165605,21.3471338 41.7993631,28.7770701 41.7993631,28.7770701 C41.7993631,28.7770701 45.8057325,20.0509554 45.4458599,17.2643312 C45.3266393,15.3680871 44.1623142,13.6956684 42.4253349,12.9256956 C40.6883556,12.1557227 38.6672564,12.416098 37.1821425,13.6011684 C35.6970285,14.7862388 34.9945962,16.6991492 35.3598726,18.5636943 L35.3598726,18.5636943 Z" id="Path" fill="#FFAF20" fill-rule="nonzero"></path>
                        <path d="M16.5509554,33.6592357 C17.7261146,36.2070064 25.7547771,41.477707 25.7547771,41.477707 C25.7547771,41.477707 26.9617834,31.9522293 25.7866242,29.4012739 C24.50696,27.0387335 21.6127282,26.0757659 19.1727142,27.2006966 C16.7327001,28.3256272 15.5854245,31.151869 16.5509554,33.6592357 L16.5509554,33.6592357 Z" id="Path" fill="#FFAF20" fill-rule="nonzero"></path>
                        <path d="M0.28343949,50.8343949 C1.01273885,53.544586 8.03184713,60.0955414 8.03184713,60.0955414 C8.03184713,60.0955414 10.8343949,50.910828 10.1082803,48.2006369 C9.25231514,45.6480122 6.55823807,44.2017726 3.95773922,44.8988917 C1.35724037,45.5960109 -0.252186606,48.1958965 0.28343949,50.8343949 L0.28343949,50.8343949 Z" id="Path" fill="#FFAF20" fill-rule="nonzero"></path>
                        <path d="M59.1592357,8.70700637 C57.410828,10.9044586 48.3630573,14.1210191 48.3630573,14.1210191 C48.3630573,14.1210191 49.4522293,4.58280255 51.2006369,2.38535032 C52.2874381,0.833576111 54.1454283,0.0128581321 56.0244495,0.254558774 C57.9034708,0.496259415 59.493274,1.76047099 60.1519811,3.53677192 C60.8106882,5.31307284 60.4295386,7.30817444 59.1624204,8.71656051 L59.1592357,8.70700637 Z" id="Path" fill="#000000" fill-rule="nonzero" opacity="0.25"></path>
                        <path d="M56.0541401,26.111465 C53.3917197,27.0063694 44.0541401,24.7834395 44.0541401,24.7834395 C44.0541401,24.7834395 50.1528662,17.3694268 52.8152866,16.4745223 C54.5744997,15.7442185 56.5941485,16.056076 58.0511424,17.2830002 C59.5081364,18.5099243 60.1591737,20.4470322 59.7389295,22.304872 C59.3186854,24.1627119 57.897336,25.6310451 56.0541401,26.111465 Z" id="Path" fill="#000000" fill-rule="nonzero" opacity="0.25"></path>
                        <path d="M39.2197452,46.6878981 C36.4713376,46.1178344 29.5318471,39.4808917 29.5318471,39.4808917 C29.5318471,39.4808917 38.5414013,36.1592357 41.2898089,36.7324841 C43.8735019,37.4525824 45.4566418,40.0522975 44.9106092,42.6782944 C44.3645766,45.3042912 41.8763328,47.0574295 39.2197452,46.6878981 Z" id="Path" fill="#000000" fill-rule="nonzero" opacity="0.25"></path>
                        <path d="M22.977707,59.388535 C20.1719745,59.2898089 12.2101911,53.9235669 12.2101911,53.9235669 C12.2101911,53.9235669 20.5286624,49.1273885 23.3343949,49.2229299 C25.2289585,49.1729863 26.994709,50.1786479 27.9182614,51.8336151 C28.8418139,53.4885823 28.7705577,55.5193833 27.7332813,57.1055495 C26.6960049,58.6917157 24.8641109,59.5711442 22.977707,59.388535 L22.977707,59.388535 Z" id="Path" fill="#000000" fill-rule="nonzero" opacity="0.25"></path>
                        <path d="M35.3598726,18.5636943 C35.7165605,21.3471338 41.7993631,28.7770701 41.7993631,28.7770701 C41.7993631,28.7770701 45.8057325,20.0509554 45.4458599,17.2643312 C45.3266393,15.3680871 44.1623142,13.6956684 42.4253349,12.9256956 C40.6883556,12.1557227 38.6672564,12.416098 37.1821425,13.6011684 C35.6970285,14.7862388 34.9945962,16.6991492 35.3598726,18.5636943 L35.3598726,18.5636943 Z" id="Path" fill="#000000" fill-rule="nonzero" opacity="0.25"></path>
                        <path d="M16.5509554,33.6592357 C17.7261146,36.2070064 25.7547771,41.477707 25.7547771,41.477707 C25.7547771,41.477707 26.9617834,31.9522293 25.7866242,29.4012739 C24.50696,27.0387335 21.6127282,26.0757659 19.1727142,27.2006966 C16.7327001,28.3256272 15.5854245,31.151869 16.5509554,33.6592357 L16.5509554,33.6592357 Z" id="Path" fill="#000000" fill-rule="nonzero" opacity="0.25"></path>
                        <path d="M0.28343949,50.8343949 C1.01273885,53.544586 8.03184713,60.0955414 8.03184713,60.0955414 C8.03184713,60.0955414 10.8343949,50.910828 10.1082803,48.2006369 C9.25231514,45.6480122 6.55823807,44.2017726 3.95773922,44.8988917 C1.35724037,45.5960109 -0.252186606,48.1958965 0.28343949,50.8343949 L0.28343949,50.8343949 Z" id="Path" fill="#000000" fill-rule="nonzero" opacity="0.25"></path>
                    </g>
                    <g id="Group" opacity="0.1" transform="translate(183.121019, 71.337580)">
                        <path d="M9.68471338,84.5191083 C9.68471338,84.5191083 10.8184713,60.6592357 23.9171975,47.3535032 C29.4475621,41.8068066 33.0291837,34.6156258 34.1242038,26.8598726 C34.6120465,23.1742534 34.7612898,19.4516977 34.5700637,15.7388535" id="Path" stroke="#535461" stroke-width="2"></path>
                        <path d="M42.7834395,7.30254777 C41.8630573,9.95541401 34.3917197,15.9808917 34.3917197,15.9808917 C34.3917197,15.9808917 32.2579618,6.62101911 33.1751592,3.96815287 C33.6820082,2.13907883 35.1634439,0.743293739 37.0194287,0.346143536 C38.8754134,-0.051006667 40.7983181,0.616305605 42.0092932,2.07779355 C43.2202683,3.5392815 43.5185949,5.55270371 42.7834395,7.30254777 Z" id="Path" fill="#FFAF20" fill-rule="nonzero"></path>
                        <path d="M45.6273885,24.7420382 C43.3980892,26.4713376 33.8630573,27.4681529 33.8630573,27.4681529 C33.8630573,27.4681529 37.1592357,18.4490446 39.3726115,16.7229299 C41.5931936,15.2101306 44.6068758,15.6815541 46.259397,17.8002142 C47.9119182,19.9188742 47.635349,22.9566415 45.6273885,24.7420382 Z" id="Path" fill="#FFAF20" fill-rule="nonzero"></path>
                        <path d="M36.5700637,49.7452229 C33.7866242,50.1178344 25.0382166,46.1592357 25.0382166,46.1592357 C25.0382166,46.1592357 32.4363057,40.0286624 35.2070064,39.6656051 C37.8867391,39.4822234 40.2486741,41.4104583 40.6053187,44.0726756 C40.9619633,46.734893 39.190836,49.2168146 36.5573248,49.7452229 L36.5700637,49.7452229 Z" id="Path" fill="#FFAF20" fill-rule="nonzero"></path>
                        <path d="M25.455414,67.1146497 C22.7770701,67.9522293 13.4872611,65.522293 13.4872611,65.522293 C13.4872611,65.522293 19.7420382,58.2388535 22.4235669,57.4012739 C24.1962141,56.7180541 26.2017442,57.077688 27.6265428,58.3342772 C29.0513413,59.5908665 29.6587919,61.5357293 29.2024606,63.379863 C28.7461294,65.2239968 27.3017993,66.6611461 25.455414,67.1082803 L25.455414,67.1146497 Z" id="Path" fill="#FFAF20" fill-rule="nonzero"></path>
                        <path d="M23.5987261,24.4936306 C24.8726115,27 33.0636943,31.9936306 33.0636943,31.9936306 C33.0636943,31.9936306 33.9458599,22.4394904 32.6847134,19.9235669 C31.9412107,18.1775965 30.2890595,16.9894413 28.3972511,16.8402106 C26.5054427,16.69098 24.687435,17.6054002 23.6793782,19.2132031 C22.6713213,20.821006 22.6402425,22.8557912 23.5987261,24.4936306 L23.5987261,24.4936306 Z" id="Path" fill="#FFAF20" fill-rule="nonzero"></path>
                        <path d="M10.8598726,44.9681529 C12.8152866,46.9840764 22.133758,49.2929936 22.133758,49.2929936 C22.133758,49.2929936 20.1178344,39.9076433 18.1624204,37.8917197 C16.9327164,36.4418929 14.9981753,35.7971877 13.1445717,36.2194715 C11.2909681,36.6417552 9.82658483,38.0607956 9.34622712,39.9002049 C8.8658694,41.7396141 9.44942813,43.6934701 10.8598726,44.9681529 Z" id="Path" fill="#FFAF20" fill-rule="nonzero"></path>
                        <path d="M1.21019108,66.5700637 C2.80254777,68.888535 11.5923567,72.7356688 11.5923567,72.7356688 C11.5923567,72.7356688 11.1878981,63.1433121 9.60509554,60.8280255 C8.64415596,59.1809674 6.84400743,58.208284 4.93968803,58.3071423 C3.03536863,58.4060006 1.3456143,59.5598541 0.560386864,61.2975604 C-0.22484057,63.0352667 0.0258865324,65.0659768 1.21019108,66.5605096 L1.21019108,66.5700637 Z" id="Path" fill="#FFAF20" fill-rule="nonzero"></path>
                    </g>
                    <path d="M315.159236,198.627389 C315.159236,198.627389 316.910828,200.917197 314.353503,204.359873 C311.796178,207.802548 309.687898,210.729299 310.531847,212.88535 C310.531847,212.88535 314.39172,206.471338 317.538217,206.378981 C320.684713,206.286624 318.61465,202.484076 315.159236,198.627389 Z" id="Path" fill="#FFAF20" fill-rule="nonzero"></path>
                    <path d="M315.159236,198.627389 C315.312442,198.849187 315.433593,199.09149 315.519108,199.347134 C318.582803,202.94586 320.213376,206.305732 317.267516,206.388535 C314.525478,206.468153 311.235669,211.372611 310.44586,212.611465 C310.471837,212.707444 310.502662,212.802046 310.538217,212.894904 C310.538217,212.894904 314.398089,206.480892 317.544586,206.388535 C320.691083,206.296178 318.61465,202.484076 315.159236,198.627389 Z" id="Path" fill="#000000" fill-rule="nonzero" opacity="0.1"></path>
                    <path d="M318.414013,201.541401 C318.414013,202.347134 318.321656,203 318.210191,203 C318.098726,203 318.009554,202.347134 318.009554,201.541401 C318.009554,200.735669 318.121019,201.11465 318.232484,201.11465 C318.343949,201.11465 318.414013,200.735669 318.414013,201.541401 Z" id="Path" fill="#FFD037" fill-rule="nonzero"></path>
                    <path d="M319.528662,202.503185 C318.821656,202.888535 318.203822,203.121019 318.152866,203.022293 C318.101911,202.923567 318.627389,202.535032 319.334395,202.149682 C320.041401,201.764331 319.764331,202.044586 319.818471,202.149682 C319.872611,202.254777 320.238854,202.130573 319.528662,202.503185 Z" id="Path" fill="#FFD037" fill-rule="nonzero"></path>
                    <path d="M305.907643,198.627389 C305.907643,198.627389 304.156051,200.917197 306.713376,204.359873 C309.270701,207.802548 311.378981,210.729299 310.535032,212.88535 C310.535032,212.88535 306.678344,206.471338 303.528662,206.378981 C300.378981,206.286624 302.464968,202.484076 305.907643,198.627389 Z" id="Path" fill="#FFAF20" fill-rule="nonzero"></path>
                    <path d="M305.907643,198.627389 C305.754437,198.849187 305.633286,199.09149 305.547771,199.347134 C302.484076,202.94586 300.853503,206.305732 303.799363,206.388535 C306.541401,206.468153 309.83121,211.372611 310.621019,212.611465 C310.59541,212.707934 310.563494,212.802617 310.525478,212.894904 C310.525478,212.894904 306.66879,206.480892 303.519108,206.388535 C300.369427,206.296178 302.464968,202.484076 305.907643,198.627389 Z" id="Path" fill="#000000" fill-rule="nonzero" opacity="0.1"></path>
                    <path d="M302.665605,201.541401 C302.665605,202.347134 302.757962,203 302.869427,203 C302.980892,203 303.070064,202.347134 303.070064,201.541401 C303.070064,200.735669 302.958599,201.11465 302.847134,201.11465 C302.735669,201.11465 302.665605,200.735669 302.665605,201.541401 Z" id="Path" fill="#FFD037" fill-rule="nonzero"></path>
                    <path d="M301.550955,202.503185 C302.257962,202.888535 302.872611,203.121019 302.926752,203.022293 C302.980892,202.923567 302.452229,202.535032 301.745223,202.149682 C301.038217,201.764331 301.315287,202.044586 301.261146,202.149682 C301.207006,202.254777 300.843949,202.130573 301.550955,202.503185 Z" id="Path" fill="#FFD037" fill-rule="nonzero"></path>
                    <path d="M303.22293,212.592357 C303.22293,212.592357 308.11465,212.442675 309.592357,211.39172 C311.070064,210.340764 317.117834,209.089172 317.484076,210.754777 C317.850318,212.420382 324.834395,219.130573 319.312102,219.175159 C313.789809,219.219745 306.480892,218.312102 305.009554,217.417197 C303.538217,216.522293 303.22293,212.592357 303.22293,212.592357 Z" id="Path" fill="#A8A8A8" fill-rule="nonzero"></path>
                    <path d="M319.407643,218.601911 C313.88535,218.646497 306.576433,217.742038 305.105096,216.847134 C303.984076,216.165605 303.538217,213.716561 303.388535,212.585987 L303.22293,212.585987 C303.22293,212.585987 303.541401,216.531847 305.006369,217.426752 C306.471338,218.321656 313.786624,219.226115 319.308917,219.184713 C320.901274,219.16879 321.452229,218.601911 321.423567,217.764331 C321.194268,218.27707 320.592357,218.592357 319.407643,218.601911 Z" id="Path" fill="#000000" fill-rule="nonzero" opacity="0.2"></path>
                    <path d="M0.585987261,229.146497 C7.17197452,231.528662 15.2070064,230.079618 22.6783439,230.248408 C23.7006369,230.270701 24.7866242,230.340764 25.6050955,230.751592 C26.4235669,231.16242 26.8312102,231.83121 27.3917197,232.401274 C29.4872611,234.525478 33.7611465,235.210191 37.5286624,234.850318 C41.2961783,234.490446 44.7165605,233.296178 48.2643312,232.38535 C54.3821656,230.815287 61.3757962,230.098726 67.410828,231.812102 C67.9645605,232.012687 68.5515126,232.105648 69.1401274,232.085987 C70.4617834,231.94586 70.8566879,230.812102 71.7834395,230.156051 C73.4522293,228.980892 77.0796178,229.299363 77.8152866,227.748408 C78.2452229,226.840764 77.2547771,225.910828 76.1783439,225.289809 C72.0541401,222.917197 66.1528662,222.525478 60.7579618,222.89172 C55.3630573,223.257962 50.0541401,224.267516 44.6273885,224.270701 C37.8694268,224.270701 31.3375796,222.72293 24.6433121,222.089172 C20.0063694,221.649682 14.9490446,221.703822 10.6019108,223 C5.88216561,224.401274 4.84394904,227.547771 0.585987261,229.146497 Z" id="Path" fill="#FFAF20" fill-rule="nonzero" opacity="0.1"></path>
                    <path d="M75.044586,222.901274 C75.6300521,222.426431 76.0566918,221.78425 76.2675159,221.06051 C76.4235669,220.328025 76.111465,219.452229 75.4140127,219.184713 C74.6305732,218.88535 73.7929936,219.426752 73.1592357,219.974522 C72.5254777,220.522293 71.7961783,221.149682 70.9649682,221.035032 C71.8345294,220.246286 72.2262627,219.058995 71.9968153,217.907643 C71.9605765,217.673332 71.8615255,217.453219 71.7101911,217.270701 C71.2770701,216.805732 70.4872611,217.006369 69.9649682,217.372611 C68.3089172,218.538217 67.8471338,220.786624 67.8407643,222.812102 C67.6719745,222.079618 67.8121019,221.321656 67.8089172,220.582803 C67.8057325,219.843949 67.5987261,218.990446 66.9681529,218.601911 C66.5786441,218.386273 66.1394282,218.276469 65.6942675,218.283439 C64.9490446,218.257962 64.1210191,218.33121 63.611465,218.875796 C62.9745223,219.550955 63.1433121,220.687898 63.6942675,221.423567 C64.2452229,222.159236 65.0796178,222.633758 65.8471338,223.149682 C66.4648193,223.516903 66.9916994,224.018745 67.388535,224.617834 C67.435514,224.700767 67.4739286,224.788267 67.5031847,224.878981 L72.1496815,224.878981 C73.2002878,224.354785 74.1742784,223.689385 75.044586,222.901274 L75.044586,222.901274 Z" id="Path" fill="#FFAF20" fill-rule="nonzero"></path>
                    <path d="M37.9649682,227.926752 C37.9649682,227.926752 33.5063694,212.732484 38.8025478,201.547771 C41.0607995,196.871774 41.7424256,191.58973 40.7452229,186.493631 C40.2499813,184.078112 39.5357789,181.712717 38.611465,179.426752" id="Path" stroke="#535461" stroke-width="2"></path>
                    <path d="M41.9203822,172.359873 C41.9203822,174.22293 38.5477707,179.621019 38.5477707,179.621019 C38.5477707,179.621019 35.1751592,174.207006 35.1751592,172.359873 C35.1751592,170.497231 36.6851288,168.987261 38.5477707,168.987261 C40.4104126,168.987261 41.9203822,170.497231 41.9203822,172.359873 Z" id="Path" fill="#FFAF20" fill-rule="nonzero"></path>
                    <path d="M47.4936306,182.675159 C46.4808917,184.235669 40.7165605,186.936306 40.7165605,186.936306 C40.7165605,186.936306 40.8184713,180.566879 41.8312102,179.009554 C42.8434391,177.44592 44.9315887,176.998918 46.4952229,178.011147 C48.058857,179.023375 48.5058594,181.111525 47.4936306,182.675159 Z" id="Path" fill="#FFAF20" fill-rule="nonzero"></path>
                    <path d="M47.2484076,200.299363 C45.5859873,201.136943 39.2452229,200.56051 39.2452229,200.56051 C39.2452229,200.56051 42.5509554,195.117834 44.2133758,194.280255 C45.2885859,193.738099 46.571358,193.810743 47.5784841,194.470825 C48.5856102,195.130906 49.164084,196.278141 49.096,197.480379 C49.027916,198.682616 48.3236178,199.757207 47.2484076,200.299363 Z" id="Path" fill="#FFAF20" fill-rule="nonzero"></path>
                    <path d="M44.0605096,213.595541 C42.5636943,214.700637 36.2165605,215.187898 36.2165605,215.187898 C36.2165605,215.187898 38.5541401,209.264331 40.0382166,208.156051 C41.0007041,207.367106 42.3194511,207.172326 43.4689209,207.649332 C44.6183908,208.126338 45.4117558,209.197602 45.5328504,210.436211 C45.653945,211.67482 45.0830871,212.879458 44.0477707,213.570064 L44.0605096,213.595541 Z" id="Path" fill="#FFAF20" fill-rule="nonzero"></path>
                    <path d="M33.6369427,187.299363 C34.9713376,188.595541 41.1942675,189.93949 41.1942675,189.93949 C41.1942675,189.93949 39.6687898,183.757962 38.3280255,182.461783 C37.4709616,181.58583 36.2061858,181.243722 35.0244199,181.568195 C33.842654,181.892668 32.9298974,182.832653 32.6402917,184.023443 C32.3506859,185.214233 32.7298124,186.46841 33.6305732,187.299363 L33.6369427,187.299363 Z" id="Path" fill="#FFAF20" fill-rule="nonzero"></path>
                    <path d="M30.111465,202.894904 C31.7738854,203.732484 38.1146497,203.152866 38.1146497,203.152866 C38.1146497,203.152866 34.8121019,197.710191 33.1464968,196.872611 C31.4905077,196.079622 29.5044267,196.757005 28.6781155,198.396622 C27.8518042,200.036238 28.4888914,202.03561 30.111465,202.894904 Z" id="Path" fill="#FFAF20" fill-rule="nonzero"></path>
                    <path d="M28.7547771,218.522293 C30.2515924,219.630573 36.5987261,220.11465 36.5987261,220.11465 C36.5987261,220.11465 34.2611465,214.191083 32.7770701,213.085987 C31.8145826,212.297043 30.4958355,212.102262 29.3463657,212.579268 C28.1968958,213.056275 27.4035308,214.127538 27.2824362,215.366147 C27.1613417,216.604756 27.7321995,217.809395 28.7675159,218.5 L28.7547771,218.522293 Z" id="Path" fill="#FFAF20" fill-rule="nonzero"></path>
                    <path d="M41.9203822,172.359873 C41.9203822,174.22293 38.5477707,179.621019 38.5477707,179.621019 C38.5477707,179.621019 35.1751592,174.207006 35.1751592,172.359873 C35.1751592,170.497231 36.6851288,168.987261 38.5477707,168.987261 C40.4104126,168.987261 41.9203822,170.497231 41.9203822,172.359873 Z" id="Path" fill="#FFAF20" fill-rule="nonzero"></path>
                    <path d="M47.4936306,182.675159 C46.4808917,184.235669 40.7165605,186.936306 40.7165605,186.936306 C40.7165605,186.936306 40.8184713,180.566879 41.8312102,179.009554 C42.8434391,177.44592 44.9315887,176.998918 46.4952229,178.011147 C48.058857,179.023375 48.5058594,181.111525 47.4936306,182.675159 Z" id="Path" fill="#FFAF20" fill-rule="nonzero"></path>
                    <path d="M47.2484076,200.299363 C45.5859873,201.136943 39.2452229,200.56051 39.2452229,200.56051 C39.2452229,200.56051 42.5509554,195.117834 44.2133758,194.280255 C45.2885859,193.738099 46.571358,193.810743 47.5784841,194.470825 C48.5856102,195.130906 49.164084,196.278141 49.096,197.480379 C49.027916,198.682616 48.3236178,199.757207 47.2484076,200.299363 Z" id="Path" fill="#FFAF20" fill-rule="nonzero"></path>
                    <path d="M44.0605096,213.595541 C42.5636943,214.700637 36.2165605,215.187898 36.2165605,215.187898 C36.2165605,215.187898 38.5541401,209.264331 40.0382166,208.156051 C41.0007041,207.367106 42.3194511,207.172326 43.4689209,207.649332 C44.6183908,208.126338 45.4117558,209.197602 45.5328504,210.436211 C45.653945,211.67482 45.0830871,212.879458 44.0477707,213.570064 L44.0605096,213.595541 Z" id="Path" fill="#FFAF20" fill-rule="nonzero"></path>
                    <path d="M33.6369427,187.299363 C34.9713376,188.595541 41.1942675,189.93949 41.1942675,189.93949 C41.1942675,189.93949 39.6687898,183.757962 38.3280255,182.461783 C37.4709616,181.58583 36.2061858,181.243722 35.0244199,181.568195 C33.842654,181.892668 32.9298974,182.832653 32.6402917,184.023443 C32.3506859,185.214233 32.7298124,186.46841 33.6305732,187.299363 L33.6369427,187.299363 Z" id="Path" fill="#FFAF20" fill-rule="nonzero"></path>
                    <path d="M30.111465,202.894904 C31.7738854,203.732484 38.1146497,203.152866 38.1146497,203.152866 C38.1146497,203.152866 34.8121019,197.710191 33.1464968,196.872611 C31.4905077,196.079622 29.5044267,196.757005 28.6781155,198.396622 C27.8518042,200.036238 28.4888914,202.03561 30.111465,202.894904 Z" id="Path" fill="#FFAF20" fill-rule="nonzero"></path>
                    <path d="M28.7547771,218.522293 C30.2515924,219.630573 36.5987261,220.11465 36.5987261,220.11465 C36.5987261,220.11465 34.2611465,214.191083 32.7770701,213.085987 C31.8145826,212.297043 30.4958355,212.102262 29.3463657,212.579268 C28.1968958,213.056275 27.4035308,214.127538 27.2824362,215.366147 C27.1613417,216.604756 27.7321995,217.809395 28.7675159,218.5 L28.7547771,218.522293 Z" id="Path" fill="#FFAF20" fill-rule="nonzero"></path>
                    <path d="M27.388535,226.971338 C27.388535,226.971338 32.8375796,225.888535 34.2898089,224.44586 C35.7420382,223.003185 42.2834395,220.477707 43.0095541,222.283439 C43.7356688,224.089172 52.8184713,230.216561 46.6433121,231.299363 C40.4681529,232.382166 32.111465,232.742038 30.2929936,232.022293 C28.4745223,231.302548 27.388535,226.971338 27.388535,226.971338 Z" id="Path" fill="#A8A8A8" fill-rule="nonzero"></path>
                    <path d="M46.6433121,230.627389 C40.4649682,231.710191 32.111465,232.070064 30.2929936,231.347134 C28.910828,230.799363 27.9490446,228.16242 27.5700637,226.929936 L27.388535,226.968153 C27.388535,226.968153 28.477707,231.296178 30.2929936,232.019108 C32.1082803,232.742038 40.4649682,232.378981 46.6433121,231.296178 C48.4235669,230.977707 48.933121,230.251592 48.7420382,229.321656 C48.5828025,229.926752 47.9681529,230.394904 46.6433121,230.627389 Z" id="Path" fill="#000000" fill-rule="nonzero" opacity="0.2"></path>
                    <path d="M109.815287,259.312102 C122.33758,263.519108 137.61465,260.958599 151.821656,261.257962 C153.767516,261.299363 155.828025,261.420382 157.388535,262.146497 C158.949045,262.872611 159.713376,264.057325 160.783439,265.063694 C164.767516,268.815287 172.923567,270.025478 180.05414,269.38535 C187.184713,268.745223 193.72293,266.640127 200.436306,265.035032 C212.066879,262.257962 225.363057,260.996815 236.834395,264.022293 C237.888535,264.299363 238.996815,264.617834 240.124204,264.506369 C242.640127,264.261146 243.388535,262.245223 245.149682,261.095541 C248.334395,259.019108 255.219745,259.582803 256.61465,256.847134 C257.433121,255.254777 255.550955,253.595541 253.503185,252.503185 C245.665605,248.308917 234.449045,247.617834 224.184713,248.267516 C213.920382,248.917197 203.834395,250.694268 193.519108,250.700637 C180.66879,250.700637 168.251592,247.968153 155.525478,246.847134 C146.710191,246.066879 137.089172,246.165605 128.824841,248.43949 C119.88535,250.933121 117.910828,256.487261 109.815287,259.312102 Z" id="Path" fill="#FFAF20" fill-rule="nonzero" opacity="0.1"></path>
                    <g id="doggy">
                        <path d="M226.410828,227.235669 C226.480892,226.627389 226.582803,226.022293 226.691083,225.417197 C227.16879,222.796178 226.43949,220.299363 226.05414,219.270701 L226.05414,219.270701 C225.942675,218.952229 225.859873,218.770701 225.859873,218.770701 C223.926752,218.245223 216.305732,224.149682 213.541401,226.375796 C212.585987,226.375796 211.535032,226.417197 210.398089,226.493631 C209.901274,226.528662 209.401274,226.541401 208.904459,226.531847 C208.458599,226.531847 207.824841,226.531847 207.085987,226.531847 C204.509554,224.458599 196.544586,218.219745 194.557325,218.761146 C194.557325,218.761146 194.477707,218.93949 194.363057,219.261146 L194.363057,219.261146 C193.990446,220.289809 193.264331,222.786624 193.726115,225.407643 C193.83758,226.012739 193.936306,226.617834 194.006369,227.226115 C194.156051,228.56051 194.713376,231.111465 196.738854,232.840764 C197.16879,235.993631 198.792994,240.136943 200.041401,242.652866 C200.134963,243.128921 200.276888,243.594179 200.464968,244.041401 C199.949045,246.028662 199.356688,248.624204 199.509554,249.480892 C199.509554,249.480892 196.818471,248.828025 196.544586,252.070064 C196.544586,252.101911 196.544586,252.136943 196.544586,252.16879 C195.570064,252.617834 194.356688,253.636943 195.72293,255.780255 C195.887598,256.043273 196.135267,256.243874 196.426752,256.350318 C196.66879,256.436306 196.904459,256.436306 196.878981,256.095541 L198.563694,258.006369 C198.563694,258.006369 201.61465,258.356688 201.649682,256.585987 L201.828025,256.61465 C202.238854,256.675159 202.66879,256.726115 203.101911,256.770701 L203.312102,257.471338 C203.312102,257.471338 201.022293,257.423567 201.646497,258.83121 C201.646497,258.83121 202.22293,259.366242 202.420382,259.171975 C202.420382,259.171975 202.124204,260.095541 203.312102,260.095541 C203.312102,260.095541 204.585987,260.77707 205.092357,260.292994 C205.598726,259.808917 206.630573,259.076433 206.729299,258.783439 C206.757962,258.703822 206.770701,257.984076 206.773885,256.990446 L206.971338,256.990446 C209.519108,257.050955 212.238854,256.968153 214.710191,256.834395 L214.907643,256.834395 C214.907643,257.914013 214.923567,258.703822 214.952229,258.789809 C215.050955,259.082803 216.092357,259.812102 216.589172,260.299363 C217.085987,260.786624 218.369427,260.101911 218.369427,260.101911 C219.557325,260.101911 219.261146,259.178344 219.261146,259.178344 C219.458599,259.372611 220.035032,258.83758 220.035032,258.83758 C220.671975,257.429936 218.369427,257.477707 218.369427,257.477707 L218.640127,256.579618 L219.914013,256.474522 L220.111465,256.455414 C219.990446,258.382166 223.197452,258.012739 223.197452,258.012739 L224.882166,256.101911 C224.856688,256.442675 225.092357,256.442675 225.334395,256.356688 C225.62588,256.250243 225.873549,256.049642 226.038217,255.786624 C228.101911,252.557325 224.286624,251.872611 224.286624,251.872611 C224.168957,251.841178 224.048361,251.821968 223.926752,251.815287 C223.926752,251.757962 223.926752,251.700637 223.926752,251.646497 L223.926752,251.646497 C223.97287,251.223455 223.981396,250.797159 223.952229,250.372611 C223.808917,249.789809 222.866242,248.866242 221.678344,248.719745 C220.904459,248.624204 220.88535,245.06051 220.968153,242.589172 C221.054645,242.124 221.095179,241.65145 221.089172,241.178344 C221.097404,240.417077 220.990024,239.658972 220.770701,238.929936 C222.289809,236.356688 223.506369,233.66242 223.636943,232.850318 C225.707006,231.111465 226.261146,228.563694 226.410828,227.235669 Z" id="Path" fill="url(#linearGradient-1)" fill-rule="nonzero"></path>
                        <path d="M223.477707,251.812102 L223.477707,251.812102 C223.356688,253.490446 223.031847,256.184713 223.031847,256.184713 C223.031847,256.184713 221.681529,256.350318 219.595541,256.538217 L218.181529,256.659236 C217.092357,256.745223 215.875796,256.83121 214.589172,256.904459 C212.207006,257.035032 209.592357,257.11465 207.130573,257.057325 C205.898089,257.028662 204.703822,256.964968 203.595541,256.856688 C203.101911,256.808917 202.640127,256.751592 202.165605,256.681529 C199.340764,256.261146 197.33121,255.455414 197.146497,254.038217 C197.057465,253.441688 197.035196,252.837143 197.079618,252.235669 C197.343949,249.050955 199.94586,249.687898 199.94586,249.687898 C199.77707,248.808917 200.407643,246.076433 200.901274,244.098726 C201.219745,242.853503 201.496815,241.907643 201.496815,241.907643 L219.72293,240.684713 L219.783439,240.684713 C220.02816,240.68528 220.261973,240.786042 220.430446,240.96354 C220.598919,241.141038 220.687352,241.379786 220.675159,241.624204 C220.566879,243.808917 220.410828,248.815287 221.312102,248.926752 C222.458599,249.070064 223.366242,249.977707 223.503185,250.550955 C223.533138,250.971236 223.52461,251.393374 223.477707,251.812102 L223.477707,251.812102 Z" id="Path" fill="#D3899B" fill-rule="nonzero"></path>
                        <path d="M207.993631,227.815287 C207.993631,227.815287 201.121019,236.095541 197.802548,233.799363 C197.72293,233.745223 197.646497,233.687898 197.573248,233.630573 C195.343949,231.942675 194.761146,229.229299 194.60828,227.850318 C194.541401,227.251592 194.44586,226.659236 194.340764,226.063694 C193.878981,223.490446 194.582803,221.041401 194.93949,220.028662 L194.93949,220.028662 C195.047771,219.710191 195.124204,219.541401 195.124204,219.541401 C197.429936,218.904459 207.993631,227.815287 207.993631,227.815287 Z" id="Path" fill="#D3899B" fill-rule="nonzero"></path>
                        <path d="M204.315287,228.579618 C204.315287,228.579618 202.149682,230.10828 199.095541,232.589172 C198.625538,232.977634 198.123779,233.325989 197.595541,233.630573 C195.366242,231.942675 194.783439,229.229299 194.630573,227.850318 C194.563694,227.251592 194.468153,226.659236 194.363057,226.063694 C193.901274,223.490446 194.605096,221.041401 194.961783,220.028662 L194.961783,220.028662 C199.219745,220.328025 204.315287,228.579618 204.315287,228.579618 Z" id="Path" fill="#EEC5CD" fill-rule="nonzero"></path>
                        <path d="M201.949045,227.764331 C201.949045,227.764331 200.792994,228.579618 199.16242,229.904459 C198.910418,230.115427 198.642059,230.306048 198.359873,230.474522 C197.171975,229.573248 196.859873,228.124204 196.767516,227.388535 C196.732484,227.070064 196.681529,226.751592 196.624204,226.433121 C196.46273,225.350044 196.572148,224.243832 196.942675,223.213376 L196.942675,223.213376 C199.235669,223.359873 201.949045,227.764331 201.949045,227.764331 Z" id="Path" fill="#000000" fill-rule="nonzero" opacity="0.1"></path>
                        <path d="M212.449045,227.815287 C212.449045,227.815287 219.324841,236.095541 222.640127,233.799363 L222.869427,233.630573 C225.098726,231.942675 225.678344,229.229299 225.83121,227.850318 C225.898089,227.251592 225.996815,226.659236 226.101911,226.063694 C226.56051,223.490446 225.859873,221.041401 225.5,220.028662 L225.5,220.028662 C225.39172,219.710191 225.312102,219.541401 225.312102,219.541401 C223.015924,218.904459 212.449045,227.815287 212.449045,227.815287 Z" id="Path" fill="#D3899B" fill-rule="nonzero"></path>
                        <path d="M216.140127,228.579618 C216.140127,228.579618 218.305732,230.10828 221.359873,232.589172 C221.83147,232.977018 222.334233,233.325331 222.863057,233.630573 C225.092357,231.942675 225.671975,229.229299 225.824841,227.850318 C225.89172,227.251592 225.990446,226.659236 226.095541,226.063694 C226.55414,223.490446 225.853503,221.041401 225.493631,220.028662 L225.493631,220.028662 C221.22293,220.328025 216.140127,228.579618 216.140127,228.579618 Z" id="Path" fill="#EEC5CD" fill-rule="nonzero"></path>
                        <path d="M218.512739,227.757962 C218.512739,227.757962 219.66242,228.570064 221.283439,229.88535 C221.533236,230.09152 221.799522,230.276854 222.079618,230.43949 C223.257962,229.544586 223.570064,228.101911 223.652866,227.372611 C223.687898,227.05414 223.738854,226.735669 223.792994,226.417197 C223.951931,225.339317 223.842543,224.238874 223.474522,223.213376 L223.474522,223.213376 C221.210191,223.378981 218.512739,227.757962 218.512739,227.757962 Z" id="Path" fill="#000000" fill-rule="nonzero" opacity="0.1"></path>
                        <path d="M219.729299,240.691083 C218.863057,242.063694 217.93949,243.302548 217.095541,244.044586 C214.359873,246.461783 202.585987,245.509554 201.808917,245.382166 C201.649682,245.356688 201.315287,244.878981 200.894904,244.10828 C201.213376,242.863057 201.490446,241.917197 201.490446,241.917197 L219.729299,240.691083 Z" id="Path" fill="#000000" fill-rule="nonzero" opacity="0.1"></path>
                        <path d="M210.401274,227.121019 C209.923567,227.156051 209.44586,227.165605 208.964968,227.159236 C206.503185,227.117834 198.22293,227.226115 197.302548,230.566879 C196.219745,234.496815 201.057325,245.063694 201.821656,245.191083 C202.585987,245.318471 214.359873,246.273885 217.10828,243.853503 C219.856688,241.433121 223.410828,233.863057 223.219745,233.16242 C223.207006,233.16242 226.60828,225.996815 210.401274,227.121019 Z" id="Path" fill="#D3899B" fill-rule="nonzero"></path>
                        <path d="M210.143312,233.512739 C210.143312,233.512739 204.092357,232.579618 201.226115,238.547771 C200.067551,240.906644 200.272109,243.707128 201.761146,245.872611 C202.716561,247.203822 204.095541,248.194268 206.028662,247.394904 C210.33121,245.627389 210.143312,233.512739 210.143312,233.512739 Z" id="Path" fill="#000000" fill-rule="nonzero" opacity="0.1"></path>
                        <path d="M209.952229,233.130573 C209.952229,233.130573 203.901274,232.197452 201.035032,238.165605 C199.876469,240.524478 200.081026,243.324963 201.570064,245.490446 C202.525478,246.821656 203.904459,247.812102 205.83758,247.015924 C210.140127,245.245223 209.952229,233.130573 209.952229,233.130573 Z" id="Path" fill="#000000" fill-rule="nonzero" opacity="0.1"></path>
                        <path d="M209.952229,233.321656 C209.952229,233.321656 203.901274,232.388535 201.035032,238.356688 C199.876469,240.715561 200.081026,243.516045 201.570064,245.681529 C202.525478,247.012739 203.904459,248.003185 205.83758,247.203822 C210.140127,245.442675 209.952229,233.321656 209.952229,233.321656 Z" id="Path" fill="#EEC5CD" fill-rule="nonzero"></path>
                        <path d="M203.410828,238.538217 C203.410828,238.538217 202.582803,239.302548 202.901274,239.493631 C203.219745,239.684713 203.410828,238.538217 203.410828,238.538217 Z" id="Path" fill="#3F2B3B" fill-rule="nonzero"></path>
                        <path d="M204.315287,239.515924 C204.315287,239.515924 203.866242,240.512739 204.184713,240.624204 C204.503185,240.735669 204.697452,239.907643 204.697452,239.907643 L204.315287,239.515924 Z" id="Path" fill="#3F2B3B" fill-rule="nonzero"></path>
                        <path d="M202.302548,241.022293 C202.302548,241.022293 201.863057,242.200637 202.302548,242.200637 C202.742038,242.200637 202.302548,241.022293 202.302548,241.022293 Z" id="Path" fill="#3F2B3B" fill-rule="nonzero"></path>
                        <path d="M201.767516,244.16879 C201.767516,244.16879 202.649682,246.429936 204.952229,246.270701" id="Path" stroke="#3F2B3B"></path>
                        <path d="M203.824841,244.840764 C203.824841,244.840764 204.748408,245.732484 205.735669,245.095541" id="Path" stroke="#3F2B3B"></path>
                        <path d="M210.907643,233.512739 C210.907643,233.512739 216.958599,232.579618 219.824841,238.547771 C220.986151,240.90611 220.781487,243.708056 219.289809,245.872611 C218.334395,247.203822 216.955414,248.194268 215.025478,247.394904 C210.716561,245.627389 210.907643,233.512739 210.907643,233.512739 Z" id="Path" fill="#000000" fill-rule="nonzero" opacity="0.1"></path>
                        <path d="M211.098726,233.130573 C211.098726,233.130573 217.149682,232.197452 220.015924,238.165605 C221.177233,240.523944 220.972569,243.32589 219.480892,245.490446 C218.525478,246.821656 217.146497,247.812102 215.216561,247.015924 C210.907643,245.245223 211.098726,233.130573 211.098726,233.130573 Z" id="Path" fill="#000000" fill-rule="nonzero" opacity="0.1"></path>
                        <path d="M211.098726,233.321656 C211.098726,233.321656 217.149682,232.388535 220.015924,238.356688 C221.177233,240.715027 220.972569,243.516973 219.480892,245.681529 C218.525478,247.012739 217.146497,248.003185 215.216561,247.203822 C210.907643,245.442675 211.098726,233.321656 211.098726,233.321656 Z" id="Path" fill="#EEC5CD" fill-rule="nonzero"></path>
                        <path d="M217.636943,238.538217 C217.636943,238.538217 218.464968,239.302548 218.146497,239.493631 C217.828025,239.684713 217.636943,238.538217 217.636943,238.538217 Z" id="Path" fill="#3F2B3B" fill-rule="nonzero"></path>
                        <path d="M216.735669,239.515924 C216.735669,239.515924 217.187898,240.512739 216.866242,240.624204 C216.544586,240.735669 216.353503,239.907643 216.353503,239.907643 L216.735669,239.515924 Z" id="Path" fill="#3F2B3B" fill-rule="nonzero"></path>
                        <path d="M218.745223,241.022293 C218.745223,241.022293 219.184713,242.200637 218.745223,242.200637 C218.305732,242.200637 218.745223,241.022293 218.745223,241.022293 Z" id="Path" fill="#3F2B3B" fill-rule="nonzero"></path>
                        <path d="M219.283439,244.16879 C219.283439,244.16879 218.398089,246.429936 216.098726,246.270701" id="Path" stroke="#3F2B3B"></path>
                        <path d="M217.22293,244.840764 C217.22293,244.840764 216.299363,245.732484 215.312102,245.095541" id="Path" stroke="#3F2B3B"></path>
                        <path d="M207.643312,250.601911 C207.802548,250.570064 210.828025,249.264331 213.94586,250.601911 L207.643312,250.601911 Z" id="Path" fill="#3F2B3B" fill-rule="nonzero"></path>
                        <path d="M202.165605,256.681529 C199.340764,256.261146 197.33121,255.455414 197.146497,254.038217 C197.057626,253.441688 197.035196,252.837143 197.079618,252.235669 C197.419527,252.054809 197.782853,251.921911 198.159236,251.840764 C198.671975,251.697452 199.305732,251.792994 200.643312,252.159236 C201.980892,252.525478 201.88535,254.117834 202.171975,256.16879 C202.197565,256.338925 202.195414,256.512082 202.165605,256.681529 Z" id="Path" fill="#000000" fill-rule="nonzero" opacity="0.1"></path>
                        <path d="M197.971338,252.031847 C197.971338,252.031847 194.292994,252.707006 196.283439,255.875796 C196.440438,256.133297 196.679302,256.330668 196.961783,256.436306 C197.194268,256.519108 197.420382,256.519108 197.398089,256.184713 L199.019108,258.047771 C199.019108,258.047771 202.267516,258.429936 201.980892,256.375796 C201.694268,254.321656 201.789809,252.748408 200.452229,252.366242 C199.11465,251.984076 198.480892,251.888535 197.971338,252.031847 Z" id="Path" fill="#D3899B" fill-rule="nonzero"></path>
                        <path d="M198.843949,254.165605 C198.843949,254.165605 199.624204,255.949045 200.707006,254.452229" id="Path" stroke="#3F2B3B"></path>
                        <path d="M197.057325,254.866242 C197.057325,254.866242 197.461783,256.547771 198.987261,255.292994" id="Path" stroke="#3F2B3B"></path>
                        <path d="M223.477707,251.812102 L223.477707,251.812102 C223.356688,253.490446 223.031847,256.184713 223.031847,256.184713 C223.031847,256.184713 221.681529,256.350318 219.595541,256.538217 C219.584745,256.420629 219.584745,256.3023 219.595541,256.184713 C219.882166,254.133758 219.786624,252.557325 221.124204,252.175159 C222.353503,251.828025 222.990446,251.716561 223.477707,251.812102 Z" id="Path" fill="#000000" fill-rule="nonzero" opacity="0.1"></path>
                        <path d="M223.812102,252.031847 C223.812102,252.031847 227.487261,252.707006 225.5,255.875796 C225.340891,256.132712 225.101269,256.329784 224.818471,256.436306 C224.585987,256.519108 224.359873,256.519108 224.38535,256.184713 L222.761146,258.047771 C222.761146,258.047771 219.515924,258.429936 219.802548,256.375796 C220.089172,254.321656 219.993631,252.748408 221.328025,252.366242 C222.66242,251.984076 223.299363,251.888535 223.812102,252.031847 Z" id="Path" fill="#D3899B" fill-rule="nonzero"></path>
                        <path d="M222.936306,254.165605 C222.936306,254.165605 222.156051,255.949045 221.073248,254.452229" id="Path" stroke="#3F2B3B"></path>
                        <path d="M224.726115,254.866242 C224.726115,254.866242 224.321656,256.547771 222.792994,255.292994" id="Path" stroke="#3F2B3B"></path>
                        <path d="M207.130573,257.057325 C205.898089,257.028662 204.703822,256.964968 203.595541,256.856688 L202.496815,253.149682 C202.233277,252.267382 202.507747,251.312403 203.199534,250.704674 C203.891322,250.096945 204.873702,249.947791 205.714698,250.3228 C206.555693,250.697808 207.101247,251.528284 207.111465,252.449045 C207.121019,253.904459 207.133758,255.732484 207.130573,257.057325 Z" id="Path" fill="#000000" fill-rule="nonzero" opacity="0.1"></path>
                        <path d="M202.305732,253.149682 L203.601911,257.522293 C203.601911,257.522293 201.394904,257.474522 202.009554,258.859873 C202.009554,258.859873 202.563694,259.38535 202.754777,259.178344 C202.754777,259.178344 202.471338,260.085987 203.61465,260.085987 C203.61465,260.085987 204.853503,260.751592 205.33121,260.27707 C205.808917,259.802548 206.815287,259.082803 206.923567,258.796178 C206.984076,258.60828 206.964968,254.952229 206.94586,252.426752 C206.93363,251.133903 205.882078,250.092299 204.589172,250.092357 L204.589172,250.092357 C203.833532,250.080239 203.11804,250.431733 202.665809,251.03723 C202.213579,251.642726 202.07963,252.42856 202.305732,253.149682 L202.305732,253.149682 Z" id="Path" fill="#D3899B" fill-rule="nonzero"></path>
                        <path d="M204.057325,258.652866 C204.057325,258.652866 203.101911,259.576433 203.601911,260.101911" id="Path" stroke="#3F2B3B"></path>
                        <path d="M203.633758,258.076433 C203.633758,258.076433 202.742038,258.366242 202.742038,259.194268" id="Path" stroke="#3F2B3B"></path>
                        <path d="M219.321676,252.477707 C219.321188,252.705277 219.287938,252.931593 219.22293,253.149682 L218.181529,256.652866 C217.092357,256.738854 215.875796,256.824841 214.589172,256.898089 C214.589172,255.589172 214.589172,253.843949 214.60828,252.43949 C214.613557,251.137928 215.67296,250.08708 216.974522,250.092337 C218.276085,250.097634 219.326933,251.157036 219.321676,252.458599 L219.321676,252.477707 Z" id="Path" fill="#000000" fill-rule="nonzero" opacity="0.1"></path>
                        <path d="M219.410828,253.149682 L218.11465,257.522293 C218.11465,257.522293 220.321656,257.474522 219.707006,258.859873 C219.707006,258.859873 219.152866,259.38535 218.961783,259.178344 C218.961783,259.178344 219.248408,260.085987 218.101911,260.085987 C218.101911,260.085987 216.866242,260.751592 216.38535,260.27707 C215.904459,259.802548 214.904459,259.082803 214.792994,258.796178 C214.729299,258.60828 214.748408,254.952229 214.770701,252.426752 C214.781194,251.134416 215.831826,250.092314 217.124204,250.092357 L217.124204,250.092357 C217.880401,250.079201 218.596847,250.430261 219.049826,251.035916 C219.502806,251.641571 219.63712,252.428017 219.410828,253.149682 L219.410828,253.149682 Z" id="Path" fill="#D3899B" fill-rule="nonzero"></path>
                        <path d="M217.659236,258.652866 C217.659236,258.652866 218.61465,259.576433 218.11465,260.101911" id="Path" stroke="#3F2B3B"></path>
                        <path d="M218.082803,258.076433 C218.082803,258.076433 218.974522,258.366242 218.974522,259.194268" id="Path" stroke="#3F2B3B"></path>
                        <path d="M209.952229,232.366242 C209.952229,232.366242 205.464968,232.22293 205.321656,235.707006 C205.178344,239.191083 212.328025,237.713376 212.328025,237.713376 C212.328025,237.713376 215.33758,237.308917 214.812102,235.194268 C214.286624,233.079618 213.200637,232.557325 209.952229,232.366242 Z" id="Path" fill="#000000" fill-rule="nonzero" opacity="0.1"></path>
                        <path d="M209.952229,231.984076 C209.952229,231.984076 205.464968,231.840764 205.321656,235.324841 C205.178344,238.808917 212.328025,237.33121 212.328025,237.33121 C212.328025,237.33121 215.33758,236.926752 214.812102,234.812102 C214.286624,232.697452 213.200637,232.175159 209.952229,231.984076 Z" id="Path" fill="#000000" fill-rule="nonzero" opacity="0.1"></path>
                        <path d="M209.952229,232.175159 C209.952229,232.175159 205.464968,232.031847 205.321656,235.515924 C205.178344,239 212.328025,237.522293 212.328025,237.522293 C212.328025,237.522293 215.33758,237.117834 214.812102,235.003185 C214.286624,232.888535 213.200637,232.366242 209.952229,232.175159 Z" id="Path" fill="#3F2B3B" fill-rule="nonzero"></path>
                        <path d="M199.936306,249.694268 C199.936306,249.694268 201.43949,250.235669 201.745223,251.267516" id="Path" fill="#000000" fill-rule="nonzero" opacity="0.1"></path>
                        <path d="M221.312102,248.94586 C221.312102,248.94586 220.235669,249.398089 220.308917,251.283439" id="Path" fill="#000000" fill-rule="nonzero" opacity="0.1"></path>
                        <ellipse id="Oval" fill="#EEC5CD" fill-rule="nonzero" transform="translate(199.936857, 256.538080) rotate(-30.000000) translate(-199.936857, -256.538080) " cx="199.936857" cy="256.53808" rx="1" ry="1.15923567"></ellipse>
                        <ellipse id="Oval" fill="#EEC5CD" fill-rule="nonzero" transform="translate(222.962038, 255.592739) rotate(-60.113473) translate(-222.962038, -255.592739) " cx="222.962038" cy="255.592739" rx="1.16322816" ry="1"></ellipse>
                    </g>
                    <path d="M201.229299,129.649682 C200.194268,129.312102 194.101911,124.589172 193.643312,122.452229 C193.184713,120.315287 196.859873,100.414013 196.859873,100.414013 C196.859873,100.414013 196.522293,100.398089 195.980892,100.347134 L195.980892,100.028662 L196.735669,73.8789809 C196.735669,73.8789809 199.83758,56.3407643 193.977707,57.3503185 C188.117834,58.3598726 191.792994,73.8789809 191.792994,73.8789809 C191.792994,73.8789809 191.124204,81.7515924 190.656051,84.1146497 C190.200637,86.388535 188.156051,95.6624204 189.55414,98.544586 C189.603649,98.6476479 189.66115,98.7466765 189.726115,98.8407643 L189.726115,98.8407643 C189.726115,98.8407643 189.955414,108.732484 187.426752,110.082803 C185.012739,111.356688 184.009554,117.840764 183.923567,118.423567 L183.796178,118.366242 L183.796178,118.366242 C183.076965,117.926758 182.442663,117.361496 181.923567,116.697452 C181.875796,116.630573 181.83121,116.557325 181.783439,116.487261 C185.198804,112.746556 185.08257,106.985257 181.519108,103.38535 L181.280255,103.152866 C181.477669,102.957049 181.623234,102.71517 181.703822,102.449045 C182.149682,101.105096 180.60828,100.025478 179.808917,99.1847134 C177.958599,97.2165605 176.289809,94.8057325 173.710191,93.6910828 C174.449527,94.1103799 175.134135,94.6195569 175.748408,95.2070064 C174.969659,94.5352065 174.077929,94.0068539 173.11465,93.6464968 C170.414013,92.6910828 167.305732,93.4808917 164.949045,95.0923567 C162.592357,96.7038217 160.850318,99.0254777 159.257962,101.366242 L158.487261,102.512739 C157.812709,101.754918 157.077816,101.053042 156.289809,100.414013 C154.796178,99.2898089 151.808917,95.5796178 151.808917,95.5796178 C151.808917,95.5796178 142.5,86.133758 141.808917,83.5477707 C141.117834,80.9617834 131.812102,65.4426752 129.742038,68.1433121 C127.671975,70.843949 136.866242,82.6464968 136.866242,82.6464968 C136.866242,82.6464968 138.592357,86.9203822 139.971338,88.3789809 C141.350318,89.8375796 151.576433,104.458599 151.576433,104.458599 L152.442675,106.210191 L152.605096,106.528662 L152.496815,106.468153 L152.496815,108.605096 L153.452229,108.691083 C153.027906,109.066853 152.639792,109.481623 152.292994,109.929936 C151.774146,110.683456 151.388504,111.520451 151.152866,112.404459 C149.646497,117.382166 150.261146,122.83121 152.203822,127.66242 C152.605096,128.656051 153.063694,129.646497 153.184713,130.707006 C153.359873,132.191083 152.866242,133.659236 152.566879,135.127389 C152.152866,137.187898 152.16879,139.433121 153.203822,141.270701 C154.589172,143.710191 157.694268,144.980892 160.509554,144.525478 C161.794452,144.308466 163.009992,143.791261 164.057325,143.015924 C165.376401,142.100452 166.440626,140.864154 167.149682,139.423567 C167.675159,138.350318 168.003185,137.194268 168.525478,136.117834 C168.624204,135.910828 168.735669,135.713376 168.843949,135.512739 C170.035032,136.847134 171.105096,138.06051 171.105096,138.06051 C171.105096,138.06051 173.633758,150.203822 171.449045,153.576433 C170.287304,155.273549 168.880275,156.788976 167.273885,158.073248 C166.868437,158.407045 166.496217,158.779265 166.16242,159.184713 C165.94586,159.340764 165.818471,159.423567 165.818471,159.423567 C165.818471,159.423567 165.761146,159.585987 165.678344,159.834395 C165.165627,160.588018 164.794393,161.428688 164.582803,162.315287 C164.503674,162.542028 164.475405,162.783404 164.5,163.022293 C164.656051,163.340764 163.375796,164.61465 163.751592,165.159236 C160.566879,168.821656 159.955414,174.375796 159.955414,174.375796 L154.149682,183.035032 C151.16242,190.735669 146.681529,191.525478 146.681529,191.525478 C146.681529,191.525478 136.171975,184.60828 135.875796,184.270701 C135.579618,183.933121 131.566879,182.248408 131.566879,182.248408 C131.090322,181.427549 130.367074,180.777851 129.5,180.39172 C128.121019,179.83121 128.006369,177.751592 128.006369,177.751592 C127.834395,172.859873 124.901274,172.464968 124.901274,172.464968 C122.538217,172.270701 120.729299,172.681529 119.343949,173.436306 L118.923567,173.468153 C116.888535,173.630573 114.436306,173.808917 111.742038,173.984076 C104.267516,174.468153 102.490446,179.213376 102.490446,179.213376 C102.490446,179.213376 101.570064,180.22293 102.77707,181.318471 C103.984076,182.414013 111.694268,181.33758 112.012739,181.292994 C111.425447,181.357772 110.83132,181.317876 110.257962,181.175159 C111.474522,181.130573 113.143312,181.089172 114.563694,181.085987 L114.910828,181.085987 C114.821295,181.825648 114.778747,182.570241 114.783439,183.315287 C114.783439,184.72293 118.748408,185.621019 118.748408,185.621019 L130.815287,196.130573 C130.815287,196.130573 138.401274,199.449045 143.235669,204.226115 C148.070064,209.003185 152.315287,204.901274 152.315287,204.901274 C157.410828,203.665605 172.127389,186.254777 172.140127,186.238854 L172.140127,186.238854 C172.140127,186.773885 172.458599,203.681529 173.044586,207.079618 L173.044586,207.079618 C173.067311,207.251734 173.110063,207.420607 173.171975,207.582803 C173.863057,209.047771 172.942675,213.038217 172.535032,214.726115 C172.127389,216.414013 172.245223,218.996815 172.245223,218.996815 C172.245223,218.996815 166.735669,239.671975 167.210191,241.471338 C167.684713,243.270701 164.219745,251.703822 164.219745,251.703822 L164.219745,258.729299 C164.219745,258.729299 164.43949,258.729299 164.821656,258.700637 C164.742391,258.811779 164.670067,258.927711 164.605096,259.047771 C164.59066,259.072364 164.577892,259.097899 164.566879,259.124204 C164.566879,259.124204 168.242038,259.910828 170.713376,259.684713 C173.184713,259.458599 177.436306,261.55414 177.436306,261.55414 C177.436306,261.55414 178.875796,262.216561 183.299363,262.509554 C187.72293,262.802548 187.72293,260.598726 187.72293,260.598726 C187.213376,257.60828 180.229299,256.611465 180.009554,256.582803 C179.44586,256.235669 178.917197,255.856688 178.484076,255.531847 L178.39172,255.458599 C178.42478,255.394495 178.451448,255.327292 178.471338,255.257962 C179.219745,252.27707 175.082803,250.984076 175.082803,250.984076 L175.082803,250.254777 C177.780255,248.904459 178.299363,239.627389 178.299363,239.627389 C178.299363,239.627389 182.321656,228.16242 182.894904,226.251592 C183.468153,224.340764 182.894904,221.474522 182.894904,221.474522 L183.299363,219.003185 C183.299363,219.003185 184.159236,217.315287 184.159236,216.977707 C184.273312,216.119159 184.610414,215.305502 185.136943,214.617834 C185.773885,213.88535 184.449045,212.143312 184.449045,212.143312 L185.598726,209.219745 L185.598726,205.996815 L188.296178,194.359873 C188.296178,194.359873 191.11465,180.808917 190.136943,176.366242 C189.159236,171.923567 191.286624,169.678344 191.286624,169.678344 C191.094126,169.777161 190.89638,169.865403 190.694268,169.942675 C190.965495,169.334681 191.198433,168.710321 191.39172,168.073248 L197.442675,168.808917 C197.442675,168.859873 197.442675,168.894904 197.442675,168.894904 L199.624204,168.894904 C199.624204,168.894904 198.936306,160.573248 198.936306,157.200637 C198.936306,153.828025 201.235669,141.796178 201.235669,141.796178 C201.235669,141.796178 202.261146,129.987261 201.229299,129.649682 Z M174.394904,119.77707 C174.394904,119.824841 174.394904,119.869427 174.394904,119.914013 C174.394904,120.232484 174.363057,120.585987 174.340764,120.933121 L174.219745,121.117834 L174,120.929936 L173.72293,121.347134 L173.72293,121.347134 C173.624642,120.810682 173.801605,120.26066 174.194268,119.882166 C174.258872,119.843891 174.325891,119.809849 174.394904,119.780255 L174.394904,119.77707 Z M194.496815,158.735669 L194.630573,158.735669 L194.414013,159.283439 C194.442675,159.105096 194.468153,158.923567 194.496815,158.738854 L194.496815,158.735669 Z M172.423567,258.226115 L171.598726,258.025478 L172.057325,257.949045 L172.471338,258.219745 L172.522293,258.251592 L172.423567,258.226115 Z M180.843949,257.047771 C180.570064,256.904459 180.292994,256.729299 180.025478,256.576433 C180.111465,256.624204 180.464968,256.805732 180.843949,257.047771 L180.843949,257.047771 Z" id="Shape" fill="url(#linearGradient-2)" fill-rule="nonzero"></path>
                    <polygon id="Path" fill="#F1D2D7" fill-rule="nonzero" points="196.506369 150.318471 191.235669 164.050955 190.496815 163.44586 187.56051 168.003185 196.506369 169.117834"></polygon>
                    <polygon id="Path" fill="#000000" fill-rule="nonzero" opacity="0.1" points="196.5 150.318471 191.226115 164.050955 189.901274 163.694268 187.550955 168.003185 196.5 169.117834"></polygon>
                    <polygon id="Path" fill="#F1D2D7" fill-rule="nonzero" points="188.245223 159.105096 196.506369 159.105096 199.538217 134.149682 188.245223 134.149682"></polygon>
                    <polygon id="Path" fill="#000000" fill-rule="nonzero" opacity="0.1" points="188.245223 159.105096 196.506369 159.105096 199.538217 134.149682 188.245223 134.149682"></polygon>
                    <path d="M172.10828,140.06051 L173.888535,139.742038 L177.987261,139.073248 C177.987261,139.073248 190.296178,136.302548 192.847134,136.079618 C194.43949,135.93949 196.200637,135.283439 197.305732,134.805732 C197.971338,134.522293 198.394904,134.302548 198.394904,134.302548 L193.961783,126.203822 L187.082803,121.10828 C187.082803,121.10828 182.732484,120.181529 180.888535,117.649682 C180.056246,116.541763 179.841676,115.087722 180.318471,113.786624 C181.442675,110.302548 173.611465,117.11465 173.611465,117.11465 C173.611465,117.11465 173.687898,118.745223 173.611465,120.824841 C173.611465,121.235669 173.573248,121.66242 173.544586,122.098726 C173.525478,122.38535 173.5,122.671975 173.474522,122.964968 C173.280248,125.028662 172.888535,127.156051 172.117834,128.426752 C170.238854,131.519108 172.10828,140.06051 172.10828,140.06051 Z" id="Path" fill="#FFBEC7" fill-rule="nonzero"></path>
                    <path d="M173.605096,120.980892 L173.77707,120.980892 C174.095541,120.980892 174.340764,120.318471 174.646497,120.286624 C177.095541,120.050955 179.33121,119.538217 180.88535,117.805732 C180.054732,116.697117 179.840292,115.243957 180.315287,113.942675 C181.43949,110.458599 173.627389,117.267516 173.627389,117.267516 C173.627389,117.267516 173.687898,118.898089 173.605096,120.980892 Z" id="Path" fill="#000000" fill-rule="nonzero" opacity="0.1"></path>
                    <path d="M164.073248,111.111465 C164.082032,116.381851 168.356995,120.649682 173.627389,120.649682 C173.937984,120.649682 174.248378,120.63387 174.557325,120.601911 C179.680074,120.100073 183.480622,115.624194 183.145349,110.487854 C182.810077,105.351515 178.459935,101.407668 173.315419,101.576022 C168.170902,101.744375 164.087915,105.964195 164.089172,111.111465 L164.073248,111.111465 Z" id="Path" fill="#FFBEC7" fill-rule="nonzero"></path>
                    <path d="M164.073248,111.111465 C164.082032,116.381851 168.356995,120.649682 173.627389,120.649682 C173.937984,120.649682 174.248378,120.63387 174.557325,120.601911 C174.726959,120.532027 174.877584,120.422879 174.996815,120.283439 C175.221269,119.939721 175.284104,119.515005 175.16879,119.121019 C174.792994,117.257962 173.101911,115.920382 172.493631,114.117834 C171.958599,112.525478 172.359873,110.719745 173.181529,109.248408 C174.003185,107.77707 175.216561,106.563694 176.414013,105.372611 C176.614997,105.138865 176.868079,104.955599 177.152866,104.83758 C178.171975,104.519108 179.700637,105.410828 180.509554,104.5 C177.807434,101.707226 173.682994,100.829318 170.077732,102.279534 C166.472469,103.72975 164.104767,107.219121 164.089172,111.105096 L164.073248,111.111465 Z" id="Path" fill="#000000" fill-rule="nonzero" opacity="0.1"></path>
                    <path d="M176.802548,104.678344 C176.517108,104.795192 176.26377,104.978643 176.063694,105.213376 C174.869427,106.404459 173.656051,107.61465 172.834395,109.089172 C172.012739,110.563694 171.611465,112.356688 172.146497,113.955414 C172.751592,115.761146 174.44586,117.098726 174.818471,118.961783 C174.933679,119.354734 174.870822,119.778439 174.646497,120.121019 C174.328025,120.519108 173.72293,120.541401 173.308917,120.840764 C172.780255,121.226115 172.671975,121.990446 172.83121,122.624204 C173.046839,123.241203 173.341202,123.82779 173.707006,124.369427 C174.598726,125.94586 174.980892,127.996815 174.025478,129.528662 C173.575295,130.153816 173.039235,130.71239 172.433121,131.187898 C171.42919,132.079243 170.500362,133.051744 169.656051,134.095541 C168.928362,134.963762 168.306185,135.915201 167.802548,136.929936 C167.299363,137.990446 166.980892,139.133758 166.474522,140.194268 C165.286624,142.675159 162.949045,144.652866 160.232484,145.101911 C157.515924,145.550955 154.519108,144.296178 153.184713,141.89172 C152.178344,140.076433 152.165605,137.863057 152.563694,135.840764 C152.847134,134.394904 153.328025,132.94586 153.16242,131.480892 C153.041401,130.436306 152.598726,129.458599 152.207006,128.477707 C150.334395,123.700637 149.738854,118.33758 151.191083,113.426752 C151.418838,112.556506 151.791337,111.730763 152.292994,110.984076 C152.820312,110.331946 153.402017,109.725737 154.031847,109.171975 C156.015924,107.232484 157.477707,104.834395 159.015924,102.525478 C160.55414,100.216561 162.229299,97.9235669 164.506369,96.3343949 C166.783439,94.7452229 169.780255,93.9585987 172.38535,94.910828 C175.111465,95.9076433 176.796178,98.4490446 178.687898,100.493631 C179.455414,101.328025 180.94586,102.388535 180.515924,103.716561 C179.888535,105.589172 177.996815,104.302548 176.802548,104.678344 Z" id="Path" fill="#493545" fill-rule="nonzero"></path>
                    <path d="M159.729299,144.646497 C162.442675,144.197452 164.780255,142.219745 165.968153,139.735669 C166.477707,138.678344 166.792994,137.535032 167.299363,136.474522 C167.802003,135.459948 168.423107,134.508515 169.149682,133.640127 C169.995922,132.596025 170.925744,131.622535 171.929936,130.729299 C172.536916,130.254749 173.073102,129.696043 173.522293,129.070064 C174.477707,127.538217 174.111465,125.487261 173.22293,123.914013 C172.857311,123.370648 172.561968,122.783173 172.343949,122.165605 C172.178344,121.528662 172.292994,120.767516 172.821656,120.38535 C173.238854,120.085987 173.83758,120.066879 174.16242,119.665605 C174.386745,119.323025 174.449603,118.89932 174.334395,118.506369 C173.958599,116.640127 172.264331,115.305732 171.659236,113.5 C171.124204,111.907643 171.522293,110.105096 172.347134,108.630573 C173.171975,107.156051 174.378981,105.952229 175.563694,104.754777 C175.765774,104.521607 176.020003,104.339391 176.305732,104.22293 C177.496815,103.847134 179.39172,105.133758 180.003185,103.251592 C180.433121,101.923567 178.942675,100.859873 178.175159,100.028662 C176.547771,98.2675159 175.070064,96.1401274 172.949045,94.933121 C175.436306,96.022293 177.047771,98.4076433 178.840764,100.347134 C179.60828,101.178344 181.098726,102.238854 180.66879,103.566879 C180.057325,105.449045 178.16242,104.16242 176.971338,104.538217 C176.685402,104.655803 176.431189,104.839098 176.229299,105.073248 C175.035032,106.264331 173.824841,107.474522 173,108.949045 C172.175159,110.423567 171.77707,112.216561 172.312102,113.818471 C172.917197,115.621019 174.611465,116.958599 174.987261,118.821656 C175.102469,119.214607 175.039612,119.638311 174.815287,119.980892 C174.496815,120.378981 173.888535,120.401274 173.474522,120.703822 C172.94586,121.085987 172.83758,121.850318 172.996815,122.484076 C173.212244,123.101746 173.507758,123.688491 173.875796,124.229299 C174.764331,125.805732 175.149682,127.856688 174.175159,129.388535 C173.72514,130.013825 173.18906,130.572421 172.582803,131.047771 C171.579418,131.940695 170.649655,132.913059 169.802548,133.955414 C169.076572,134.824245 168.455516,135.775604 167.952229,136.789809 C167.44586,137.853503 167.130573,138.993631 166.621019,140.05414 C165.433121,142.535032 163.095541,144.512739 160.382166,144.961783 C158.77799,145.213301 157.135904,144.91474 155.72293,144.11465 C156.979987,144.671625 158.370464,144.856212 159.729299,144.646497 Z" id="Path" fill="#000000" fill-rule="nonzero" opacity="0.1"></path>
                    <path d="M169.834395,255.952229 L171.5,257.050955 L171.751592,257.219745 L171.802548,257.254777 L173.773885,258.557325 L178.372611,259.334395 L182.423567,259.057325 C182.423567,259.057325 183.589172,256.617834 181.757962,256.671975 C181.170246,256.643817 180.596969,256.480335 180.082803,256.194268 L179.834395,256.063694 L179.834395,256.063694 C179.570064,255.923567 179.302548,255.767516 179.044586,255.601911 L179.044586,255.601911 L179.044586,255.601911 C178.503185,255.257962 177.990446,254.88535 177.573248,254.563694 C176.968153,254.095541 176.563694,253.738854 176.563694,253.738854 L169.834395,255.952229 Z" id="Path" fill="#FFBEC7" fill-rule="nonzero"></path>
                    <path d="M171.512739,257.057325 L171.764331,257.226115 L171.815287,257.261146 L173.786624,258.563694 L178.38535,259.340764 L182.436306,259.063694 C182.436306,259.063694 183.601911,256.624204 181.770701,256.678344 C181.182985,256.650187 180.609708,256.486705 180.095541,256.200637 C180.388818,256.370922 180.613932,256.637682 180.732484,256.955414 C180.805732,257.592357 177.738854,258.707006 177.738854,258.707006 L173.410828,257.563694 C173.410828,257.563694 172.675159,257.356688 171.665605,257.095541 L171.570064,257.070064 L171.512739,257.057325 Z" id="Path" fill="#000000" fill-rule="nonzero" opacity="0.1"></path>
                    <path d="M164.124204,258.121019 C164.124204,258.121019 167.671975,258.894904 170.057325,258.675159 C172.442675,258.455414 176.544586,260.515924 176.544586,260.515924 C176.544586,260.515924 177.933121,261.152866 182.200637,261.449045 C186.468153,261.745223 186.480892,259.56051 186.480892,259.56051 C185.990446,256.61465 179.248408,255.627389 179.035032,255.601911 L179.035032,255.601911 L179.035032,255.601911 L179.035032,255.601911 C179.121019,255.646497 179.461783,255.828025 179.824841,256.063694 L179.824841,256.063694 C180.302548,256.382166 180.821656,256.786624 180.859873,257.11465 C180.933121,257.751592 177.866242,258.866242 177.866242,258.866242 L173.541401,257.726115 C173.541401,257.726115 172.805732,257.515924 171.792994,257.254777 L171.697452,257.229299 C170.206952,256.817496 168.692375,256.498413 167.16242,256.273885 C165.299363,256.076433 164.343949,257.66242 164.149682,258.028662 C164.133758,258.095541 164.124204,258.121019 164.124204,258.121019 Z" id="Path" fill="#BD577A" fill-rule="nonzero"></path>
                    <path d="M108.226115,179.875796 L110.111465,181.318471 C110.111465,181.318471 110.659236,181.292994 111.474522,181.264331 L111.735669,181.264331 C112.907643,181.22293 114.519108,181.181529 115.89172,181.178344 C117.165605,181.178344 118.22293,181.216561 118.541401,181.328025 C119.496815,181.646497 121.146497,175.949045 121.146497,175.949045 L119.254777,175.503185 L118.617834,175.356688 L118.178344,175.254777 L116.643312,174.894904 L111.984076,175.420382 L108.713376,177.528662 L108.226115,179.875796 Z" id="Path" fill="#FFBEC7" fill-rule="nonzero"></path>
                    <path d="M108.226115,179.875796 L110.111465,181.318471 C110.111465,181.318471 110.659236,181.292994 111.474522,181.264331 C111.101625,181.117692 110.794845,180.840345 110.611465,180.484076 C109.39172,177.101911 115.436306,175.66242 115.436306,175.66242 L118.251592,175.538217 L118.796178,175.515924 L119.254777,175.493631 L118.617834,175.347134 L118.178344,175.245223 L116.643312,174.88535 L111.984076,175.410828 L108.713376,177.519108 L108.226115,179.875796 Z" id="Path" fill="#000000" fill-rule="nonzero" opacity="0.1"></path>
                    <path d="M104.509554,181.398089 C105.649682,182.455414 113.10828,181.417197 113.426752,181.372611 C112.859546,181.437465 112.285251,181.397524 111.732484,181.254777 C110.691083,180.961783 110.43949,180.318471 110.43949,180.318471 C109.22293,176.936306 115.264331,175.493631 115.264331,175.493631 L118.082803,175.372611 L118.627389,175.347134 L125.468153,175.050955 L125.802548,173.165605 C125.802548,173.165605 123.573248,173.378981 120.089172,173.656051 C118.124204,173.815287 115.754777,173.993631 113.159236,174.16242 C105.94586,174.640127 104.242038,179.321656 104.242038,179.321656 C104.242038,179.321656 103.359873,180.318471 104.509554,181.398089 Z" id="Path" fill="#BD577A" fill-rule="nonzero"></path>
                    <path d="M188.248408,99.7292994 C188.295441,99.8307376 188.349722,99.9286556 188.410828,100.022293 L190.076433,102.461783 L194.401274,102.907643 L194.449045,101.194268 L195.175159,75.3980892 C195.175159,75.3980892 198.171975,58.0955414 192.515924,59.0955414 C186.859873,60.0955414 190.407643,75.3980892 190.407643,75.3980892 C190.407643,75.3980892 189.770701,83.1624204 189.308917,85.4904459 C188.872611,87.7388535 186.898089,96.8853503 188.248408,99.7292994 Z" id="Path" fill="#FFBEC7" fill-rule="nonzero"></path>
                    <path d="M178.541401,163.792994 L179.770701,165.901274 L182.525478,170.61465 C182.525478,170.61465 187.525478,172.44586 188.799363,171.057325 C189.503185,170.292994 190.257962,167.640127 190.789809,165.414013 C191.226115,163.601911 191.515924,162.073248 191.515924,162.073248 L178.541401,163.792994 Z" id="Path" fill="#FFBEC7" fill-rule="nonzero"></path>
                    <path d="M178.541401,163.792994 L179.770701,165.901274 C179.84896,165.834136 179.920428,165.759467 179.984076,165.678344 C181.372611,163.901274 187.503185,165.302548 190.789809,165.414013 C191.226115,163.601911 191.515924,162.073248 191.515924,162.073248 L178.541401,163.792994 Z" id="Path" fill="#000000" fill-rule="nonzero" opacity="0.1"></path>
                    <path d="M115.89172,181.16879 C117.165605,181.16879 118.22293,181.207006 118.541401,181.318471 C119.496815,181.636943 121.146497,175.93949 121.146497,175.93949 L118.646497,175.347134 L125.487261,175.050955 L125.821656,173.165605 C125.821656,173.165605 123.592357,173.378981 120.10828,173.656051 C119.382125,174.069576 118.735144,174.608726 118.197452,175.248408 L118.092357,175.375796 C116.636943,177.16242 116.098726,179.468153 115.89172,181.16879 Z" id="Path" fill="#000000" fill-rule="nonzero" opacity="0.1"></path>
                    <path d="M169.834395,255.952229 L171.745223,257.226115 C174.611465,256.710191 177.226115,255.898089 177.535032,254.627389 C177.536232,254.606174 177.536232,254.584909 177.535032,254.563694 C176.929936,254.095541 176.525478,253.738854 176.525478,253.738854 L169.834395,255.952229 Z" id="Path" fill="#000000" fill-rule="nonzero" opacity="0.1"></path>
                    <path d="M164.159236,258.044586 C166.688727,257.921665 169.208915,257.651569 171.707006,257.235669 C170.216506,256.823865 168.701929,256.504783 167.171975,256.280255 C165.308917,256.092357 164.353503,257.678344 164.159236,258.044586 Z" id="Path" fill="#000000" fill-rule="nonzero" opacity="0.1"></path>
                    <path d="M116.098723,183.369427 C116.098723,184.754777 119.920382,185.643312 119.920382,185.643312 L131.566879,196.012739 C131.566879,196.012739 138.89172,199.283439 143.544586,203.996815 C148.197452,208.710191 152.312102,204.678344 152.312102,204.678344 C157.245223,203.458599 171.442675,186.267516 171.442675,186.267516 C171.442675,186.267516 171.77707,205.898089 172.442675,207.340764 C173.10828,208.783439 172.219745,212.719745 171.83121,214.38535 C171.442675,216.050955 171.55414,218.598726 171.55414,218.598726 C171.55414,218.598726 166.229299,238.949045 166.675159,240.72293 C167.121019,242.496815 163.789809,250.815287 163.789809,250.815287 L163.789809,257.748408 C163.789809,257.748408 176.821656,257.248408 177.541401,254.308917 C178.261146,251.369427 174.270701,250.095541 174.270701,250.095541 L174.270701,249.359873 C176.875796,248.028662 177.375796,238.878981 177.375796,238.878981 C177.375796,238.878981 181.257962,227.563694 181.812102,225.697452 C182.366242,223.83121 181.812102,220.980892 181.812102,220.980892 L182.200637,218.541401 C182.200637,218.541401 183.031847,216.878981 183.031847,216.547771 C183.144165,215.701368 183.473273,214.898345 183.987261,214.216561 C184.598723,213.496815 183.321656,211.77707 183.321656,211.77707 L184.433121,208.910828 L184.433121,205.748408 L187.038217,194.283439 C187.038217,194.283439 189.754777,180.907643 188.812102,176.538217 C187.869427,172.16879 189.923567,169.936306 189.923567,169.936306 C185.464968,172.273885 183.235669,167.070064 182.493631,164.840764 C182.302548,164.264331 182.213376,163.88535 182.213376,163.88535 C182.213376,163.88535 176.101911,161.630573 170.407643,162.165605 C169.252491,162.262965 168.114102,162.504766 167.019108,162.88535 C160.697452,165.159236 159.694268,174.585987 159.694268,174.585987 L154.092357,183.127389 C151.226115,190.72293 146.882166,191.5 146.882166,191.5 C146.882166,191.5 136.735669,184.678344 136.458599,184.347134 C136.181529,184.015924 132.299363,182.350318 132.299363,182.350318 C131.842867,181.545136 131.144146,180.904362 130.302548,180.519108 C128.971338,179.964968 128.863057,177.914013 128.863057,177.914013 C128.694268,173.089172 125.866242,172.700637 125.866242,172.700637 C116.044586,171.834395 116.098723,181.984076 116.098723,183.369427 Z" id="Path" fill="#E7AEB8" fill-rule="nonzero"></path>
                    <rect id="Rectangle" fill="#F1D2D7" fill-rule="nonzero" transform="translate(175.546178, 146.963376) rotate(-180.000000) translate(-175.546178, -146.963376) " x="172.550955" y="137.675159" width="5.99044586" height="18.5764331"></rect>
                    <rect id="Rectangle" fill="#000000" fill-rule="nonzero" opacity="0.1" transform="translate(174.992038, 146.202229) rotate(-180.000000) translate(-174.992038, -146.202229) " x="171.996815" y="136.914013" width="5.99044586" height="18.5764331"></rect>
                    <path d="M188.245223,99.6878981 C188.244449,99.7016877 188.244449,99.7155098 188.245223,99.7292994 C188.292257,99.8307376 188.346537,99.9286556 188.407643,100.022293 L190.073248,102.461783 L194.398089,102.907643 L194.44586,101.194268 C193.095541,101.076433 190.025478,100.707006 188.245223,99.6878981 Z" id="Path" fill="#000000" fill-rule="nonzero" opacity="0.1"></path>
                    <path d="M188.410828,100.022293 C188.410828,100.022293 188.633758,109.780255 186.181529,111.111465 C183.729299,112.442675 182.792994,119.39172 182.792994,119.39172 C182.792994,119.39172 190.175159,124.257962 191.83758,126.398089 C193.5,128.538217 197.270701,133.636943 196.496815,134.856688 C195.72293,136.076433 198.394904,141.621019 198.394904,141.621019 C198.394904,141.621019 193.512739,151.605096 194.624204,155.375796 C195.735669,159.146497 195.843949,169.127389 195.843949,169.127389 L197.94586,169.127389 C197.94586,169.127389 197.280255,160.920382 197.280255,157.592357 C197.280255,154.264331 199.509554,142.398089 199.509554,142.398089 C199.509554,142.398089 200.506369,130.751592 199.509554,130.420382 C198.512739,130.089172 192.633758,125.429936 192.184713,123.321656 C191.735669,121.213376 195.289809,101.582803 195.289809,101.582803 C195.289809,101.582803 190.742038,101.353503 188.410828,100.022293 Z" id="Path" fill="#F1D2D7" fill-rule="nonzero"></path>
                    <path d="M172.442675,135.955414 C172.64282,137.312875 173.136206,138.61046 173.888535,139.757962 L177.987261,139.073248 C177.987261,139.073248 190.296178,136.302548 192.847134,136.079618 C194.43949,135.93949 196.200637,135.283439 197.305732,134.805732 C196.331571,131.349692 194.426826,128.227629 191.799363,125.780255 L190.235669,124.33121 C187.930618,122.198733 185.26498,120.492811 182.363057,119.292994 C182.544586,119.449045 195.458599,130.474522 192.630573,132.636943 C189.802548,134.799363 182.194268,129.519108 182.194268,129.519108 L173.535032,122.079618 L173.216561,121.808917 L172.713376,122.585987 C172.969284,122.692067 173.219134,122.812207 173.461783,122.94586 C176.405765,124.568998 178.588792,127.290054 179.535032,130.515924 C181.321656,136.503185 172.442675,135.955414 172.442675,135.955414 Z" id="Path" fill="#000000" fill-rule="nonzero" opacity="0.1"></path>
                    <path d="M169.780255,163.681529 C169.780255,163.681529 177.987261,168.229299 179.971338,165.678344 C180.410828,165.117834 181.321656,164.872611 182.468153,164.805732 C182.27707,164.229299 182.187898,163.850318 182.187898,163.850318 C182.187898,163.850318 176.076433,161.595541 170.382166,162.130573 C170.015924,163.076433 169.780255,163.681529 169.780255,163.681529 Z" id="Path" fill="#000000" fill-rule="nonzero" opacity="0.1"></path>
                    <path d="M173.55414,121.815287 L182.525478,129.519108 C182.525478,129.519108 190.111465,134.805732 192.958599,132.627389 C195.805732,130.449045 182.691083,119.280255 182.691083,119.280255 L182.691083,119.280255 C185.594857,120.478352 188.261831,122.184439 190.566879,124.318471 L192.130573,125.767516 C196.238854,129.573248 197.165605,129.573248 197.302548,135.171975 C197.33758,136.547771 196.869427,138.528662 196.509554,138.888535 C195.178344,140.207006 194.242038,149.671975 194.449045,150.780255 C194.656051,151.888535 191.961783,161.461783 192.856688,164.124204 C193.751592,166.786624 181.990446,162.792994 179.993631,165.343949 C177.996815,167.894904 169.802548,163.347134 169.802548,163.347134 C169.802548,163.347134 174.350318,151.700637 175.458599,150.926752 C176.566879,150.152866 177.898089,144.159236 175.458599,141.372611 C173.019108,138.585987 172.786624,135.955414 172.786624,135.955414 C172.786624,135.955414 181.665605,136.506369 179.88535,130.522293 C178.872278,127.013045 176.38218,124.118394 173.063694,122.592357 L173.55414,121.815287 Z" id="Path" fill="#E8E8F0" fill-rule="nonzero"></path>
                    <path d="M185.525478,141.44586 C185.525478,141.44586 182.085987,147.936306 177.630573,149.621019 C177.490446,149.671975 177.350318,149.719745 177.207006,149.764331 C172.550955,151.175159 185.859873,143.442675 185.525478,141.44586 Z" id="Path" fill="#000000" fill-rule="nonzero" opacity="0.1"></path>
                    <path d="M137.394904,84.0509554 C137.394904,84.0509554 139.057325,88.2675159 140.388535,89.7070064 C141.719745,91.1464968 151.589172,105.566879 151.589172,105.566879 L152.426752,107.296178 L153.143312,108.783439 L159.464968,108.117834 L159.907643,105.570064 L159.665605,105.273885 C159.028662,104.512739 157.299363,102.468153 156.136943,101.576433 C154.697452,100.468153 151.812102,96.7993631 151.812102,96.7993631 C151.812102,96.7993631 142.828025,87.4808917 142.165605,84.933121 C141.503185,82.3853503 132.515924,67.0764331 130.519108,69.7388535 C128.522293,72.4012739 137.394904,84.0509554 137.394904,84.0509554 Z" id="Path" fill="#FFBEC7" fill-rule="nonzero"></path>
                    <path d="M152.426752,107.296178 L153.143312,108.783439 L159.464968,108.117834 L159.907643,105.570064 L159.665605,105.273885 C158.984076,105.60828 153.929936,108.031847 152.426752,107.296178 Z" id="Path" fill="#000000" fill-rule="nonzero" opacity="0.1"></path>
                    <path d="M175.767516,123.977707 C175.767516,123.977707 174.216561,121.538217 173.328025,122.203822 C172.43949,122.869427 172.095541,120.207006 171.601911,120.649682 C171.10828,121.092357 169.611465,122.33121 169.003185,120.598726 C168.519108,119.22293 163.270701,110.528662 161.130573,107.025478 L160.242038,105.566879 C160.242038,105.566879 154.251592,108.563694 152.812102,107.563694 L152.812102,109.671975 L154.031847,109.783439 L160.573248,121.980892 C160.573248,121.980892 162.630573,125.245223 162.484076,126.388535 C162.33758,127.531847 165.11465,132.519108 165.557325,132.850318 C166,133.181529 170.770701,138.729299 170.770701,138.729299 C170.770701,138.729299 173.210191,150.707006 171.089172,154.035032 C168.968153,157.363057 165.321656,159.802548 165.321656,159.802548 C165.321656,159.802548 164.22293,163.015924 164.366242,163.350318 C164.509554,163.684713 163.092357,165.124204 163.751592,165.579618 C164.410828,166.035032 165.305732,169.130573 165.305732,169.130573 C165.305732,169.130573 168.410828,164.140127 170.082803,163.363057 C171.754777,162.585987 173.904459,152.382166 173.904459,152.382166 C173.904459,152.382166 174.515924,146.366242 174.566879,142.484076 C174.617834,138.601911 174.436306,123.977707 175.767516,123.977707 Z" id="Path" fill="#000000" fill-rule="nonzero" opacity="0.1"></path>
                    <path d="M175.436306,123.977707 C175.436306,123.977707 173.882166,121.538217 172.996815,122.203822 C172.111465,122.869427 171.764331,120.207006 171.270701,120.649682 C170.77707,121.092357 169.280255,122.33121 168.671975,120.598726 C168.184713,119.22293 162.93949,110.528662 160.799363,107.025478 C160.251592,106.124204 159.907643,105.566879 159.907643,105.566879 C159.907643,105.566879 153.920382,108.563694 152.477707,107.563694 L152.477707,109.671975 L153.697452,109.783439 L160.242038,121.980892 C160.242038,121.980892 162.296178,125.245223 162.152866,126.388535 C162.009554,127.531847 164.786624,132.519108 165.229299,132.850318 C165.671975,133.181529 170.442675,138.729299 170.442675,138.729299 C170.442675,138.729299 172.882166,150.707006 170.761146,154.035032 C169.645739,155.703526 168.289171,157.197469 166.735669,158.468153 C165.438647,159.545758 164.526664,161.015436 164.136943,162.656051 C164.06201,162.879323 164.035944,163.116093 164.06051,163.350318 C164.22293,163.66879 162.786624,165.124204 163.44586,165.579618 C164.105096,166.035032 164.996815,169.130573 164.996815,169.130573 C164.996815,169.130573 168.101911,164.140127 169.773885,163.363057 C171.44586,162.585987 173.595541,152.382166 173.595541,152.382166 C173.595541,152.382166 174.203822,146.366242 174.254777,142.484076 C174.305732,138.601911 174.105096,123.977707 175.436306,123.977707 Z" id="Path" fill="#F1D2D7" fill-rule="nonzero"></path>
                    <path d="M160.242038,174.43949 C160.242038,174.43949 164.901274,175.328025 166.786624,176.66879 C168.671975,178.009554 159.687898,174.56051 159.687898,174.56051 L160.242038,174.43949 Z" id="Path" fill="#000000" fill-rule="nonzero" opacity="0.1"></path>
                    <path d="M171.442675,186.251592 C171.442675,186.251592 176.321656,190.299363 175.436306,193.961783 C174.550955,197.624204 172.315287,206.828025 172.315287,206.828025 L171.442675,186.251592 Z" id="Path" fill="#000000" fill-rule="nonzero" opacity="0.1"></path>
                    <path d="M128.93949,178.461783 C128.93949,178.461783 122.089172,179.210191 122.531847,180.095541 C122.974522,180.980892 128.93949,179.280255 128.93949,179.280255 L128.93949,178.461783 Z" id="Path" fill="#000000" fill-rule="nonzero" opacity="0.1"></path>
                    <path d="M181.535032,212.149682 C181.535032,212.149682 181.980892,212.703822 179.429936,212.149682 C176.878981,211.595541 178.764331,209.888535 178.764331,209.888535 L181.535032,212.149682 Z" id="Path" fill="#000000" fill-rule="nonzero" opacity="0.1"></path>
                    <path d="M180.649682,219.802548 C180.649682,219.802548 177.146497,220.356688 175.296178,219.802548 C173.44586,219.248408 180.649682,219.802548 180.649682,219.802548 Z" id="Path" fill="#000000" fill-rule="nonzero" opacity="0.1"></path>
                    <path d="M173.493631,249.745223 C173.493631,249.745223 172.88535,249.079618 169.834395,250.302548 C166.783439,251.525478 165.563694,251.576433 164.678344,251.187898 C163.792994,250.799363 173.493631,249.745223 173.493631,249.745223 Z" id="Path" fill="#000000" fill-rule="nonzero" opacity="0.1"></path>
                    <path d="M176.878981,177.519108 L172.550955,183.535032 C172.550955,183.535032 174.882166,178.267516 176.878981,177.519108 Z" id="Path" fill="#000000" fill-rule="nonzero" opacity="0.1"></path>
                    <path d="M168.449045,122.194268 C168.449045,122.194268 168.264331,124.191083 165.474522,124.968153 C162.684713,125.745223 162.156051,126.378981 162.156051,126.378981" id="Path" fill="#000000" fill-rule="nonzero" opacity="0.1"></path>
                    <path d="M161.22293,107.72293 C161.22293,107.72293 157.544586,110.340764 153.697452,109.783439" id="Path" fill="#000000" fill-rule="nonzero" opacity="0.1"></path>
                    <path d="M164.025478,163.627389 C164.025478,163.627389 165.101911,164.302548 167.681529,161.350318" id="Path" fill="#000000" fill-rule="nonzero" opacity="0.1"></path>
                    <path d="M190.824841,132.343949 C190.929936,131.805732 190.55414,131.302548 190.187898,130.882166 L189.464968,130.019108 C189.324427,129.841439 189.166534,129.678212 188.993631,129.531847 C188.566879,129.197452 188,129.095541 187.547771,128.796178" id="Path" fill="#000000" fill-rule="nonzero" opacity="0.1"></path>
                    <rect id="Rectangle" fill="#FFAF20" fill-rule="nonzero" x="162.15605115" y="45.28662425" width="58.9745223" height="58.9745223" rx="18.95"></rect>
                    <g id="spinner-wrapper">
                        <g id="loading-circle-spinner">
                            <path d="M152.019108,53.4713376 C150.347562,53.4703726 148.908186,54.6504918 148.58147,56.289798 C148.254754,57.9291042 149.131722,59.5708745 150.67592,60.2108125 C152.220118,60.8507505 154.001321,60.3105646 154.929939,58.920695 C155.858557,57.5308255 155.67587,55.6785001 154.493631,54.4968153 C153.843989,53.8305986 152.949564,53.459936 152.019108,53.4713376 L152.019108,53.4713376 Z" id="Path" fill="#EAEAF3" fill-rule="nonzero"></path>
                            <path d="M151.238854,46.0796178 C151.245049,44.2111505 149.929697,42.5988531 148.098038,42.2297533 C146.266379,41.8606535 144.429247,42.8376898 143.71131,44.5627332 C142.993373,46.2877766 143.594857,48.2797283 145.147541,49.3191413 C146.700226,50.3585543 148.771081,50.1555458 150.092357,48.8343949 C150.83896,48.1141452 151.254,47.1168965 151.238854,46.0796178 Z" id="Path" fill="#EAEAF3" fill-rule="nonzero"></path>
                            <path d="M173.853503,37.0955414 C174.784461,37.0923761 175.583657,36.4322946 175.762665,35.5187036 C175.941674,34.6051125 175.450682,33.6922328 174.589759,33.3379679 C173.728836,32.9837029 172.737546,33.2866324 172.221713,34.061622 C171.70588,34.8366116 171.809042,35.8680084 172.468153,36.5254777 C172.831165,36.8990012 173.332734,37.1053938 173.853503,37.0955414 L173.853503,37.0955414 Z" id="Path" fill="#EAEAF3" fill-rule="nonzero"></path>
                            <path d="M152.019108,30.8598726 C149.97618,30.8627304 148.21959,32.3079054 147.823104,34.3119921 C147.426619,36.3160789 148.500599,38.3212492 150.388542,39.1017839 C152.276486,39.8823187 154.452892,39.2209597 155.58737,37.5219821 C156.721847,35.8230045 156.498619,33.5593106 155.05414,32.1146497 C154.258714,31.2958573 153.16051,30.8418253 152.019108,30.8598726 L152.019108,30.8598726 Z" id="Path" fill="#EAEAF3" fill-rule="nonzero"></path>
                            <path d="M180.191083,44.4076433 C179.399334,43.6075338 178.152289,43.4790292 177.214012,44.1008639 C176.275735,44.7226986 175.908191,45.9212575 176.336573,46.9621855 C176.764955,48.0031135 177.86966,48.5957852 178.973836,48.3770716 C180.078013,48.158358 180.873378,47.1893237 180.872611,46.0636943 C180.883408,45.4413356 180.63681,44.842125 180.191083,44.4076433 L180.191083,44.4076433 Z" id="Path" fill="#EAEAF3" fill-rule="nonzero"></path>
                            <path d="M173.853503,54.2515924 C172.541138,54.2361979 171.401449,55.1518793 171.133779,56.4367495 C170.866109,57.7216198 171.545342,59.016227 172.754681,59.5261651 C173.96402,60.0361033 175.365145,59.6187133 176.098287,58.5301171 C176.831429,57.4415209 176.691486,55.9862612 175.764331,55.0573248 C175.264159,54.5390542 174.573756,54.2479342 173.853503,54.2515924 Z" id="Path" fill="#EAEAF3" fill-rule="nonzero"></path>
                            <path d="M162.936306,58.5414013 C161.447354,58.5415087 160.165823,59.593383 159.875441,61.0537444 C159.585058,62.5141059 160.366699,63.9762271 161.742346,64.5459396 C163.117993,65.1156521 164.704513,64.6342843 165.531661,63.3962196 C166.358809,62.1581548 166.196214,60.5082082 165.143312,59.455414 C164.564585,58.8602841 163.766347,58.5297005 162.936306,58.5414013 Z" id="Path" fill="#EAEAF3" fill-rule="nonzero"></path>
                            <path d="M162.936306,25.7898089 C160.718957,25.801667 158.818062,27.3765945 158.394144,29.5530753 C157.970226,31.729556 159.141086,33.9027762 161.191898,34.7459533 C163.242709,35.5891303 165.603579,34.8679569 166.833163,33.0227201 C168.062747,31.1774832 167.819359,28.7209485 166.251592,27.1528662 C165.381432,26.2612408 164.181979,25.768094 162.936306,25.7898089 L162.936306,25.7898089 Z" id="Path" fill="#EAEAF3" fill-rule="nonzero"></path>
                        </g>
                    </g> 
                </g>
            </g>
        </g>
    </g>
</svg>