<?xml version="1.0" encoding="UTF-8"?>
<svg width="199px" height="143px" viewBox="0 0 199 143" version="1.1" xmlns="http://www.w3.org/2000/svg" xmlns:xlink="http://www.w3.org/1999/xlink">
    <!-- Generator: Sketch 58 (84663) - https://sketch.com -->
    <title>Pilot-your-new-forecast</title>
    <desc>Created with Sketch.</desc>
    <defs>
        <linearGradient x1="50.0009803%" y1="99.9938656%" x2="50.0009803%" y2="-0.00844103098%" id="linearGradient-1">
            <stop stop-color="#808080" stop-opacity="0.25" offset="0%"></stop>
            <stop stop-color="#808080" stop-opacity="0.12" offset="54%"></stop>
            <stop stop-color="#808080" stop-opacity="0.1" offset="100%"></stop>
        </linearGradient>
    </defs>
    <g id="Dashboard" stroke="none" stroke-width="1" fill="none" fill-rule="evenodd">
        <g id="Dashboard---Desktop-1a" transform="translate(-358.000000, -1579.000000)">
            <rect fill="#F6F6F7" x="0" y="0" width="1440" height="1996"></rect>
            <g id="Module/Line-Chart-Large-Copy" transform="translate(312.000000, 1270.000000)">
                <g id="Element/Card-Base" fill="#FFFFFF" stroke="#232F3E" stroke-opacity="0.123880026">
                    <rect id="Card-Base" x="0.5" y="0.5" width="1103" height="701" rx="1"></rect>
                </g>
                <g id="Top-Bar" transform="translate(24.000000, 31.000000)" fill-rule="nonzero">
                    <g id="Group-14-Copy" transform="translate(0.000000, 207.000000)">
                        <g id="Group-23" transform="translate(0.000000, 71.000000)">
                            <g id="Pilot-your-new-forecast" transform="translate(22.500000, -0.000000)">
                                <path d="M127.418929,15.5309619 C119.552831,21.005608 109.349183,20.6516515 100.406842,17.8038294 C91.4645009,14.9560073 83.2516334,9.88203267 74.5338838,6.27598911 C67.2709511,3.2652267 59.6233516,1.28287407 51.8123956,0.386297641 C40.7085844,-0.871415608 28.3093285,0.661197822 20.5725953,9.51370236 C11.9572595,19.3723775 12.6184574,37.1510526 21.9363158,46.2011978 C26.676098,50.8044283 32.8838113,53.062922 38.286588,56.6563884 C43.6893648,60.2498548 48.7076407,66.2186025 48.2494737,73.1557895 C47.8218512,79.577314 42.859274,84.5039564 37.7260073,87.5961343 C33.7588203,89.9857895 28.8699093,92.5946461 28.3919782,97.5446461 C27.9302178,102.33294 32.0393466,106.086316 35.963412,108.219038 C48.7651361,115.181379 64.5314701,115.1149 77.2882759,108.039365 C81.8376044,105.523938 86.0203993,102.16225 90.790726,100.196624 C103.319347,95.0346098 117.123648,100.230762 130.388929,102.129909 C141.659985,103.735291 153.144269,102.904482 164.066897,99.693539 C170.63755,97.7638475 177.231561,94.8154083 181.845572,89.3209982 C185.173122,85.3681851 187.246552,80.3463158 189.194211,75.3963158 C191.268838,70.1163158 193.263811,64.7991833 195.179129,59.4449183 C196.327241,56.2305626 197.459183,52.955118 197.755644,49.5161706 C198.294664,43.2833031 196.027187,37.1187114 192.942196,31.8650635 C185.616915,19.3795644 173.276951,10.5989292 159.921833,8.3691833 C146.566715,6.13943739 132.415644,10.4947187 122.052087,20.0263884" id="Path" fill="#FFAF20" opacity="0.1"></path>
                                <ellipse id="Oval" fill="#FFAF20" opacity="0.1" cx="31.6225045" cy="125.309564" rx="31.6225045" ry="5.3884029"></ellipse>
                                <rect id="Rectangle" fill="#FFAF20" x="40.6834301" y="33.0562976" width="143.102613" height="67.8428494" rx="30.34"></rect>
                                <g id="Group" opacity="0.2" transform="translate(41.684211, 45.277677)" fill="#FFFFFF">
                                    <path d="M28.3290926,43.2886933 L5.18537205,43.2886933 C3.85396602,43.2886933 2.57709091,42.7597943 1.63564468,41.8183481 C0.694198443,40.8769018 0.165299133,39.6000267 0.165299133,38.2686207 L0.165299133,5.13506352 C0.164822624,3.80351137 0.693568486,2.52635919 1.6351181,1.58480957 C2.57666772,0.643259956 3.8538199,0.114514094 5.18537205,0.114990603 L28.3290926,0.114990603 L28.3290926,43.2886933 Z" id="Path"></path>
                                </g>
                                <g id="Group" opacity="0.2" transform="translate(154.339383, 45.277677)" fill="#FFFFFF">
                                    <path d="M23.2569147,43.2886933 L0.114990926,43.2886933 L0.114990926,0.114990603 L23.2569147,0.114990603 C24.5884669,0.114514094 25.865619,0.643259956 26.8071686,1.58480957 C27.7487183,2.52635919 28.2774641,3.80351137 28.2769876,5.13506352 L28.2769876,38.2686207 C28.2769876,39.6000267 27.7480883,40.8769018 26.8066421,41.8183481 C25.8651958,42.7597943 24.5883207,43.2886933 23.2569147,43.2886933 Z" id="Path"></path>
                                </g>
                                <g id="Group" opacity="0.2" transform="translate(126.130672, 45.277677)" fill="#FFFFFF">
                                    <rect id="Rectangle" x="0.161705989" y="0.113194192" width="28.1619964" height="43.1737024"></rect>
                                </g>
                                <g id="Group" opacity="0.2" transform="translate(98.101633, 45.277677)" fill="#FFFFFF">
                                    <rect id="Rectangle" x="0.0287477314" y="0.113194192" width="28.1619964" height="43.1737024"></rect>
                                </g>
                                <g id="Group" opacity="0.2" transform="translate(69.892922, 45.277677)" fill="#FFAF20">
                                    <rect id="Rectangle" x="0.0754627949" y="0.113194192" width="28.1619964" height="43.1737024"></rect>
                                </g>
                                <path d="M85.9754809,64.511706 C85.7502269,64.511706 85.5676225,64.3291015 85.5676225,64.1038475 L85.5676225,62.9269873 C85.5676225,62.7812735 85.6453599,62.6466284 85.7715517,62.5737715 C85.8977436,62.5009146 86.0532183,62.5009146 86.1794102,62.5737715 C86.305602,62.6466284 86.3833394,62.7812735 86.3833394,62.9269873 L86.3833394,64.107441 C86.3813671,64.3312904 86.199339,64.511706 85.9754809,64.511706 Z" id="Path" fill="#FFFFFF"></path>
                                <path d="M83.9092377,65.3669516 C83.8014728,65.3671358 83.6980542,65.3244756 83.6217604,65.2483666 L82.7880762,64.4128857 C82.6749942,64.3123808 82.6268359,64.1575383 82.6629675,64.0106258 C82.6990991,63.8637133 82.8135835,63.7488711 82.9603826,63.7122812 C83.1071816,63.6756914 83.2621737,63.7233664 83.3630309,63.8361343 L84.1985118,64.6716152 C84.3146128,64.7884599 84.3490336,64.9636714 84.2857641,65.1157539 C84.2224947,65.2678364 84.073956,65.366933 83.9092377,65.3669516 Z" id="Path" fill="#FFFFFF"></path>
                                <path d="M88.8772051,70.3331228 C88.7688955,70.3333888 88.6648878,70.2907521 88.587931,70.2145372 L87.7542468,69.3790563 C87.6414789,69.2781991 87.593804,69.123207 87.6303938,68.976408 C87.6669836,68.8296089 87.7818258,68.7151245 87.9287383,68.6789929 C88.0756508,68.6428613 88.2304933,68.6910196 88.3309982,68.8041016 L89.1646824,69.6377858 C89.2805559,69.7543982 89.3150931,69.9291768 89.2522833,70.081098 C89.1894735,70.2330192 89.0415966,70.3323811 88.8772051,70.3331228 L88.8772051,70.3331228 Z" id="Path" fill="#FFFFFF"></path>
                                <path d="M90.0774229,67.4331942 L88.8969691,67.4331942 C88.6717152,67.4331942 88.4891107,67.2505897 88.4891107,67.0253358 C88.4891107,66.8000818 88.6717152,66.6174773 88.8969691,66.6174773 L90.0774229,66.6174773 C90.3026769,66.6174773 90.4852813,66.8000818 90.4852813,67.0253358 C90.4852813,67.2505897 90.3026769,67.4331942 90.0774229,67.4331942 L90.0774229,67.4331942 Z" id="Path" fill="#FFFFFF"></path>
                                <path d="M88.0417241,65.366951 C87.8773326,65.3662105 87.7294557,65.2668486 87.6666459,65.1149274 C87.6038361,64.9630062 87.6383733,64.7882276 87.7542468,64.6716152 L88.587931,63.8361343 C88.6905058,63.7308902 88.8417686,63.6889681 88.9838847,63.7263966 C89.1260008,63.7638251 89.2369916,63.8748159 89.2744201,64.016932 C89.3118486,64.1590481 89.2699265,64.3103109 89.1646824,64.4128857 L88.3309982,65.2483666 C88.2538232,65.3242512 88.1499574,65.3668297 88.0417241,65.366951 L88.0417241,65.366951 Z" id="Path" fill="#FFFFFF"></path>
                                <path d="M88.1423492,67.0253358 C88.1448823,66.0866866 87.5398573,65.2542471 86.6462631,64.9669178 C85.752669,64.6795885 84.7758592,65.0033994 84.230853,65.7676225 C83.4500637,65.3252631 82.5133945,65.2516212 81.6730683,65.5665268 C80.832742,65.8814324 80.1751508,66.5525107 79.8773684,67.3990563 C79.6437528,67.372399 79.4072858,67.3863804 79.1784392,67.4403811 C78.0899112,67.6998025 77.4165072,68.7910705 77.6727768,69.8803448 C77.8883589,70.7970603 78.7074631,71.4441526 79.6491833,71.4417129 L85.0878947,71.4417129 C85.2693721,71.4412641 85.4502095,71.4201664 85.6269147,71.3788203 C86.8502011,71.0878878 87.6262321,69.8838109 87.3859165,68.6495826 C87.8617351,68.2435286 88.1377524,67.6508452 88.1423492,67.0253358 L88.1423492,67.0253358 Z M85.4472414,70.5846642 C85.3296503,70.6133659 85.2089313,70.6272486 85.0878947,70.6259891 L79.6401996,70.6259891 C79.0273994,70.6223787 78.5135761,70.1621992 78.4426909,69.5535018 C78.3718058,68.9448044 78.7661339,68.3788672 79.361706,68.2345372 C79.4535199,68.2124584 79.547567,68.2010039 79.6419964,68.2003993 C79.7734574,68.2003988 79.9040036,68.2222577 80.028294,68.2650817 C80.1392225,68.3023107 80.2607551,68.2905494 80.3624864,68.2327405 C80.4637263,68.1746549 80.5350756,68.0758132 80.5583303,67.9614338 C80.7468176,67.0528002 81.4812266,66.3576737 82.3988401,66.2193702 C83.3164536,66.0810667 84.2231227,66.5288486 84.6710526,67.3415608 C84.6751114,67.3469559 84.6781554,67.3530441 84.6800363,67.3595281 C84.7544103,67.4946068 84.8978042,67.577041 85.0519601,67.5733394 L85.0968784,67.5733394 C85.6260278,67.5701479 86.1187572,67.8423741 86.3977132,68.2920327 C86.4803434,68.4316317 86.5409469,68.5831407 86.5773866,68.741216 C86.602636,68.8515008 86.6164837,68.9640887 86.6187114,69.0772051 C86.6284309,69.7916926 86.1419996,70.4176373 85.4472414,70.5846642 Z M86.5396552,67.2535209 C86.176785,66.9716348 85.7398438,66.8012278 85.2819419,66.7630127 C85.1653546,66.5825973 85.029831,66.4151503 84.877677,66.2635209 C85.1511848,65.8614852 85.6207492,65.6388229 86.1051248,65.6814785 C86.5895004,65.7241341 87.0129229,66.0254356 87.2119571,66.4690848 C87.4109914,66.912734 87.3545051,67.4293368 87.0643013,67.8194918 C86.9218013,67.6032136 86.7445297,67.4119788 86.5396552,67.2535209 Z" id="Shape" fill="#FFFFFF"></path>
                                <g id="Group" opacity="0.5" transform="translate(106.186933, 63.245009)" fill="#FFFFFF">
                                    <path d="M12.0399093,3.27544465 C11.8073051,2.28210025 10.9569128,1.55464748 9.93952813,1.47871143 C9.40209555,0.647900463 8.49297404,0.131711211 7.50413642,0.0959226615 C6.51529881,0.0601341124 5.57124037,0.509252067 4.97515426,1.29903811 C3.74212443,1.35732068 2.66761019,2.1575211 2.25849365,3.32215971 C1.51221392,3.23870066 0.780882759,3.57434342 0.357565447,4.19458636 C-0.0657518645,4.81482929 -0.111790513,5.61818586 0.237898504,6.28272814 C0.58758752,6.94727042 1.27578673,7.36426343 2.02671506,7.36660617 L7.46901996,7.36660617 C7.6504992,7.36619543 7.83134007,7.34509732 8.00803993,7.30372051 C8.64738125,7.15178008 9.19361905,6.73851664 9.51370236,6.16459165 L9.75446461,6.16459165 C9.93594199,6.16414972 10.1167793,6.14305203 10.2934846,6.10170599 C10.9002385,5.95915748 11.4253527,5.58107347 11.7529864,5.05085973 C12.0806201,4.52064599 12.183852,3.88186933 12.0399093,3.27544465 L12.0399093,3.27544465 Z M8.4877677,6.15021779 C8.30130158,6.32301494 8.0746495,6.44653106 7.82836661,6.50956443 C7.71057053,6.53710324 7.58999226,6.55096974 7.46901996,6.55088964 L2.0177314,6.55088964 C1.40204672,6.55103361 0.883945823,6.08983504 0.812781038,5.47827702 C0.741616253,4.866719 1.1399713,4.29887578 1.73923775,4.15764065 C1.91671708,4.11793163 2.10077838,4.11793163 2.27825771,4.15764065 C2.32213106,4.16748019 2.36533876,4.18008243 2.4076225,4.19537205 C2.51966316,4.23461174 2.64319212,4.22354672 2.74647538,4.16501954 C2.84975864,4.10649236 2.92272963,4.00620741 2.94664247,3.8899274 C3.16220448,2.86248112 4.06728296,2.125981 5.11709619,2.12373767 C5.21869803,2.12364058 5.3201755,2.13084608 5.4207441,2.14529946 C6.12064944,2.24192805 6.73259389,2.6663519 7.06834846,3.28802178 C7.14055564,3.42433285 7.28432038,3.50738141 7.4384755,3.50183303 L7.46901996,3.50183303 C8.10227421,3.50335396 8.66889906,3.89551827 8.89338984,4.48764759 C9.11788062,5.07977692 8.95366212,5.74902191 8.48058076,6.16998185 L8.4877677,6.15021779 Z M10.1048276,5.29317604 C10.000645,5.31850981 9.89400308,5.33236723 9.78680581,5.33450091 C9.82757072,5.04639244 9.81355,4.75317659 9.74548094,4.47027223 C9.51287675,3.47692784 8.66248446,2.74947507 7.64509982,2.67353902 C7.25395939,2.06876746 6.66036084,1.62293164 5.97054446,1.41582577 C6.48097009,0.990000912 7.15573808,0.816099794 7.80839909,0.94217412 C8.4610601,1.06824845 9.0225142,1.4809502 9.3376225,2.06624319 C9.41075822,2.20253101 9.55496861,2.28543456 9.70954628,2.28005445 L9.75446461,2.28005445 C10.5304583,2.27673337 11.1855824,2.85586738 11.2774775,3.62640778 C11.3693726,4.39694818 10.8688215,5.1139087 10.1138113,5.29317604 L10.1048276,5.29317604 Z" id="Shape"></path>
                                </g>
                                <g id="Group" opacity="0.5" transform="translate(163.502722, 62.705989)" fill="#FFFFFF">
                                    <path d="M6.93,7.67025408 L6.66767695,7.51753176 L6.93,7.36660617 C6.9941911,7.3303382 7.03415738,7.26257968 7.03484395,7.18885457 C7.03553051,7.11512947 6.99683305,7.04663839 6.93332852,7.00918125 C6.86982399,6.97172412 6.79116024,6.97099156 6.72696915,7.00725953 L6.46284936,7.15998185 L6.46284936,6.86891107 C6.47012504,6.7914839 6.43292528,6.71661503 6.36682303,6.67564682 C6.30072077,6.63467862 6.21711952,6.63467862 6.15101726,6.67564682 C6.08491501,6.71661503 6.04771525,6.7914839 6.05499093,6.86891107 L6.05499093,7.16896552 L5.79446461,7.01803993 C5.73027351,6.98177196 5.65160977,6.98250452 5.58810524,7.01996165 C5.52460071,7.05741878 5.48590324,7.12590987 5.48658082,7.19963497 C5.48727637,7.27336007 5.52724266,7.3411186 5.59143376,7.37738657 L5.85196007,7.52651543 L5.59143376,7.67744102 C5.54459808,7.7044764 5.51048336,7.74907958 5.49665432,7.80136008 C5.48282528,7.85364058 5.49042479,7.90927785 5.5177677,7.95593466 C5.55476227,8.02002174 5.62344728,8.05917219 5.69744102,8.05834846 C5.73308946,8.05896117 5.76811423,8.04895409 5.79805808,8.02960073 L6.05858439,7.88047187 L6.05858439,8.18411978 C6.06847318,8.28935551 6.15681429,8.36978455 6.26251361,8.36978455 C6.36821293,8.36978455 6.45655404,8.28935551 6.46644283,8.18411978 L6.46644283,7.88047187 L6.73056261,8.03139746 C6.76050646,8.05075082 6.79553123,8.0607579 6.83117967,8.06014519 C6.90497864,8.06022474 6.97331733,8.02127168 7.01085299,7.9577314 C7.04006083,7.90929851 7.04794224,7.8509441 7.03262933,7.79649819 C7.01731642,7.74205229 6.98017225,7.69636132 6.93,7.67025408 Z" id="Path"></path>
                                    <path d="M5.70283122,5.97054446 L5.44050817,5.81961887 L5.70283122,5.66689655 C5.74954565,5.64020907 5.78362851,5.5959271 5.79746979,5.54393788 C5.81131108,5.49194867 5.8037581,5.43658182 5.77649728,5.39019964 C5.74976432,5.34305914 5.70529474,5.30856248 5.65298804,5.29438905 C5.60068134,5.28021562 5.5448791,5.28754186 5.49800363,5.31473684 L5.23568058,5.46745917 L5.23568058,5.16560799 C5.22579179,5.06037226 5.13745068,4.97994321 5.03175136,4.97994321 C4.92605204,4.97994321 4.83771093,5.06037226 4.82782214,5.16560799 L4.82782214,5.46566243 L4.56729583,5.31653358 C4.50310473,5.28026561 4.42444098,5.28099816 4.36093645,5.3184553 C4.29743192,5.35591243 4.25873446,5.42440352 4.25942103,5.49812862 C4.26010759,5.57185372 4.30007388,5.63961225 4.36426497,5.67588022 L4.62479129,5.82680581 L4.36426497,5.97593466 C4.28228036,6.02099302 4.24169628,6.11623798 4.26598641,6.20658023 C4.29027654,6.29692248 4.37315235,6.35897304 4.46667877,6.35684211 C4.50200189,6.35684492 4.53670348,6.34754985 4.56729583,6.32989111 L4.82782214,6.17896552 L4.82782214,6.48441016 C4.83771093,6.58964589 4.92605204,6.67007493 5.03175136,6.67007493 C5.13745068,6.67007493 5.22579179,6.58964589 5.23568058,6.48441016 L5.23568058,6.17896552 L5.49261343,6.32989111 C5.52392197,6.3473933 5.55915912,6.35666624 5.59502722,6.35684211 C5.68684226,6.35585164 5.76677964,6.29388052 5.7906205,6.20520925 C5.81446136,6.11653798 5.77637966,6.02283532 5.69744102,5.97593466 L5.70283122,5.97054446 Z" id="Path"></path>
                                    <path d="M4.4792559,7.67025408 L4.21693285,7.51753176 L4.4792559,7.36660617 C4.54344699,7.3303382 4.58341328,7.26257968 4.58410883,7.18885457 C4.58478641,7.11512947 4.54608895,7.04663839 4.48258442,7.00918125 C4.41907989,6.97172412 4.34041614,6.97099156 4.27622505,7.00725953 L4.01210526,7.15998185 L4.01210526,6.86891107 C4.01938094,6.7914839 3.98218118,6.71661503 3.91607892,6.67564682 C3.84997667,6.63467862 3.76637541,6.63467862 3.70027316,6.67564682 C3.63417091,6.71661503 3.59697115,6.7914839 3.60424682,6.86891107 L3.60424682,7.16896552 L3.34551724,7.01803993 C3.24628641,6.96147836 3.11999171,6.99606863 3.06343014,7.09529946 C3.00686857,7.19453029 3.04145883,7.32082499 3.14068966,7.37738657 L3.40121597,7.52651543 L3.14068966,7.67744102 C3.09385397,7.7044764 3.05973925,7.74907958 3.04591022,7.80136008 C3.03208118,7.85364058 3.03968069,7.90927785 3.06702359,7.95593466 C3.10401817,8.02002174 3.17270318,8.05917219 3.24669691,8.05834846 C3.28282053,8.05830525 3.31824144,8.04836254 3.34911071,8.02960073 L3.60784029,7.88047187 L3.60784029,8.18411978 C3.61772908,8.28935551 3.70607019,8.36978455 3.81176951,8.36978455 C3.91746883,8.36978455 4.00580994,8.28935551 4.01569873,8.18411978 L4.01569873,7.88047187 L4.27981851,8.03139746 C4.30976236,8.05075082 4.34478713,8.0607579 4.38043557,8.06014519 C4.4722506,8.05915472 4.55218799,7.99718361 4.57602885,7.90851234 C4.59986971,7.81984106 4.56178801,7.7261384 4.48284936,7.67923775 L4.4792559,7.67025408 Z" id="Path"></path>
                                    <path d="M9.8838294,3.34731397 C9.64865171,2.35553782 8.79968222,1.62930215 7.78344828,1.55058076 C7.15566922,0.580648188 6.03133733,0.0516474294 4.88384367,0.186310083 C3.73635,0.320972737 2.7650395,1.09590493 2.37887477,2.18482759 C1.63259504,2.10136853 0.901263884,2.43701129 0.477946572,3.05725423 C0.0546292607,3.67749717 0.00859061254,4.48085374 0.358279629,5.14539601 C0.707968645,5.80993829 1.39616786,6.22693131 2.14709619,6.22929342 L2.79751361,6.22929342 C3.02276761,6.22929342 3.20537205,6.0466696 3.20537205,5.82141561 C3.20537205,5.59616161 3.02276761,5.41355717 2.79751361,5.41355717 L2.14170599,5.41355717 C1.57913649,5.41474243 1.0902959,5.02724685 0.963049002,4.4792559 C0.811097729,3.82876203 1.21215486,3.17744525 1.86141561,3.02030853 C2.08274773,2.9684791 2.314118,2.97905247 2.52980036,3.05085299 C2.64156213,3.0913806 2.76544403,3.08112806 2.86902268,3.02277875 C2.97260134,2.96442944 3.0455662,2.86379164 3.06882033,2.74720508 C3.25843776,1.83541653 3.99764172,1.13930745 4.91916399,1.00473466 C5.84068627,0.870161881 6.74808528,1.32581238 7.19052632,2.14529946 C7.26337164,2.28099368 7.40671378,2.36379812 7.56065336,2.35911071 L7.60736842,2.35911071 C8.3833621,2.35578963 9.03848625,2.93492364 9.13038134,3.70546404 C9.22227644,4.47600444 8.72172528,5.19296496 7.96671506,5.3722323 C7.84892448,5.39980271 7.72834254,5.41366964 7.60736842,5.41355717 L7.26778584,5.41355717 C7.04253185,5.41355717 6.8599274,5.59616161 6.8599274,5.82141561 C6.8599274,6.0466696 7.04253185,6.22929342 7.26778584,6.22929342 L7.60736842,6.22929342 C8.32495064,6.23219288 9.00405055,5.90510767 9.44910921,5.34220842 C9.89416786,4.77930918 10.055786,4.04307485 9.88742287,3.34551724 L9.8838294,3.34731397 Z" id="Path"></path>
                                </g>
                                <g id="Group" opacity="0.5" transform="translate(135.294011, 62.346642)" fill="#FFFFFF">
                                    <path d="M8.18771325,6.16818512 C8.01101339,6.20956193 7.83017252,6.23066004 7.64869328,6.23107078 L6.71978221,6.23107078 C6.49452822,6.23107078 6.31192377,6.04846634 6.31192377,5.82321234 C6.31192377,5.59795835 6.49452822,5.4153539 6.71978221,5.4153539 L7.64869328,5.4153539 C7.76966558,5.41543435 7.89024385,5.40156785 8.00803993,5.37402904 C8.76305015,5.19476169 9.26360131,4.47780117 9.17170621,3.70726077 C9.07981111,2.93672038 8.42468696,2.35758637 7.64869328,2.36090744 L7.60197822,2.36090744 C7.4478231,2.36645582 7.30405837,2.28340726 7.23185118,2.14709619 C6.7914734,1.32119366 5.8802172,0.860424541 4.95401598,0.995327762 C4.02781476,1.13023098 3.28585485,1.83179462 3.09936479,2.74900181 C3.07667328,2.86591203 3.00380312,2.9669673 2.90004242,3.02541916 C2.79628172,3.08387102 2.67209186,3.09382623 2.56034483,3.05264973 C2.02570109,2.87308557 1.43779155,3.08517952 1.14092559,3.56471869 C0.910872961,3.93897229 0.900842333,4.40828248 1.11469424,4.79202371 C1.32854615,5.17576493 1.73294595,5.41412069 2.17225045,5.4153539 L3.5377677,5.4153539 C3.76302169,5.4153539 3.94562613,5.59795835 3.94562613,5.82321234 C3.94562613,6.04846634 3.76302169,6.23107078 3.5377677,6.23107078 L2.17225045,6.23107078 C1.43710125,6.23059897 0.759741429,5.83241934 0.401771928,5.19031154 C0.0438024277,4.54820375 0.0612539385,3.76267286 0.44738657,3.13709619 C0.862070179,2.46982855 1.6231813,2.10010607 2.40402904,2.18662432 C2.78411661,1.08632663 3.76076156,0.300914164 4.91698152,0.165721834 C6.07320148,0.0305295032 7.20469504,0.569445484 7.82836661,1.5523775 C8.99613516,1.61792446 9.93539277,2.53708865 10.0261735,3.70316698 C10.1169542,4.8692453 9.33126745,5.92269867 8.18771325,6.16818512 L8.18771325,6.16818512 Z" id="Path"></path>
                                    <polygon id="Path" points="5.24825771 6.12506352 5.82321234 6.12506352 4.59245009 9.09686025 4.88711434 6.95515426 4.33911071 6.95515426 4.77212341 4.58166969 5.8914882 4.58166969"></polygon>
                                </g>
                                <g id="Group" opacity="0.5" transform="translate(51.386570, 62.346642)" fill="#FFFFFF">
                                    <path d="M4.54393829,2.11834846 C4.31938628,2.11735923 4.13787441,1.93504421 4.13787659,1.71049002 L4.13787659,0.530036298 C4.12778148,0.378189515 4.2030644,0.233352085 4.33314198,0.15436361 C4.46321957,0.0753751351 4.62645375,0.0753751351 4.75653134,0.15436361 C4.88660892,0.233352085 4.96189184,0.378189515 4.95179673,0.530036298 L4.95179673,1.71049002 C4.95179673,1.93574401 4.76919229,2.11834846 4.54393829,2.11834846 L4.54393829,2.11834846 Z" id="Path"></path>
                                    <path d="M1.62245009,5.03983666 L0.44199637,5.03983666 C0.216742374,5.03983666 0.034137931,4.85723222 0.034137931,4.63197822 C0.034137931,4.40672423 0.216742374,4.22411978 0.44199637,4.22411978 L1.62245009,4.22411978 C1.84770409,4.22411978 2.03030853,4.40672423 2.03030853,4.63197822 C2.03030853,4.85723222 1.84770409,5.03983666 1.62245009,5.03983666 L1.62245009,5.03983666 Z" id="Path"></path>
                                    <path d="M4.54393829,9.14177858 C4.31938628,9.14078936 4.13787659,8.95847433 4.13787659,8.73392015 L4.13787659,7.55346642 C4.1521223,7.33918785 4.33008507,7.17266359 4.54483666,7.17266359 C4.75958825,7.17266359 4.93755102,7.33918785 4.95179673,7.55346642 L4.95179673,8.73392015 C4.95179673,8.95917414 4.76919229,9.14177858 4.54393829,9.14177858 Z" id="Path"></path>
                                    <path d="M8.64588022,5.03983666 L7.46901996,5.03983666 C7.24376597,5.03983666 7.06116152,4.85723222 7.06116152,4.63197822 C7.06116152,4.40672423 7.24376597,4.22411978 7.46901996,4.22411978 L8.64767695,4.22411978 C8.87293095,4.22411978 9.05553539,4.40672423 9.05553539,4.63197822 C9.05553539,4.85723222 8.87293095,5.03983666 8.64767695,5.03983666 L8.64588022,5.03983666 Z" id="Path"></path>
                                    <path d="M4.54393829,6.78985481 C3.35316827,6.78985481 2.38785844,5.82454498 2.38785844,4.63377495 C2.38785844,3.44300493 3.35316827,2.4776951 4.54393829,2.4776951 C5.73470832,2.4776951 6.70001815,3.44300493 6.70001815,4.63377495 C6.70001815,5.82454498 5.73470832,6.78985481 4.54393829,6.78985481 L4.54393829,6.78985481 Z M4.54393829,3.28981851 C3.80291865,3.29081051 3.20291474,3.89215443 3.20357531,4.63317444 C3.20423696,5.37419445 3.80531291,5.97446682 4.54633314,5.97413673 C5.28735337,5.97380637 5.88789474,5.37299853 5.88789474,4.63197822 C5.88690337,3.89043334 5.28548384,3.28981851 4.54393829,3.28981851 L4.54393829,3.28981851 Z" id="Shape"></path>
                                    <path d="M2.47949183,2.97360109 C2.37110498,2.9742571 2.26695125,2.93156053 2.19021779,2.85500907 L1.77337568,2.43816697 C1.61758186,2.27831887 1.61922197,2.02292986 1.77705595,1.86509588 C1.93488993,1.7072619 2.19027894,1.70562179 2.35012704,1.86141561 L2.76696915,2.27825771 C2.88284268,2.39487011 2.91737988,2.56964866 2.85457008,2.72156987 C2.79176028,2.87349108 2.64388337,2.97285293 2.47949183,2.97360109 L2.47949183,2.97360109 Z" id="Path"></path>
                                    <path d="M2.06085299,7.52292196 C1.89646146,7.52218143 1.74858455,7.42281957 1.68577475,7.27089836 C1.62296494,7.11897715 1.65750215,6.9441986 1.77337568,6.82758621 L2.19021779,6.4107441 C2.2927925,6.30550004 2.44405532,6.26357788 2.58617144,6.30100639 C2.72828755,6.33843491 2.83927834,6.44942569 2.87670685,6.59154181 C2.91413537,6.73365793 2.87221321,6.88492074 2.76696915,6.98749546 L2.35012704,7.40793103 C2.27237703,7.48250173 2.16858018,7.52376259 2.06085299,7.52292196 Z" id="Path"></path>
                                    <path d="M7.02882033,7.52292321 C6.9205107,7.52318912 6.81650302,7.48055244 6.73954628,7.40433757 L6.32270417,6.98749546 C6.16691036,6.82764736 6.16855047,6.57225835 6.32638445,6.41442437 C6.48421843,6.2565904 6.73960743,6.25495028 6.89945554,6.4107441 L7.31629764,6.82758621 C7.43217117,6.9441986 7.46670838,7.11897715 7.40389858,7.27089836 C7.34108877,7.42281957 7.19321186,7.52218143 7.02882033,7.52292321 L7.02882033,7.52292321 Z" id="Path"></path>
                                    <path d="M6.61018149,2.97359471 C6.44578995,2.97285293 6.29791304,2.87349108 6.23510324,2.72156987 C6.17229344,2.56964866 6.20683065,2.39487011 6.32270417,2.27825771 L6.73954628,1.86141561 C6.89939438,1.70562179 7.15478339,1.7072619 7.31261737,1.86509588 C7.47045135,2.02292986 7.47209146,2.27831887 7.31629764,2.43816697 L6.89945554,2.85500907 C6.82249879,2.93122394 6.71849112,2.97386063 6.61018149,2.97359471 L6.61018149,2.97359471 Z" id="Path"></path>
                                </g>
                                <rect id="Rectangle" fill="#F6F7F9" x="47.708657" y="47.2720508" width="16.4472958" height="5.03085299" rx="2.5154265"></rect>
                                <rect id="Rectangle" fill="#F6F7F9" x="75.8472958" y="47.2720508" width="16.4472958" height="5.03085299" rx="2.5154265"></rect>
                                <rect id="Rectangle" fill="#F6F7F9" x="103.987731" y="47.2720508" width="16.4472958" height="5.03085299" rx="2.5154265"></rect>
                                <rect id="Rectangle" fill="#F6F7F9" x="132.128167" y="47.2720508" width="16.4472958" height="5.03085299" rx="2.5154265"></rect>
                                <rect id="Rectangle" fill="#F6F7F9" x="160.268603" y="47.2720508" width="16.4472958" height="5.03085299" rx="2.5154265"></rect>
                                <path d="M75.8475437,66.2671143 C75.8475437,66.2671143 70.4858439,60.8858984 68.8076951,60.8086388 C67.8428494,60.7655172 66.7288748,60.282196 65.9562795,59.8815245 L65.7586388,59.777314 C65.9383122,59.5419419 65.8430853,59.4179673 65.7496552,59.3514882 C65.71883,59.3317878 65.6856232,59.31609 65.6508348,59.3047731 L52.8688748,49.2071325 C52.9892559,49.014882 52.3100907,46.8713793 52.3100907,46.8713793 L51.6309256,44.6380399 L50.193539,42.7784211 C50.193539,42.7784211 50.5942105,41.4775862 50.193539,40.8271688 C49.7928675,40.1767514 49.8755172,38.6459347 49.5952269,34.9356806 C49.3149365,31.2254265 47.7984936,30.9954446 47.7984936,30.9954446 C47.7984936,30.9954446 41.923176,27.0965336 41.2476044,27.2115245 C40.6151543,27.3175318 39.7706897,26.0939564 39.6592922,25.928657 L39.6467151,25.9106897 C39.6467151,25.9106897 39.6467151,25.9268603 39.6359347,25.9538113 C39.6455172,25.8136661 39.6491107,25.6717241 39.6467151,25.5279855 L39.6467151,25.5279855 C39.6467151,25.4758802 39.6467151,25.4255717 39.6467151,25.3734664 L39.6467151,25.3734664 C39.7574031,24.758435 39.9326557,24.1567944 40.1695644,23.5785299 C40.219873,23.4545554 40.2701815,23.3377677 40.32049,23.2299637 C42.6887556,22.5734414 44.5444411,20.7313706 45.2183848,18.3680036 C45.2291652,18.3266788 45.2381488,18.2853539 45.2489292,18.244029 C45.5382033,18.2799637 45.8310708,18.2961343 46.1149546,18.3069147 L46.1688566,18.3069147 C46.077663,18.1122021 46.0130028,17.9061356 45.9766062,17.6942287 L45.9191107,17.6942287 C45.9015242,17.5889799 45.8901253,17.4827904 45.8849728,17.3762069 C45.9065336,17.4462795 45.9298911,17.5163521 45.9568421,17.5864247 C45.895595,16.9413954 45.9956164,16.2912564 46.2479129,15.6944646 C46.5767151,14.8589837 47.0815971,14.0989655 47.4427405,13.2760617 C47.7135416,12.7255046 47.8414435,12.1156536 47.8146642,11.502686 C47.7942824,11.2821774 47.7390976,11.0662896 47.6511615,10.863049 C47.6503937,10.8726162 47.6503937,10.8822295 47.6511615,10.8917967 C47.6511615,10.9367151 47.6511615,10.9816334 47.6511615,11.0283485 C47.5196364,10.5923946 47.2195383,10.2269735 46.8174773,10.0131942 C46.4940653,9.85508167 46.1149546,9.81555354 45.8149002,9.61611615 C44.9291107,9.03038113 44.9794192,8.08170599 43.7989655,7.77626134 C42.8502904,7.53010889 41.8459165,7.53370236 40.8882577,7.27676951 C38.8220145,6.72696915 37.0755898,7.07014519 35.0776225,7.77805808 C33.5827405,8.37637024 32.1237931,9.14357532 30.9954446,10.2809074 C29.8670962,11.4182396 29.0980944,12.9760073 29.1987114,14.560726 C29.2128257,15.0627938 29.3557463,15.5528072 29.6137568,15.9837387 C29.8527223,16.3574592 30.212069,16.668294 30.3324501,17.092323 C30.4761887,17.5810345 30.2767514,18.0984936 30.2749546,18.6087659 C30.2749546,19.072323 30.6001633,19.6149365 31.0367695,19.6077495 C31.0971452,19.6128103 31.157941,19.6073386 31.2164428,19.5915789 C31.3702498,19.540433 31.5061781,19.4462808 31.6081307,19.3202722 C31.6350817,19.3813612 31.6620327,19.4424501 31.6907804,19.4999456 C31.7590563,19.6454809 31.8345191,19.7892196 31.9153721,19.9275681 C31.9027949,20.0048276 31.8884211,20.0820871 31.8704537,20.1557532 C31.7035698,20.7293425 31.3909697,21.2499301 30.9631034,21.6668058 C30.8550197,21.6743865 30.750305,21.7076488 30.6576588,21.7638294 L30.6576588,21.7638294 L30.5696189,21.806951 L27.6553176,23.2766788 L27.3354991,23.2766788 C26.3940109,23.2641016 23.679147,23.2425408 23.2623049,23.409637 C22.7556261,23.6162613 17.8559347,24.0097459 17.8559347,24.0097459 C17.8559347,24.0097459 15.2452813,24.1624682 15.3800363,27.962559 C15.3800363,27.962559 14.3936298,31.1841016 14.1007623,31.7195281 C13.8078947,32.2549546 12.0776407,37.4816515 12.0776407,37.4816515 L10.0599093,47.4750817 L9.81914701,58.5411615 C9.81914701,58.5411615 9.81914701,59.7988748 9.77961887,61.2919601 C9.69157895,63.7750454 9.56760436,65.8341016 9.39511797,66.1916515 L9.39511797,66.1916515 L9.57479129,66.2635209 C9.56689637,66.2916291 9.55729601,66.3192302 9.54604356,66.3461706 L9.70415608,66.3102359 L10.8235209,66.727078 C10.8235209,66.727078 8.06194192,69.8623775 10.0599093,70.6529401 C11.0463158,71.0428312 13.3838657,72.1729764 15.4986207,73.2168784 C15.0819727,75.5328202 15.2720036,77.9171821 16.0502178,80.1378947 C16.3205395,81.429639 16.3661255,82.7583195 16.1849728,84.0655535 C15.866951,86.0545372 16.2119238,92.6341742 16.2119238,92.6341742 L16.1849728,104.162015 C16.1849728,104.162015 16.6107985,111.557368 16.9845191,113.145681 C17.3582396,114.733993 16.1849728,115.391597 16.1849728,115.391597 C16.1849728,115.391597 16.9521779,119.737895 17.8828857,120.314646 C17.8649183,120.399093 17.8433575,120.494319 17.82,120.578766 C17.6393668,121.289247 17.4045037,121.984826 17.1174773,122.659383 C16.4778403,124.163249 16.8785118,125.234102 16.8785118,125.234102 C16.8785118,125.234102 16.9306171,127.35245 20.7648457,127.785463 C24.5990744,128.218475 24.4409619,125.539546 24.1211434,124.520799 C23.9252995,123.897332 24.0672414,121.960454 24.2091833,120.548221 C24.2199637,120.435027 24.2307441,120.325426 24.2415245,120.221216 C24.4768966,120.07029 24.7805445,119.748675 25.1398911,119.062323 C25.8837387,117.583612 25.1398911,114.013503 24.6008711,112.840236 C24.0618512,111.666969 24.5469691,110.391289 24.5469691,110.391289 C24.5469691,110.391289 23.9612341,103.811652 24.5469691,103.252868 C25.1327042,102.694083 25.0266969,100.198421 25.0266969,100.198421 L25.9861525,95.0453902 L27.1037205,92.8533757 L27.423539,88.0578947 L28.3219056,83.8247913 C28.3219056,83.8247913 28.6938294,83.4654446 29.0136479,80.1019601 C29.3334664,76.7384755 29.7592922,77.805735 29.7592922,77.805735 C29.6011797,80.0498548 30.824755,81.1728131 30.824755,81.1728131 L31.1589474,87.039147 C31.1589474,87.039147 31.5703993,91.423176 32.2513612,92.4958258 C32.932323,93.5684755 32.2513612,94.8926679 32.2513612,94.8926679 C32.2513612,94.8926679 32.4759528,99.0736661 32.2783122,100.299038 C32.0806715,101.52441 33.0616878,104.329111 33.0616878,104.329111 L33.3276044,109.377931 C33.3276044,109.377931 31.7303085,113.916479 32.4759528,115.396987 C33.2215971,116.877495 32.8496733,118.609546 32.8496733,118.609546 C32.8830781,118.708858 32.9369419,118.800059 33.0077858,118.87726 C32.9880218,118.954519 32.9682577,119.033575 32.9502904,119.116225 C32.8407626,119.656239 32.7627722,120.202172 32.7167151,120.751252 C32.7167151,120.751252 33.1155898,121.290272 34.8997459,121.949673 C36.683902,122.609074 36.2850272,123.735626 36.5509437,124.450726 C36.8168603,125.165826 38.6279673,125.800073 42.1962795,125.64735 C45.7645917,125.494628 43.5007078,122.919909 43.5007078,122.919909 C43.5007078,122.919909 41.6374955,120.293085 40.9978584,119.935535 C40.7768603,119.811561 40.5450817,119.407296 40.3330672,118.923975 C40.293539,118.834138 40.2558076,118.744301 40.2180762,118.647278 L40.3672051,118.609546 C40.3672051,118.609546 41.317677,111.063267 40.6259347,110.344574 C39.9341924,109.62588 40.8541198,104.733376 40.8541198,104.733376 C40.8541198,104.733376 41.317677,103.103739 41.1056624,102.643775 C40.8936479,102.183811 41.317677,100.399655 41.317677,100.399655 C41.317677,100.399655 41.6374955,95.5484755 41.0499637,94.4327042 C40.4624319,93.3169328 41.3697822,86.7804174 41.3697822,86.7804174 C41.3697822,86.7804174 41.7435027,80.6607441 42.6849909,78.4687296 C42.8646642,78.0662613 42.9652813,77.2110163 43.0299637,76.0970417 C43.5510163,75.8437024 43.8744283,75.6496552 43.8744283,75.6496552 C43.8744283,75.6496552 44.9524682,61.1140835 44.3128312,59.3155535 C43.9245517,58.1643912 43.7385371,56.9546885 43.7630309,55.7400544 L45.00098,51.3416515 C45.00098,51.3416515 45.8005263,53.5210889 46.3197822,53.7888022 C46.8390381,54.0565154 47.4786751,55.1291652 47.4786751,55.1291652 L52.9497278,59.4898367 L57.1846279,62.5874047 L60.9398004,65.6867695 C61.0227378,64.9670451 61.253338,64.272186 61.6171688,63.6456806 L61.750127,63.6941924 C62.4436661,63.9439383 63.3240653,64.2529764 63.1084574,64.1272051 C62.989873,64.0571325 63.0527586,63.6636479 63.2378221,63.1479855 L63.3977314,63.3025045 C64.1834448,64.0268916 65.0062596,64.7099718 65.8628494,65.3489837 C69.8354265,68.3818693 71.9214338,64.989637 71.9214338,64.989637 C71.9214338,64.989637 73.9194011,66.7216878 74.9040109,67.104392 C75.8886207,67.4870962 75.8475437,66.2671143 75.8475437,66.2671143 Z" id="Path" fill="url(#linearGradient-1)"></path>
                                <path d="M33.2144102,120.42245 C33.2144102,120.42245 33.5953176,120.96147 35.289637,121.611887 C36.9839564,122.262305 36.6048457,123.383466 36.8581851,124.093176 C37.1115245,124.802886 38.8345917,125.433539 42.2232305,125.280817 C45.6118693,125.128094 43.4629764,122.574936 43.4629764,122.574936 C43.4629764,122.574936 41.6913975,119.967877 41.0841016,119.61392 C40.8738838,119.491742 40.6546824,119.089274 40.4516515,118.611343 C40.1828696,117.929992 39.9542918,117.23346 39.7670962,116.525336 C39.7670962,116.525336 34.1756624,117.285354 33.7713975,117.842341 C33.6028709,118.138504 33.4902014,118.463114 33.4390018,118.8 C33.334151,119.33624 33.2591715,119.877892 33.2144102,120.42245 Z" id="Path" fill="#B07473"></path>
                                <path d="M18.1595826,124.881942 C18.1595826,124.881942 18.2098911,126.982323 21.8536661,127.411742 C25.497441,127.841162 25.3447187,125.18559 25.0410708,124.177623 C24.8613975,123.559546 24.9907623,121.637042 25.1255172,120.23559 C25.2099637,119.337223 25.2944102,118.659855 25.2944102,118.659855 C25.2944102,118.659855 19.1711434,118.787423 19.2214519,119.116225 C19.2205035,119.505508 19.1642424,119.892681 19.0543557,120.266134 C18.8834906,120.969813 18.6606837,121.659855 18.3877677,122.330581 C17.7804719,123.818276 18.1595826,124.881942 18.1595826,124.881942 Z" id="Path" fill="#B07473"></path>
                                <path d="M61.3710163,62.2442287 C61.4752269,62.4598367 61.730363,62.8263702 62.3538294,63.4372595 C63.0995427,64.1549371 63.882185,64.8332271 64.6985662,65.4693648 C68.471706,68.4788929 70.4481125,65.1100181 70.4481125,65.1100181 C70.4481125,65.1100181 72.3454628,66.8312886 73.2833575,67.2103993 C74.2212523,67.58951 74.1817241,66.3749183 74.1817241,66.3749183 C74.1817241,66.3749183 69.0969691,61.0422142 67.5014701,60.9649546 C66.5833394,60.921833 65.5250635,60.443902 64.7919964,60.0450272 C64.2529764,59.750363 63.8828494,59.5060073 63.8828494,59.5060073 L62.5137387,60.8266062 L61.3207078,61.9765154 C61.3207078,61.9765154 61.272196,62.0286207 61.3710163,62.2442287 Z" id="Path" fill="#EFB7B9"></path>
                                <path d="M33.7713975,117.847731 C33.6028709,118.143894 33.4902014,118.468504 33.4390018,118.80539 C34.38049,120.176298 39.9809074,118.738911 40.4462613,118.625717 C40.1774794,117.944366 39.9489016,117.247834 39.761706,116.53971 C39.761706,116.53971 34.1756624,117.290744 33.7713975,117.847731 Z" id="Path" fill="#000000" opacity="0.1"></path>
                                <path d="M19.0543557,120.262541 C19.0898636,120.292632 19.1291194,120.317997 19.1711434,120.338004 C20.0820871,120.751252 24.7410163,120.327223 24.7410163,120.327223 C24.8780739,120.353435 25.0197524,120.318672 25.1291107,120.231996 C25.2135572,119.33363 25.2980036,118.656261 25.2980036,118.656261 C25.2980036,118.656261 19.1747368,118.783829 19.2250454,119.112632 C19.2229302,119.502087 19.1654586,119.889264 19.0543557,120.262541 L19.0543557,120.262541 Z" id="Path" fill="#000000" opacity="0.1"></path>
                                <path d="M17.3726134,80.1468784 C17.6302766,81.4292962 17.6739885,82.7455086 17.5019782,84.042196 C17.1983303,86.0186025 17.5271325,92.5443376 17.5271325,92.5443376 L17.5019782,103.982341 C17.5019782,103.982341 17.9062432,111.3202 18.2601996,112.886951 C18.6141561,114.453702 17.5019782,115.1149 17.5019782,115.1149 C17.5019782,115.1149 18.2601996,119.61931 19.1711434,120.034356 C20.0820871,120.449401 24.7410163,120.023575 24.7410163,120.023575 C24.7410163,120.023575 25.2980036,120.226606 25.9987296,118.765862 C26.6994555,117.305118 25.9987296,113.75657 25.4920508,112.59049 C24.9853721,111.42441 25.4417423,110.161307 25.4417423,110.161307 C25.4417423,110.161307 24.884755,103.633775 25.4417423,103.078584 C25.9987296,102.523394 25.8963158,100.042105 25.8963158,100.042105 L26.8072595,94.9303993 L27.8763158,92.7527586 L28.1799637,87.9950091 L29.0405989,83.7960436 C29.0405989,83.7960436 29.3999456,83.4366969 29.6982033,80.1001633 C29.996461,76.7636298 30.4061162,77.8237024 30.4061162,77.8237024 C30.2551906,80.0498548 31.417677,81.1620327 31.417677,81.1620327 L31.7356987,86.9834483 C31.7356987,86.9834483 32.1273866,91.3351361 32.7742105,92.3970054 C33.4210345,93.4588748 32.7742105,94.7758802 32.7742105,94.7758802 C32.7742105,94.7758802 32.9880218,98.9263339 32.7993648,100.140926 C32.6107078,101.355517 33.5432123,104.138657 33.5432123,104.138657 L33.7965517,109.149746 C33.7965517,109.149746 32.2783122,113.652359 32.9880218,115.12029 C33.6977314,116.588221 33.3473684,118.307695 33.3473684,118.307695 C33.9043557,120.081071 40.4893829,118.307695 40.4893829,118.307695 C40.4893829,118.307695 41.3877495,110.818911 40.7355354,110.110998 C40.0833212,109.403085 40.9529401,104.541125 40.9529401,104.541125 C40.9529401,104.541125 41.3931397,102.924065 41.1919056,102.467695 C40.9906715,102.011325 41.3931397,100.239746 41.3931397,100.239746 C41.3931397,100.239746 41.6967877,95.4316878 41.1398004,94.31951 C40.5828131,93.2073321 41.4434483,86.7283122 41.4434483,86.7283122 C41.4434483,86.7283122 41.8027949,80.6553539 42.6921779,78.47951 C42.8574773,78.0806352 42.9598911,77.2343739 43.02098,76.1186025 C43.2886933,71.1578221 42.6921779,60.8697278 42.6921779,60.8697278 L40.2162795,57.4774955 L37.6325771,57.3409437 L35.1387114,57.204392 L30.4564247,56.9564428 L25.8316334,56.7102904 L20.1827042,56.4102359 C20.1827042,56.4102359 19.0202178,66.8312886 17.3726134,71.3410889 C17.1441842,71.969639 16.9692788,72.6163683 16.8497641,73.2743739 C16.4526451,75.5731788 16.6322989,77.9346077 17.3726134,80.1468784 Z" id="Path" fill="#444053"></path>
                                <path d="M31.1391833,22.50049 L33.1515245,27.4343194 L37.5157895,28.1530127 C37.5157895,28.1530127 39.8317786,28.9507623 39.7167877,26.9761525 C39.6574955,25.9304537 39.9809074,24.8200726 40.2971325,24.0079492 C40.4568497,23.5943015 40.6435113,23.1915687 40.8559165,22.8023412 C40.8559165,22.8023412 31.8992015,17.7535209 32.3933031,19.4622142 C32.5005883,19.837087 32.5080209,20.2334923 32.4148639,20.6121234 C32.1471506,21.7368784 31.1391833,22.50049 31.1391833,22.50049 Z" id="Path" fill="#EFB7B9"></path>
                                <polygon id="Path" fill="#B07473" points="36.3784574 58.4351543 26.5611071 58.4351543 27.0659891 61.8758984 36.5796915 61.8758984"></polygon>
                                <polygon id="Path" fill="#000000" opacity="0.1" points="36.3784574 58.4351543 26.5611071 58.4351543 27.0659891 61.8758984 36.5796915 61.8758984"></polygon>
                                <path d="M61.3710163,62.2442287 C61.4752269,62.4598367 61.730363,62.8263702 62.3538294,63.4372595 C62.686225,62.4616334 63.4318693,61.0422142 64.1864973,60.5624864 C64.4181001,60.4341884 64.621564,60.2606636 64.7848094,60.0522142 C64.2457895,59.7575499 63.8756624,59.5131942 63.8756624,59.5131942 L62.5065517,60.8337931 L61.3710163,62.2442287 Z" id="Path" fill="#000000" opacity="0.1"></path>
                                <path d="M60.0611978,63.5468603 C60.0611978,63.5468603 60.3953902,63.676225 60.794265,63.8253539 C61.4536661,64.0750998 62.2909437,64.3823412 62.0843194,64.2547731 C61.757314,64.053539 62.8964428,61.1428312 64.0409619,60.4097641 C64.8926134,59.8707441 64.7327042,59.6120145 64.5943557,59.5113975 C64.5662344,59.491918 64.5353449,59.4767761 64.5027223,59.4664791 L63.5792015,59.1358802 L60.0611978,63.5468603 Z" id="Path" fill="#E1E7EF"></path>
                                <path d="M32.3933031,19.4694011 C32.5005883,19.8442739 32.5080209,20.2406792 32.4148639,20.6193103 C33.9203499,23.4601656 37.1984209,24.8724186 40.2971325,24.0151361 C40.4568497,23.6014884 40.6435113,23.1987556 40.8559165,22.8095281 C40.8559165,22.8095281 31.9045917,17.7607078 32.3933031,19.4694011 Z" id="Path" fill="#000000" opacity="0.1"></path>
                                <path d="M31.6205813,17.1102904 C31.6199811,19.8793852 33.2875803,22.3761874 35.8457513,23.4362099 C38.4039224,24.4962323 41.3487526,23.91067 43.3067984,21.9526242 C45.2648442,19.9945784 45.8504065,17.0497482 44.7903841,14.4915771 C43.7303617,11.9334061 41.2335594,10.2658069 38.4644646,10.2664071 C36.6460131,10.2554525 34.898831,10.9729302 33.6129677,12.2587935 C32.3271044,13.5446568 31.6096267,15.2918388 31.6205813,17.1102904 Z" id="Path" fill="#EFB7B9"></path>
                                <polygon id="Path" fill="#E1E7EF" points="25.5980581 58.4477314 29.962323 58.6435753 34.993176 58.868167 37.4475136 58.9795644 37.6271869 57.3373503 39.5658621 40.3438475 40.2108893 27.477441 38.4644646 27.477441 33.6456261 26.6796915 31.9333394 26.0400544 31.9333394 26.0400544 29.6982033 25.1955898 27.8763158 28.9166243 27.26902 45.9568421 25.8316334 56.7066969"></polygon>
                                <path d="M31.5578221,39.5856261 C31.5578221,39.5856261 33.3024501,31.9566969 34.5170417,30.4761887 C34.5170417,30.4761887 34.0624682,27.8565517 33.0562976,27.5151724 C32.050127,27.1737931 34.5943013,26.6796915 34.5943013,26.6796915 L36.1502722,27.2187114 L37.7062432,27.854755 C37.7062432,27.854755 36.3389292,29.0693466 36.5671143,30.663049 C36.4407134,31.3763634 36.5058134,32.1104431 36.7557713,32.7903811 C37.1726134,33.8540472 37.2480762,42.4693829 36.7557713,43.6085118 C36.2634664,44.7476407 36.3389292,47.2522868 36.3389292,47.2522868 L35.3183848,52.146588 L34.9770054,58.0290926 L31.2919056,60.7709074 L28.71,57.5367877 L31.5578221,39.5856261 Z" id="Path" fill="#000000" opacity="0.1"></path>
                                <path d="M31.4050998,39.4329038 C31.4050998,39.4329038 33.1515245,31.8039746 34.3661162,30.3234664 C34.3661162,30.3234664 33.9097459,27.7056261 32.9053721,27.3642468 C31.9009982,27.0228675 34.4415789,26.5287659 34.4415789,26.5287659 L35.9975499,27.0677858 L37.5535209,27.7038294 C37.5535209,27.7038294 36.1880036,28.9184211 36.4161887,30.5121234 C36.2877578,31.2240905 36.3497411,31.9573529 36.5958621,32.6376588 C37.0145009,33.6995281 37.0899637,42.3166606 36.5958621,43.4539927 C36.1017604,44.5913249 36.17902,47.0977677 36.17902,47.0977677 L35.154882,51.9938657 L34.811706,57.8763702 L31.1301996,60.6092015 L28.5500907,57.3840653 L31.4050998,39.4329038 Z" id="Path" fill="#B07473"></path>
                                <path d="M39.7904537,25.9592015 L35.9975499,27.2169147 C35.9975499,27.2169147 37.8931034,28.1943376 37.8949002,31.0798952 C37.8949002,31.0834846 39.8245917,28.7279673 39.7904537,25.9592015 Z" id="Path" fill="#000000" opacity="0.1"></path>
                                <path d="M39.7904537,25.8064791 L35.9975499,27.0641924 C35.9975499,27.0641924 37.8931034,28.0416152 37.8949002,30.9253813 C37.8949002,30.9307623 39.8245917,28.5770417 39.7904537,25.8064791 Z" id="Path" fill="#E1E7EF"></path>
                                <path d="M31.5542287,22.2705082 C31.5542287,22.2705082 33.417441,25.4848639 35.9975499,27.2205082 C35.9975499,27.2205082 34.434392,26.6419601 31.5542287,28.8375714 C31.5542287,28.8429583 29.7664791,22.4160436 31.5542287,22.2705082 Z" id="Path" fill="#000000" opacity="0.1"></path>
                                <path d="M31.5542287,22.1195826 C31.5542287,22.1195826 33.417441,25.3321416 35.9975499,27.0695826 C35.9975499,27.0695826 34.434392,26.4910345 31.5542287,28.6866459 C31.5542287,28.6920327 29.7664791,22.265118 31.5542287,22.1195826 Z" id="Path" fill="#E1E7EF"></path>
                                <path d="M60.0611978,63.5468603 C60.0611978,63.5468603 60.3953902,63.676225 60.794265,63.8253539 C61.9226134,61.6441198 64.2080581,59.824029 64.5943557,59.5131942 C64.5662344,59.4937148 64.5353449,59.4785729 64.5027223,59.4682759 L63.5792015,59.137677 L60.0611978,63.5468603 Z" id="Path" fill="#000000" opacity="0.1"></path>
                                <path d="M34.4415789,68.9622142 C34.5565699,71.5045917 35.9598185,76.2120327 35.9598185,76.2120327 C37.7242105,78.6555898 41.6303085,76.8624501 43.0155898,76.1150091 C43.2833031,71.1542287 42.6867877,60.8661343 42.6867877,60.8661343 L40.2108893,57.473902 L37.6271869,57.3373503 L39.5658621,40.3438475 L40.2108893,27.477441 L39.2460436,27.477441 C38.933412,28.7854628 38.4411071,30.9954446 38.5273503,31.5380581 C38.6531216,32.3232305 37.3361162,40.1426134 37.3361162,40.1426134 L35.7082759,50.1037024 L35.262686,52.8185662 C35.4100181,53.2731397 35.3004174,55.2046279 35.1333212,57.204392 C35.0848094,57.763176 35.0345009,58.329147 34.9841924,58.868167 C34.8045191,60.713412 34.6248457,62.2568058 34.6248457,62.2568058 C34.4038475,64.0050272 34.4415789,68.9622142 34.4415789,68.9622142 Z" id="Path" fill="#000000" opacity="0.1"></path>
                                <path d="M34.7452269,68.8094918 C34.8602178,71.3536661 36.2634664,76.0593103 36.2634664,76.0593103 C38.4195463,79.0580581 43.8097459,75.6801996 43.8097459,75.6801996 C43.8097459,75.6801996 44.8338838,61.2578221 44.226588,59.4736661 C43.8556626,58.3342667 43.6765469,57.141174 43.6965517,55.9430853 L44.8716152,51.5788203 C44.8716152,51.5788203 45.6316334,53.7349002 46.1293285,54.0080036 C46.6270236,54.2811071 47.2289292,55.3357895 47.2289292,55.3357895 L52.4286751,59.662323 L56.4515608,62.7365336 L60.019873,65.8107441 C60.2857895,62.6233394 64.4991289,59.4736661 64.4991289,59.4736661 L52.3568058,49.4514882 C52.47,49.2610345 51.8177858,47.1354991 51.8177858,47.1354991 L51.1727586,44.920127 L49.8072414,43.074882 C49.8072414,43.074882 50.1863521,41.7848276 49.8072414,41.1398004 C49.4281307,40.4947731 49.5035935,38.9837205 49.237677,35.2950272 C48.9717604,31.6063339 47.5361706,31.3871325 47.5361706,31.3871325 C47.5361706,31.3871325 41.9662976,27.5151724 41.3122868,27.6283666 C40.7103811,27.7361706 39.9072414,26.5215789 39.8012341,26.3562795 L39.7904537,26.3383122 C39.7904537,26.3383122 38.7124138,30.6019601 38.8327949,31.3871325 C38.953176,32.1723049 37.6415608,39.9898911 37.6415608,39.9898911 L36.0137205,49.95098 L35.5681307,52.6676407 C35.8987296,53.6845917 34.9356806,62.1040835 34.9356806,62.1040835 C34.7074955,63.8505082 34.7452269,68.8094918 34.7452269,68.8094918 Z" id="Path" fill="#67647E"></path>
                                <path d="M16.8497641,73.2743739 C19.025608,74.3955354 21.0433394,75.4645917 21.0433394,75.4645917 C21.0433394,75.4645917 24.4104174,76.5785662 25.7759347,70.2540653 L29.6982033,59.5006171 C29.6982033,59.5006171 29.8006171,59.1807985 29.962323,58.6453721 C30.0952813,58.2087659 30.2677677,57.6266243 30.4528312,56.9582396 C31.2236298,54.2182214 32.2495644,50.0336298 31.8740472,48.3914156 L31.8740472,48.2638475 L31.7967877,33.5647731 C31.7967877,33.5647731 32.211833,26.6545372 31.9531034,26.0849728 C31.9476707,26.070097 31.9410618,26.0556775 31.9333394,26.0418512 L31.9333394,26.0418512 L29.6982033,25.1955898 L27.8763158,28.9166243 L27.26902,45.9568421 L25.8316334,56.7066969 L20.1827042,56.4066425 C20.1827042,56.4066425 19.0202178,66.8276951 17.3726134,71.3374955 C17.1439892,71.9672116 16.9690817,72.615151 16.8497641,73.2743739 L16.8497641,73.2743739 Z" id="Path" fill="#000000" opacity="0.1"></path>
                                <path d="M11.6805626,70.7337931 C13.5797096,71.5171688 20.7396915,75.3118693 20.7396915,75.3118693 C20.7396915,75.3118693 24.1067695,76.4276407 25.4722868,70.101343 L29.3891652,59.3478947 C29.3891652,59.3478947 32.1471506,50.7684936 31.5650091,48.2386933 L31.5650091,48.1111252 L31.4877495,33.4102541 C31.4877495,33.4102541 31.9027949,26.5018149 31.6440653,25.9322505 C31.4015064,25.3932305 31.1050454,23.7923412 31.2326134,22.4304174 C31.2415971,22.3585481 31.248784,22.2866788 31.2577677,22.2148094 L31.1715245,22.2615245 L28.4009619,23.7186751 L28.097314,23.7186751 C27.1989474,23.706098 24.6224319,23.6845372 24.2271506,23.8516334 C23.7456261,24.0546642 19.0902904,24.4463521 19.0902904,24.4463521 C19.0902904,24.4463521 16.6107985,24.5972777 16.7383666,28.3740109 C16.7383666,28.3740109 15.8004719,31.5703993 15.523775,32.1004356 C15.247078,32.6304719 13.5994737,37.8176407 13.5994737,37.8176407 L11.6751724,47.7392015 L11.448784,58.7190381 C11.448784,58.7190381 11.4236298,65.7262976 11.0445191,66.3102359 L12.4100363,66.8492559 C12.4100363,66.8492559 9.78321234,69.9486207 11.6805626,70.7337931 Z" id="Path" fill="#67647E"></path>
                                <path d="M18.412922,64.5081125 L19.2735572,65.6472414 C19.2735572,65.6472414 24.5361887,75.186098 18.6662613,73.7954265 C12.7963339,72.404755 13.6551724,67.5984936 13.6551724,67.5984936 L14.0145191,64.2583666 L18.412922,64.5081125 Z" id="Path" fill="#EFB7B9"></path>
                                <path d="M25.8262432,116.00069 C25.7004719,115.975535 23.6503993,115.1149 22.2327768,115.1149 C20.8151543,115.1149 18.917804,114.962178 19.1459891,115.343085 C19.3741742,115.723993 22.1070054,115.772505 22.8903811,116.151615 C23.6737568,116.530726 25.3447187,117.569238 25.497441,117.619546 C25.6501633,117.669855 25.8262432,116.00069 25.8262432,116.00069 Z" id="Path" fill="#000000" opacity="0.1"></path>
                                <path d="M39.9449728,111.69931 C39.9198185,111.850236 36.9084936,115.231688 35.2393285,115.084356 C33.5701633,114.937024 39.9449728,111.69931 39.9449728,111.69931 Z" id="Path" fill="#000000" opacity="0.1"></path>
                                <path d="M39.0591833,103.626588 C39.0591833,103.626588 35.8250635,111.850236 34.7829583,112.281452 C33.740853,112.712668 33.5935209,111.268094 34.1505082,110.863829 C34.7074955,110.459564 36.4287659,107.802196 39.0591833,103.626588 Z" id="Path" fill="#000000" opacity="0.1"></path>
                                <path d="M22.4106534,100.918911 C22.4106534,100.918911 21.8716334,103.95539 23.2191833,105.93 C24.5667332,107.90461 22.4106534,100.918911 22.4106534,100.918911 Z" id="Path" fill="#000000" opacity="0.1"></path>
                                <path d="M30.9127949,73.3893648 C30.9702904,73.3426497 26.0795826,73.1360254 26.0795826,73.1360254 C26.0795826,73.1360254 28.2805808,75.5400544 30.9127949,73.3893648 Z" id="Path" fill="#000000" opacity="0.1"></path>
                                <path d="M30.3054991,75.4897459 L27.3444828,75.7682396 C27.3444828,75.7682396 28.3811978,77.0331397 30.3054991,75.4897459 Z" id="Path" fill="#000000" opacity="0.1"></path>
                                <path d="M47.8146642,43.937314 C47.8146642,43.937314 50.4720327,44.2966606 50.7253721,45.0764428 C50.9787114,45.856225 47.8146642,43.937314 47.8146642,43.937314 Z" id="Path" fill="#000000" opacity="0.1"></path>
                                <path d="M52.5203085,50.4396915 C52.3190744,50.3642287 50.6732668,49.8827042 49.5107804,50.1863521 C48.348294,50.49 46.7006897,49.6293648 46.7006897,49.6293648 C46.7006897,49.6293648 45.0315245,49.5790563 45.3603267,49.8090381 C45.6891289,50.03902 46.6755354,49.9348094 47.2325227,50.2654083 C47.78951,50.5960073 49.2538475,50.8727042 49.6221779,50.7199819 C49.9905082,50.5672595 52.5203085,50.4396915 52.5203085,50.4396915 Z" id="Path" fill="#000000" opacity="0.1"></path>
                                <path d="M36.0137205,49.95098 L36.0748094,51.3254809 C36.0748094,51.3254809 40.7301452,39.889274 41.8926316,37.4331397 C43.055118,34.9770054 42.4011071,29.6407078 42.4011071,29.6407078 L41.741706,29.4879855 L39.8102178,26.3562795 L39.7994374,26.3383122 C39.7994374,26.3383122 38.7213975,30.6019601 38.8417786,31.3871325 C38.9621597,32.1723049 37.6505445,39.9898911 37.6505445,39.9898911 L36.0137205,49.95098 Z" id="Path" fill="#67647E"></path>
                                <path d="M26.6940653,25.9969328 C26.6940653,25.9969328 28.6075862,45.6783485 31.5703993,48.1111252 L31.4931397,33.4102541 C31.4931397,33.4102541 31.9081851,26.5018149 31.6494555,25.9322505 C31.4068966,25.3932305 31.1104356,23.7923412 31.2380036,22.4304174 L31.1769147,22.2615245 L28.4063521,23.7186751 L28.1027042,23.7186751 L27.9230309,26.3437024 L26.6940653,25.9969328 Z" id="Path" fill="#67647E"></path>
                                <path d="M36.0137205,49.95098 L36.0748094,51.3254809 C36.0748094,51.3254809 40.7301452,39.889274 41.8926316,37.4331397 C43.055118,34.9770054 42.4011071,29.6407078 42.4011071,29.6407078 L41.741706,29.4879855 L39.8102178,26.3562795 L39.7994374,26.3383122 C39.7994374,26.3383122 38.7213975,30.6019601 38.8417786,31.3871325 C38.9621597,32.1723049 37.6505445,39.9898911 37.6505445,39.9898911 L36.0137205,49.95098 Z" id="Path" fill="#000000" opacity="0.1"></path>
                                <path d="M26.6940653,25.9969328 C26.6940653,25.9969328 28.6075862,45.6783485 31.5703993,48.1111252 L31.4931397,33.4102541 C31.4931397,33.4102541 31.9081851,26.5018149 31.6494555,25.9322505 C31.4068966,25.3932305 31.1104356,23.7923412 31.2380036,22.4304174 L31.1769147,22.2615245 L28.4063521,23.7186751 L28.1027042,23.7186751 L27.9230309,26.3437024 L26.6940653,25.9969328 Z" id="Path" fill="#000000" opacity="0.1"></path>
                                <circle id="Oval" fill="#444053" cx="36.5814882" cy="53.197677" r="1"></circle>
                                <circle id="Oval" fill="#444053" cx="36.0137205" cy="61.5722505" r="1"></circle>
                                <path d="M31.6207078,17.1102904 C31.6192457,18.0958891 31.831976,19.0700344 32.2441742,19.9652995 L32.3340109,19.8574955 C33.4390018,18.4776044 33.6743739,16.5568966 34.6697641,15.0871688 C35.0291107,14.5625227 35.4908711,14.0881851 36.0837931,13.8941379 C36.6767151,13.7000907 37.3990018,13.8492196 37.7637387,14.364882 C37.9937205,14.6918875 38.0619964,15.11951 38.3027586,15.442922 C38.7663158,16.0520145 39.6556987,16.0358439 40.401343,15.9226497 C41.1469873,15.8094555 41.9950454,15.6818875 42.57,16.1795826 C43.1449546,16.6772777 43.1862795,17.5325227 43.6480399,18.109274 C44.0073866,18.5494737 44.5320327,18.7507078 45.0944102,18.8459347 C45.7474084,16.2831459 44.8653536,13.5734868 42.828857,11.8861889 C40.7923604,10.198891 37.9659547,9.83598048 35.5692483,10.9540551 C33.1725419,12.0721298 31.634545,14.4710543 31.6189111,17.1156806 L31.6207078,17.1102904 Z" id="Path" fill="#000000" opacity="0.1"></path>
                                <path d="M35.4639201,8.33684211 C34.0445009,8.9315608 32.6574229,9.69157895 31.5847731,10.8217241 C30.5121234,11.9518693 29.7880399,13.4916697 29.8688929,15.0674047 C29.8830722,15.5634073 30.0188051,16.0483441 30.2641742,16.479637 C30.4905626,16.8497641 30.8319419,17.1588022 30.952323,17.5792377 C31.0888748,18.0643557 30.8984211,18.5782214 30.8984211,19.0831034 C30.8984211,19.5879855 31.2703448,20.1898911 31.7446824,20.0569328 C31.9233658,19.9898232 32.0766332,19.8685913 32.1830853,19.7101633 C33.2862795,18.332069 33.5216515,16.4095644 34.5080581,14.9416334 C34.8674047,14.4169873 35.3291652,13.9426497 35.9220871,13.7486025 C36.5150091,13.5545554 37.2390926,13.7018875 37.6038294,14.2193466 C37.8338113,14.5463521 37.9002904,14.9739746 38.1428494,15.2973866 C38.6046098,15.9064791 39.4957895,15.8903085 40.239637,15.7771143 C40.9834846,15.6639201 41.8333394,15.5363521 42.4100907,16.0322505 C42.9868421,16.5281488 43.0263702,17.3851906 43.4881307,17.9619419 C44.0541016,18.6644646 45.0530853,18.756098 45.9388748,18.7920327 C45.5795281,17.9852995 45.7052995,17.0258439 46.017931,16.1975499 C46.3305626,15.3692559 46.8102904,14.6146279 47.1534664,13.7989111 C47.4133143,13.249486 47.5365929,12.6454208 47.5128131,12.0381125 C47.4607078,11.4362069 47.1534664,10.8307078 46.6252269,10.5611978 C46.3179855,10.4030853 45.9568421,10.3635572 45.6711615,10.1659165 C44.8284936,9.58557169 44.8770054,8.64228675 43.7558439,8.34043557 C42.8574773,8.09607985 41.8998185,8.09967332 40.9906715,7.84633394 C39.0214519,7.29294011 37.3630672,7.63431942 35.4639201,8.33684211 Z" id="Path" fill="#585268"></path>
                                <path d="M15.5022142,65.3184392 C15.5022142,65.3184392 13.9588203,66.8366788 13.7557895,66.8115245 C13.5527586,66.7863702 13.2509074,65.4442105 13.2509074,65.4442105 L15.5022142,65.3184392 Z" id="Path" fill="#000000" opacity="0.1"></path>
                                <path d="M15.3512886,65.1657169 C15.3512886,65.1657169 13.8078947,66.6839564 13.6048639,66.6588022 C13.401833,66.6336479 13.0981851,65.2932849 13.0981851,65.2932849 L15.3512886,65.1657169 Z" id="Path" fill="#E1E7EF"></path>
                                <path d="M11.2008348,66.4575681 C11.2008348,66.4575681 17.7804719,64.9393285 19.4244828,65.6472414 C19.4244828,65.6472414 18.8171869,61.9280036 18.917804,61.245245 C19.0184211,60.5624864 18.8926497,58.1818149 18.8926497,58.1818149 C18.8926497,58.1818149 18.513539,53.7546642 19.0202178,52.5149183 C19.5268966,51.2751724 19.2466062,47.9853539 19.2466062,47.9853539 L11.7578221,51.5518693 C11.7578221,51.5518693 11.6572051,65.4693648 11.2008348,66.4575681 Z" id="Path" fill="#000000" opacity="0.1"></path>
                                <path d="M11.0499093,66.3048457 C11.0499093,66.3048457 17.6277495,64.7866062 19.2735572,65.4945191 C19.2735572,65.4945191 18.6662613,61.7752813 18.7668784,61.0925227 C18.8674955,60.4097641 18.7417241,58.0380762 18.7417241,58.0380762 C18.7417241,58.0380762 18.3626134,53.6091289 18.8674955,52.3693829 C19.3723775,51.129637 19.0956806,47.8416152 19.0956806,47.8416152 L11.6015064,51.4009437 C11.6015064,51.4009437 11.5044828,65.3184392 11.0499093,66.3048457 Z" id="Path" fill="#67647E"></path>
                                <g id="Group" opacity="0.1" transform="translate(29.825771, 11.319419)" fill="#000000">
                                    <path d="M15.9675681,6.74852995 C15.6603267,5.966951 15.7878947,5.05600726 16.0915426,4.26544465 C16.4041742,3.4353539 16.883902,2.68252269 17.227078,1.86680581 C17.4869259,1.31738077 17.6102045,0.713315497 17.5864247,0.10600726 C17.5871925,0.0964400638 17.5871925,0.0868267239 17.5864247,0.0772595281 C17.6704036,0.280146372 17.7231088,0.494602094 17.7427405,0.713303085 C17.7665203,1.32061132 17.6432417,1.9246766 17.3833938,2.47410163 C17.0402178,3.28981851 16.5622868,4.04264973 16.2496552,4.87274047 C16.0069762,5.46644917 15.9102413,6.10970544 15.9675681,6.74852995 L15.9675681,6.74852995 Z" id="Path"></path>
                                    <path d="M1.81649728,8.12662432 C1.99542885,8.05910526 2.14915921,7.93800339 2.25669691,7.77985481 C3.35989111,6.40176044 3.59526316,4.4792559 4.58166969,3.01132486 C4.94101633,2.48667877 5.40277677,2.0123412 5.993902,1.81829401 C6.58502722,1.62424682 7.31090744,1.77157895 7.67564428,2.28903811 C7.90742287,2.61604356 7.97210526,3.04366606 8.21466425,3.36707804 C8.67822142,3.9761706 9.56760436,3.96 10.3132486,3.84680581 C11.0588929,3.73361162 11.906951,3.60604356 12.4837024,4.10194192 C13.0604537,4.59784029 13.0999819,5.45488203 13.5617423,6.03163339 C14.1205263,6.72696915 15.1033394,6.82219601 15.9819419,6.8599274 C16.0151833,7.0698869 16.0755806,7.2746337 16.1616152,7.46901996 C15.274029,7.4330853 14.2750454,7.34145191 13.7090744,6.63892922 C13.2455172,6.06217786 13.186225,5.19076225 12.6310345,4.70923775 C12.0758439,4.22771325 11.2044283,4.33911071 10.4605808,4.45410163 C9.71673321,4.56909256 8.82555354,4.58346642 8.3637931,3.97437387 C8.12303085,3.65635209 8.05655172,3.22872958 7.82477314,2.89633394 C7.4654265,2.37887477 6.73415608,2.23154265 6.14303085,2.42558984 C5.55190563,2.61963702 5.08295826,3.09397459 4.72900181,3.61862069 C3.74259528,5.08655172 3.50722323,7.00905626 2.40402904,8.38715064 C2.29757691,8.54557859 2.14430958,8.66681053 1.96562613,8.73392015 C1.49128857,8.8668784 1.11756806,8.26497278 1.11935834,7.76009074 L1.11935834,7.73673321 C1.27568058,8.01702359 1.52722323,8.21107078 1.81649728,8.12662432 Z" id="Path"></path>
                                    <path d="M0.335989111,4.55292196 C0.564174229,4.923049 0.905553539,5.23208711 1.02413793,5.65252269 C1.05666513,5.7695229 1.07298789,5.89043229 1.07265488,6.01186933 C0.918130672,5.71001815 0.668384755,5.45488203 0.488711434,5.16381125 C0.300740567,4.84448091 0.178560377,4.49076926 0.129364791,4.12350272 C0.184494997,4.27285875 0.25368016,4.41664357 0.335989111,4.55292196 L0.335989111,4.55292196 Z" id="Path"></path>
                                </g>
                                <ellipse id="Oval" fill="#FFAF20" opacity="0.1" cx="145.287441" cy="118.729927" rx="14.3343376" ry="2.19920145"></ellipse>
                                <ellipse id="Oval" fill="#FFAF20" opacity="0.1" cx="69.9683848" cy="140.935753" rx="7.08990926" ry="1.08882033"></ellipse>
                                <ellipse id="Oval" fill="#FFAF20" opacity="0.1" cx="115.188566" cy="135.317368" rx="7.08990926" ry="1.08882033"></ellipse>
                                <ellipse id="Oval" fill="#FFAF20" opacity="0.1" cx="82.5257532" cy="127.458457" rx="7.08990926" ry="1.08882033"></ellipse>
                                <ellipse id="Oval" fill="#FFAF20" opacity="0.1" cx="103.76314" cy="120.930926" rx="7.08990926" ry="1.08882033"></ellipse>
                                <path d="M181.841978,108.564011 C181.841978,108.564011 183.035009,110.125372 181.290381,112.480889 C179.545753,114.836407 178.108367,116.828984 178.697695,118.289728 C178.697695,118.289728 181.328113,113.914682 183.471615,113.853593 C185.615118,113.792505 184.197495,111.190835 181.841978,108.564011 Z" id="Path" fill="#FFAF20"></path>
                                <path d="M181.841978,108.564011 C181.945955,108.71529 182.028207,108.8804 182.086334,109.054519 C184.175935,111.508857 185.289909,113.801488 183.279365,113.858984 C181.408966,113.911089 179.163049,117.258403 178.625826,118.102868 C178.64387,118.168081 178.665462,118.23226 178.690508,118.295118 C178.690508,118.295118 181.320926,113.920073 183.464428,113.858984 C185.607931,113.797895 184.197495,111.190835 181.841978,108.564011 Z" id="Path" fill="#000000" opacity="0.1"></path>
                                <path d="M184.060944,110.540417 C184.060944,111.090218 183.998058,111.535808 183.922595,111.535808 C183.847132,111.535808 183.784247,111.090218 183.784247,110.540417 C183.784247,109.990617 183.861506,110.251143 183.938766,110.251143 C184.016025,110.251143 184.060944,110.001397 184.060944,110.540417 Z" id="Path" fill="#FFD037"></path>
                                <path d="M184.820962,111.203412 C184.339437,111.467532 183.922595,111.625644 183.883067,111.562759 C183.843539,111.499873 184.208276,111.228566 184.6898,110.966243 C185.171325,110.70392 184.982668,110.894374 185.018603,110.966243 C185.054537,111.038113 185.304283,110.941089 184.820962,111.203412 Z" id="Path" fill="#FFD037"></path>
                                <path d="M175.537241,108.564011 C175.537241,108.564011 174.344211,110.125372 176.088838,112.480889 C177.833466,114.836407 179.270853,116.828984 178.697695,118.289728 C178.697695,118.289728 176.065481,113.914682 173.923775,113.853593 C171.782069,113.792505 173.181724,111.190835 175.537241,108.564011 Z" id="Path" fill="#FFAF20"></path>
                                <path d="M175.537241,108.564011 C175.433499,108.715162 175.351825,108.880324 175.294682,109.054519 C173.205082,111.508857 172.091107,113.801488 174.099855,113.858984 C175.970254,113.911089 178.216171,117.258403 178.753394,118.102868 C178.735959,118.168052 178.714966,118.232231 178.690508,118.295118 C178.690508,118.295118 176.058294,113.920073 173.916588,113.858984 C171.774882,113.797895 173.181724,111.190835 175.537241,108.564011 Z" id="Path" fill="#000000" opacity="0.1"></path>
                                <path d="M173.320073,110.540417 C173.320073,111.090218 173.381162,111.535808 173.456624,111.535808 C173.532087,111.535808 173.594973,111.090218 173.594973,110.540417 C173.594973,109.990617 173.517713,110.251143 173.44225,110.251143 C173.366788,110.251143 173.320073,110.001397 173.320073,110.540417 Z" id="Path" fill="#FFD037"></path>
                                <path d="M172.558258,111.203412 C173.039782,111.467532 173.456624,111.625644 173.497949,111.562759 C173.539274,111.499873 173.17274,111.228566 172.689419,110.966243 C172.206098,110.70392 172.398348,110.894374 172.362414,110.966243 C172.326479,111.038113 172.076733,110.941089 172.558258,111.203412 Z" id="Path" fill="#FFD037"></path>
                                <ellipse id="Oval" fill="#FFAF20" opacity="0.1" cx="178.690508" cy="128.313702" rx="12.4783122" ry="1.9153176"></ellipse>
                                <path d="M185.112033,116.18755 L185.05274,116.674465 L184.968294,117.362613 L184.934156,117.650091 L184.84971,118.33824 L184.813775,118.625717 L184.731125,119.313866 L183.775263,127.140436 C183.690817,127.839365 182.548094,128.383775 181.17,128.383775 L176.20922,128.383775 C174.831125,128.383775 173.693793,127.844755 173.605753,127.140436 L172.649891,119.313866 L172.565445,118.625717 L172.531307,118.33824 L172.445064,117.650091 L172.409129,117.368004 L172.326479,116.679855 L172.26539,116.19294 C172.218675,115.797659 172.834955,115.463402 173.614737,115.463402 L183.762686,115.463402 C184.542468,115.458076 185.165935,115.792269 185.112033,116.18755 Z" id="Path" fill="#65617D"></path>
                                <polygon id="Path" fill="#9D9CB5" points="185.05274 116.674465 184.968294 117.360817 172.410926 117.360817 172.328276 116.674465"></polygon>
                                <polygon id="Path" fill="#9D9CB5" points="184.934156 117.648294 184.851506 118.33824 172.531307 118.33824 172.44686 117.648294"></polygon>
                                <polygon id="Path" fill="#9D9CB5" points="184.813775 118.62392 184.731125 119.312069 172.649891 119.312069 172.567241 118.62392"></polygon>
                            </g>
                        </g>
                    </g>
                </g>
            </g>
        </g>
    </g>
</svg>