<?xml version="1.0" encoding="UTF-8"?>
<svg width="199px" height="138px" viewBox="0 0 199 138" version="1.1" xmlns="http://www.w3.org/2000/svg" xmlns:xlink="http://www.w3.org/1999/xlink">
    <!-- Generator: Sketch 58 (84663) - https://sketch.com -->
    <title>schedule-a-meeting</title>
    <desc>Created with Sketch.</desc>
    <defs>
        <linearGradient x1="50.0295703%" y1="99.99835%" x2="50.0295703%" y2="-0.00449966702%" id="linearGradient-1">
            <stop stop-color="#808080" stop-opacity="0.25" offset="0%"></stop>
            <stop stop-color="#808080" stop-opacity="0.12" offset="54%"></stop>
            <stop stop-color="#808080" stop-opacity="0.1" offset="100%"></stop>
        </linearGradient>
    </defs>
    <g id="Dashboard" stroke="none" stroke-width="1" fill="none" fill-rule="evenodd">
        <g id="Dashboard---Desktop-1a" transform="translate(-645.000000, -1579.000000)" fill-rule="nonzero">
            <g id="Module/Line-Chart-Large-Copy" transform="translate(312.000000, 1270.000000)">
                <g id="Top-Bar" transform="translate(24.000000, 31.000000)">
                    <g id="Group-14-Copy" transform="translate(0.000000, 207.000000)">
                        <g id="Group-22" transform="translate(281.500000, 71.000000)">
                            <g id="schedule-a-meeting" transform="translate(28.000000, 0.000000)">
                                <path d="M115.038869,21.7639441 C102.346155,21.3250819 90.2572712,17.2424395 78.7125364,12.7768854 C67.1678016,8.31133134 55.733652,3.36320368 43.3428533,0.997544058 C35.3754592,-0.525360251 26.2618416,-0.740420217 19.8408837,3.51531926 C13.6621599,7.61020088 11.6663619,14.6792045 10.5921065,21.2394076 C9.78465965,26.1752961 9.31072345,31.3682075 11.5224257,35.9893741 C13.0583301,39.1960405 15.7860962,41.8921582 17.6660431,44.9641936 C24.2291819,55.6559959 19.5968943,68.8375982 12.4773194,79.277623 C9.1422128,84.1732971 5.26997851,88.8451688 2.69668047,94.0573132 C0.123382432,99.2694576 -1.06321339,105.24218 1.19939314,110.567974 C3.43215924,115.837817 8.74726597,119.796319 14.5170004,122.581608 C26.2144479,128.227369 40.009502,129.846439 53.4605135,130.762629 C83.2377495,132.790837 113.174719,131.913112 143.030945,131.03364 C154.078924,130.706679 165.177808,130.377969 176.046745,128.674974 C182.083288,127.730808 188.314671,126.227137 192.697703,122.609583 C198.26031,118.012895 199.639991,110.228774 195.911693,104.464117 C189.659246,94.7951612 172.371106,92.3997779 168.002117,82.017452 C165.595574,76.306998 168.067063,69.9443702 171.563659,64.6483 C179.062383,53.2833425 191.632225,43.317149 192.29398,30.3278768 C192.750363,21.4107562 186.706799,12.4726542 177.363234,8.25188387 C167.568553,3.82829271 153.989403,4.3843014 146.762754,11.7085794 C139.321955,19.2496658 126.246582,22.1503527 115.038869,21.7639441 Z" id="Path" fill="#FFAF20" opacity="0.1"></path>
                                <path d="M158,120.181861 C157.244646,120.022289 156.446784,119.966841 155.656912,120.019027 C154.694739,120.087077 154.830597,121.043425 155.796493,120.998464 C156.279563,120.974097 156.757377,120.916668 157.222073,120.827123 L158,120.181861 Z" id="Path" fill="#FFAF20"></path>
                                <path d="M158.622235,120 C158.851161,120.702992 158.979696,121.469484 158.999669,122.250734 C159.020501,123.203038 158.052409,123.270798 158.008294,122.320326 C157.989173,121.844519 158.003136,121.367032 158.049958,120.895532 L158.622235,120 Z" id="Path" fill="#FFAF20"></path>
                                <path d="M161,116.825954 C161,116.825954 160.562941,115.648534 157.890489,116.105266 C156.681235,116.311389 156.714058,117.800217 157.925039,117.957404 L157.976865,117.957404 C159.740648,118.167975 160.353913,117.567402 161,116.825954 Z" id="Path" fill="#FFAF20"></path>
                                <path d="M160.732805,117 C160.732805,117 161.92479,117.112982 161.999379,119.850633 C162.033805,121.083011 160.62666,121.456722 160.249413,120.312992 C160.249413,120.29561 160.239372,120.279967 160.233634,120.262585 C159.70721,118.592183 160.156177,117.830855 160.732805,117 Z" id="Path" fill="#FFAF20"></path>
                                <path d="M163,113.063235 C162.78731,112.125694 162.023651,111.364161 161.003657,111.072451 C159.130744,110.545197 158.141516,113.047257 159.971497,113.683158 C160.728839,113.930197 161.535207,114.03464 162.339919,113.989924 L163,113.063235 Z" id="Path" fill="#FFAF20"></path>
                                <path d="M165,107.904667 C165,107.904667 164.183584,106.340842 162.066308,106.028077 C159.821647,105.694982 159.142265,108.426984 161.359905,108.863292 C162.354946,109.038445 163.383888,109.045366 164.382381,108.883621 L165,107.904667 Z" id="Path" fill="#FFAF20"></path>
                                <path d="M166,103.983761 C165.430848,102.973079 164.522328,102.267401 163.48327,102.028933 C161.910314,101.694835 161.380227,104.355179 162.92487,104.810121 C163.894942,105.078094 164.909472,105.062191 165.872591,104.763916 L166,103.983761 Z" id="Path" fill="#FFAF20"></path>
                                <path d="M168,100.006994 C167.477411,99.0920291 166.664301,98.4054308 165.707229,98.0709529 C164.069535,97.5369325 163.260514,100.173984 164.888382,100.748013 C165.853402,101.088114 166.896638,101.083838 167.859158,100.735837 L168,100.006994 Z" id="Path" fill="#FFAF20"></path>
                                <path d="M168,96.0410086 C168,96.0410086 167.354158,94.217151 166.038255,93.2527231 C164.572193,92.1774637 163.17556,94.808252 164.58511,95.9923984 C165.453768,96.7254414 166.566231,97.2309883 167.865988,96.8926607 L168,96.0410086 Z" id="Path" fill="#FFAF20"></path>
                                <path d="M168,90.930602 C168,90.930602 167.307447,89.088985 165.978876,88.2080426 C164.493263,87.2356999 163.200812,89.923255 164.600051,91.0822875 C165.515603,91.83877 166.658866,92.3288307 167.872796,91.7376464 L168,90.930602 Z" id="Path" fill="#FFAF20"></path>
                                <path d="M168,86.8845105 C167.424618,85.9148078 166.719474,85.0435944 165.907776,84.2995435 C164.753566,83.2750255 163.292496,85.1195367 164.385683,86.2141234 C165.395181,87.219704 166.652259,88.0643159 167.951181,87.996141 L168,86.8845105 Z" id="Path" fill="#FFAF20"></path>
                                <path d="M167.893802,82.1316208 C167.256552,81.0887909 166.488795,80.1264317 165.608016,79.26646 C164.734832,78.4487772 163.443599,79.6949258 164.259469,80.5567636 C165.201766,81.537983 166.472771,82.5551805 168,83 L167.893802,82.1316208 Z" id="Path" fill="#FFAF20"></path>
                                <path d="M166.751286,77.7054718 C166.181173,76.8365393 165.517144,76.0304187 164.770716,75.3010918 C163.816093,74.3848813 162.376842,75.7636794 163.293061,76.7157494 C164.265973,77.7287804 165.524174,78.6772644 167,79 L166.751286,77.7054718 Z" id="Path" fill="#FFAF20"></path>
                                <path d="M165.988709,73.2336922 C165.471663,72.5337131 164.910834,71.8671714 164.309587,71.2380654 C163.635357,70.5427419 162.55788,71.5203893 163.193398,72.2528182 C163.940212,73.1143095 164.898328,73.8773908 166,74 L165.988709,73.2336922 Z" id="Path" fill="#FFAF20"></path>
                                <path d="M166,68.5193766 C165.497386,67.4103752 164.922676,66.3447991 164.280576,65.3313707 C163.742396,64.5019078 162.621332,65.3895106 163.128562,66.2422295 C163.79226,67.3604541 164.713871,68.4670507 165.924345,69 L166,68.5193766 Z" id="Path" fill="#FFAF20"></path>
                                <path d="M165,62.9035522 C165,62.9035522 164.643797,62.1708382 164.134729,61.3192113 C163.664599,60.5340357 162.672422,61.3454421 163.107941,62.1585972 C163.598261,63.0696806 164.212604,63.8461126 164.927894,64 L165,62.9035522 Z" id="Path" fill="#FFAF20"></path>
                                <path d="M164.875713,59.5275478 L164.267874,56.5113335 C164.10669,55.713434 162.90849,55.9042361 163.005589,56.7040629 C163.22309,58.3152802 163.78238,59.936134 165,61 L164.875713,59.5275478 Z" id="Path" fill="#FFAF20"></path>
                                <path d="M165,51.3444349 L165,51.3444349 C164.897704,51.0818617 164.630214,50.9433688 164.377039,51.021896 C164.123864,51.1004233 163.964829,51.3712112 164.006659,51.6525391 C164.124621,52.4497678 164.303794,53.2349727 164.542317,54 L165,51.3444349 Z" id="Path" fill="#FFAF20"></path>
                                <path d="M162.575474,113.128452 C163.592079,112.839042 164.710677,113.046614 165.499311,113.67101 C166.92906,114.822406 164.995325,116.753729 163.470854,115.691733 C162.856445,115.242426 162.355782,114.688908 162,114.065598 L162.575474,113.128452 Z" id="Path" fill="#FFAF20"></path>
                                <path d="M165.509577,108.075666 C165.509577,108.075666 167.206015,107.602756 168.518658,109.021485 C169.910318,110.52586 167.986505,112.989088 166.520667,111.579668 C165.880162,110.932576 165.362438,110.13959 165,109.250493 L165.509577,108.075666 Z" id="Path" fill="#FFAF20"></path>
                                <path d="M166.16028,103.852008 C167.208806,103.129699 168.517973,102.849879 169.785655,103.077123 C171.693748,103.444367 171.218633,106.222568 169.297184,105.985695 C168.098559,105.818319 166.9639,105.360193 166,104.654436 L166.16028,103.852008 Z" id="Path" fill="#FFAF20"></path>
                                <path d="M168.128386,99.955277 C168.907441,99.2725529 169.869787,98.9372112 170.841929,99.0097081 C172.499852,99.1780971 172.322331,102.118428 170.662822,101.9963 C169.680406,101.924909 168.745085,101.479683 168,100.728756 L168.128386,99.955277 Z" id="Path" fill="#FFAF20"></path>
                                <path d="M168,96.014769 C168,96.014769 169.078586,94.657546 170.800436,94.1026066 C172.710796,93.4858312 173.937081,95.821333 172.081136,96.5395831 C170.915097,96.9882912 169.51002,97.2150235 168.017491,96.7219203 L168,96.014769 Z" id="Path" fill="#FFAF20"></path>
                                <path d="M168,90.9692743 C168,90.9692743 169.074628,89.6113896 170.792883,89.0929245 C172.708441,88.5142804 173.932483,90.7979957 172.091632,91.5309449 C170.886746,92.0092906 169.4405,92.2469205 168.049805,91.626614 L168,90.9692743 Z" id="Path" fill="#FFAF20"></path>
                                <path d="M168,86.0608423 C168.409398,85.1154474 168.980173,84.22783 169.693525,83.4272256 C170.713489,82.3158062 172.697608,83.5928618 171.750774,84.7523158 C170.880918,85.817357 169.718543,86.7929547 168.286745,87 L168,86.0608423 Z" id="Path" fill="#FFAF20"></path>
                                <path d="M168,82.087405 C168.296358,80.8340061 168.735891,79.6253405 169.308464,78.4892728 C169.886959,77.4060016 171.412963,78.3029223 170.894089,79.4210253 C170.301091,80.7010966 169.411594,82.1030793 168.132135,83 L168,82.087405 Z" id="Path" fill="#FFAF20"></path>
                                <path d="M167,76.8571519 C167.347726,75.9899569 167.793771,75.1630372 168.329899,74.3916643 C168.993238,73.4536221 170.463211,74.3729034 169.856223,75.3422137 C169.196104,76.3990746 168.265497,77.4621891 167.017711,78 L167,76.8571519 Z" id="Path" fill="#FFAF20"></path>
                                <path d="M166,73.2446658 C166.165702,72.3285923 166.380576,71.4256154 166.643348,70.5410901 C166.940507,69.556551 168.219774,70.0323248 167.967189,71.0342279 C167.670031,72.2115075 167.160404,73.3870506 166.285272,74 L166,73.2446658 Z" id="Path" fill="#FFAF20"></path>
                                <path d="M166,68.6017617 C166.22208,67.5207174 166.510582,66.4610263 166.863124,65.4314384 C167.16234,64.5864805 168.226859,65.1007274 167.956414,65.959537 C167.60541,67.0849931 167.041503,68.2589304 166.146731,69 L166,68.6017617 Z" id="Path" fill="#FFAF20"></path>
                                <path d="M165,63.1099329 C165,63.1099329 165.169314,62.3715641 165.477321,61.4784011 C165.761912,60.6548955 167.210086,60.9784155 166.974127,61.8127567 C166.711151,62.7415225 166.253643,63.6161102 165.46111,64 L165,63.1099329 Z" id="Path" fill="#FFAF20"></path>
                                <path d="M165.259715,58.7852596 L166.057937,56.3557788 C166.269231,55.7079172 167.149622,56.0221301 166.977946,56.6797096 C166.633126,57.9916292 166.03446,59.2711558 165,60 L165.259715,58.7852596 Z" id="Path" fill="#FFAF20"></path>
                                <path d="M165.730565,52.3428983 C165.730565,52.3428983 165.893464,52.2460084 166.142604,52.0935493 C166.650467,51.7800821 167.313562,52.3272249 166.834447,52.6634897 C166.000356,53.2271754 165.041404,53.6793445 164,54 L165.730565,52.3428983 Z" id="Path" fill="#FFAF20"></path>
                                <path d="M166.182064,50 C166.715353,48.8069731 167.309504,47.6477789 167.961697,46.5279169 C168.039068,46.3681648 167.996055,46.1703045 167.861265,46.0659212 C167.726475,45.961538 167.54189,45.9831442 167.430268,46.1163709 C166.905399,46.9035201 166.390371,48.0554897 166,49.7483998 L166.182064,50 Z" id="Path" fill="#FFAF20"></path>
                                <path d="M164.55136,64 L164.791078,63.9795222 C163.757812,56.0255973 164.19385,51.1211604 166,50.1706485 L165.869808,50 C163.956199,51.0119454 163.501562,55.8515358 164.55136,64 Z" id="Path" fill="#444053"></path>
                                <path d="M167.730809,83 L168,82.9542334 C167.898859,82.1955642 167.782158,81.4245731 167.651452,80.6659039 C166.518672,74.006865 165.637967,67.8512586 165.197614,63.1760253 L165,63 C165.441909,67.6840345 166.244813,74.0526316 167.385373,80.7204717 C167.512967,81.4738602 167.629668,82.243091 167.730809,83 Z" id="Path" fill="#444053"></path>
                                <path d="M154.242405,125 C154.287104,124.963142 158.86702,121.38621 162.888199,114.525449 C165.245042,110.510535 166.962679,106.139135 167.976994,101.574425 C169.247473,95.8685332 169.283576,89.2236523 168.367249,83 L168.099056,83.2193899 C170.162081,97.1866277 166.226861,108.031509 162.554677,114.300794 C158.573039,121.09837 154.046418,124.638445 154,124.673548 L154.242405,125 Z" id="Path" fill="#444053"></path>
                                <ellipse id="Oval" fill="#FFAF20" cx="34.5" cy="122" rx="11.5" ry="2"></ellipse>
                                <ellipse id="Oval" fill="#3F3D56" cx="33.5" cy="121" rx="1.5" ry="2"></ellipse>
                                <ellipse id="Oval" fill="#3F3D56" cx="33.5" cy="119" rx="1.5" ry="2"></ellipse>
                                <ellipse id="Oval" fill="#3F3D56" cx="33.5" cy="117" rx="1.5" ry="2"></ellipse>
                                <ellipse id="Oval" fill="#3F3D56" cx="33.5" cy="115" rx="1.5" ry="2"></ellipse>
                                <ellipse id="Oval" fill="#3F3D56" cx="33.5" cy="113" rx="1.5" ry="2"></ellipse>
                                <ellipse id="Oval" fill="#3F3D56" cx="33.5" cy="111" rx="1.5" ry="2"></ellipse>
                                <ellipse id="Oval" fill="#3F3D56" cx="33.5" cy="108" rx="1.5" ry="2"></ellipse>
                                <path d="M38.6056985,93.4939202 C38.7914706,93.2587202 38.960406,93.010745 39.1112494,92.7518373 L35.5496523,92.1686475 L39.3981363,92.1965847 C40.1454118,90.5753763 40.1903392,88.7184411 39.5223374,87.0631174 L34.3548729,89.7381079 L39.1199959,86.2459532 C37.9055369,84.141836 35.6146247,82.8918347 33.1845557,83.0073707 C30.7544867,83.1229067 28.5929779,84.5845955 27.5843821,86.7944064 C26.5757864,89.0042173 26.8893257,91.5913881 28.3967198,93.4974123 C28.1086214,93.8640344 27.8605626,94.2603118 27.6567613,94.6795066 L32.2801901,97.0768708 L27.3541305,95.4250817 C26.6517012,97.5001836 27.0464896,99.7890074 28.4037171,101.510161 C26.308886,104.167056 26.6120398,107.9849 29.1000211,110.279243 C31.5880024,112.573586 35.4249118,112.573586 37.9128931,110.279243 C40.4008744,107.9849 40.7040282,104.167056 38.6091971,101.510161 C40.4632447,99.1598086 40.4632447,95.8477648 38.6091971,93.4974123 L38.6056985,93.4939202 Z" id="Path" fill="#FFAF20"></path>
                                <path d="M27.0018518,97.0983485 C27.0003689,98.5921649 27.4901892,100.042875 28.3921859,101.216126 C26.2952718,103.947494 26.598727,107.872355 29.0891823,110.231009 C31.5796376,112.589664 35.4203624,112.589664 37.9108177,110.231009 C40.401273,107.872355 40.7047282,103.947494 38.6078141,101.216126 C39.4798372,100.083468 27.0018518,96.3498249 27.0018518,97.0983485 Z" id="Path" fill="#000000" opacity="0.1"></path>
                                <path d="M40,46 L40,123.301424 C40,124.017131 40.285957,124.703524 40.7949638,125.209605 C41.3039705,125.715687 41.9943318,126 42.7141761,126 L154.285824,126 C155.784822,126 157,124.791806 157,123.301424 L157,46 L40,46 Z" id="Path" fill="#FFFFFF"></path>
                                <rect id="Rectangle" fill="#000000" opacity="0.1" x="50" y="53" width="28" height="16" rx="8"></rect>
                                <rect id="Rectangle" fill="#000000" opacity="0.1" x="85" y="53" width="28" height="16" rx="8"></rect>
                                <rect id="Rectangle" fill="#FFAF20" x="50" y="53" width="27" height="16" rx="8"></rect>
                                <rect id="Rectangle" fill="#444053" opacity="0.1" transform="translate(134.500000, 61.000000) rotate(-180.000000) translate(-134.500000, -61.000000) " x="121" y="53" width="27" height="16" rx="8"></rect>
                                <rect id="Rectangle" fill="#FFAF20" transform="translate(98.500000, 61.000000) rotate(-180.000000) translate(-98.500000, -61.000000) " x="85" y="53" width="27" height="16" rx="8"></rect>
                                <rect id="Rectangle" fill="#444053" opacity="0.1" x="50" y="76" width="27" height="16" rx="8"></rect>
                                <rect id="Rectangle" fill="#444053" opacity="0.1" transform="translate(134.500000, 84.000000) rotate(-180.000000) translate(-134.500000, -84.000000) " x="121" y="76" width="27" height="16" rx="8"></rect>
                                <rect id="Rectangle" fill="#444053" opacity="0.1" transform="translate(98.500000, 84.000000) rotate(-180.000000) translate(-98.500000, -84.000000) " x="85" y="76" width="27" height="16" rx="8"></rect>
                                <rect id="Rectangle" fill="#444053" opacity="0.1" x="50" y="99" width="27" height="16" rx="8"></rect>
                                <rect id="Rectangle" fill="#444053" opacity="0.1" transform="translate(134.500000, 107.000000) rotate(-180.000000) translate(-134.500000, -107.000000) " x="121" y="99" width="27" height="16" rx="8"></rect>
                                <rect id="Rectangle" fill="#444053" opacity="0.1" transform="translate(98.500000, 107.000000) rotate(-180.000000) translate(-98.500000, -107.000000) " x="85" y="99" width="27" height="16" rx="8"></rect>
                                <path d="M40,31.7415343 L40,46 L157,46 L157,31.7415343 C157,31.0145976 156.714716,30.317273 156.205658,29.8030845 C155.696601,29.2888959 155.005973,29 154.285823,29 L42.7141767,29 C41.9940273,29 41.3033991,29.2888959 40.7943418,29.8030845 C40.2852844,30.317273 40,31.0145976 40,31.7415343 Z M68.9547324,35.9595527 C67.7580615,35.9595527 66.787968,34.9803159 66.787968,33.7723662 C66.787968,32.5644165 67.7580615,31.5851798 68.9547324,31.5851798 C70.1514034,31.5851798 71.1214969,32.5644165 71.1214969,33.7723662 C71.1214969,34.9803159 70.1514034,35.9595527 68.9547324,35.9595527 L68.9547324,35.9595527 Z M128.045268,35.9595556 C126.848597,35.9595556 125.878503,34.9803159 125.878503,33.7723662 C125.878503,32.5644165 126.848597,31.5851798 128.045268,31.5851798 C129.241939,31.5851798 130.212032,32.5644165 130.212032,33.7723662 C130.212032,34.3530603 129.983266,34.909919 129.576157,35.3201983 C129.169048,35.7304776 128.617019,35.9604961 128.041747,35.9595556 L128.045268,35.9595556 Z" id="Shape" fill="#FFAF20"></path>
                                <path d="M70.0021048,32.0000007 C68.7885488,31.9991674 67.6940235,32.7295541 67.2290377,33.8504944 C66.7640519,34.9714347 67.0202061,36.2621072 67.878025,37.1205161 C68.7358439,37.9789249 70.0263399,38.2359665 71.1475996,37.7717515 C72.2688593,37.3075364 73,36.2135135 73,34.9999571 C73.0005457,34.204509 72.6849386,33.4414532 72.1226651,32.878793 C71.5603917,32.3161329 70.7975531,32.0000007 70.0021048,32.0000007 L70.0021048,32.0000007 Z M70.0021048,37.5380639 C68.6003472,37.5380639 67.4639981,36.4017148 67.4639981,34.9999571 C67.4639981,33.5981994 68.6003472,32.4618503 70.0021048,32.4618503 C71.4038625,32.4618503 72.5402116,33.5981994 72.5402116,34.9999571 C72.5402116,36.4017148 71.4038625,37.5380639 70.0021048,37.5380639 L70.0021048,37.5380639 Z" id="Shape" fill="#000000" opacity="0.1"></path>
                                <path d="M129,32 C127.343146,32 126,33.3431458 126,35 C126,36.6568542 127.343146,38 129,38 C130.656854,38 132,36.6568542 132,35 C132,33.3431458 130.656854,32 129,32 Z M129,37.5381443 C127.598222,37.5381443 126.461856,36.4017784 126.461856,35 C126.461856,33.5982216 127.598222,32.4618557 129,32.4618557 C130.401778,32.4618557 131.538144,33.5982216 131.538144,35 C131.538144,36.4017784 130.401778,37.5381443 129,37.5381443 Z" id="Shape" fill="#000000" opacity="0.1"></path>
                                <circle id="Oval" fill="#FFAF20" opacity="0.1" cx="181.5" cy="73.5" r="2.5"></circle>
                                <circle id="Oval" fill="#FFAF20" opacity="0.1" cx="190.5" cy="61.5" r="4.5"></circle>
                                <circle id="Oval" fill="#FFAF20" opacity="0.1" cx="184.5" cy="83.5" r="4.5"></circle>
                                <circle id="Oval" fill="#FFAF20" opacity="0.1" cx="6.5" cy="60.5" r="6.5"></circle>
                                <path d="M162.190897,129.86138 C161.794404,129.56056 161.359807,129.314457 160.898637,129.129599 C160.863563,129.111327 160.824896,129.101137 160.785434,129.099767 C159.831161,128.409621 158.939462,127.635621 158.120802,126.786848 C158.294961,126.646458 158.455187,126.509578 158.625863,126.374453 C157.58091,125.87256 157.00096,124.72312 156.436685,123.685992 C154.944745,120.928881 152.978735,118.460649 150.630227,116.396262 C150.572754,116.173393 150.236627,116.220775 150.057244,116.076875 C149.938177,115.961546 149.889647,115.790729 149.930108,115.629383 C149.957973,115.467935 150.03112,115.318771 150.071177,115.160833 C150.166964,114.790555 150.083368,114.400974 150.041569,114.020167 C149.999771,113.639361 150.017187,113.214682 150.267976,112.930393 C150.348089,112.837385 150.450843,112.765435 150.529215,112.670672 C150.695757,112.4449 150.759085,112.158385 150.703373,111.882736 C150.684441,111.609423 150.625761,111.340395 150.529215,111.08427 C151.382593,108.744443 152.235391,106.400521 153.087609,104.052505 C153.684974,102.413456 154.287564,100.73931 154.34852,98.9914596 C154.397284,97.5875635 154.038517,96.1292664 153.195588,95.0570408 C153.348848,95.0201885 153.502107,94.9815813 153.653626,94.9377096 C152.657437,93.607518 152.549458,91.8456284 152.523334,90.1697274 C152.509402,89.3344092 152.480956,88.4985061 152.437996,87.662018 C152.7271,87.7901235 153.019687,87.9041901 153.319241,88.0024628 L153.597895,88.0884514 C154.050365,88.2219132 154.511973,88.3216253 154.978975,88.3867794 C155.184483,88.4166121 155.393473,88.4394255 155.600723,88.4534644 L155.600723,88.4534644 C155.301169,87.6977003 155.002196,86.9407664 154.703804,86.1826625 C154.548605,85.8471845 154.454233,85.4864307 154.42515,85.1174563 L154.42515,85.1174563 L154.42515,85.0472615 C154.42515,85.0051446 154.42515,84.9630277 154.433858,84.9209108 C154.445753,84.8204349 154.468529,84.7215732 154.50178,84.6260926 C154.517203,84.5789051 154.535227,84.5326216 154.555769,84.4874579 C154.617816,84.3491881 154.692442,84.2170079 154.778692,84.0926121 C154.84139,83.9960943 154.911053,83.9030862 154.980717,83.8083232 C155.240277,83.5031442 155.451203,83.1591818 155.605947,82.7887436 C155.667168,82.601198 155.699473,82.4052988 155.701735,82.2078816 C155.705102,82.0077015 155.68759,81.8077188 155.649487,81.6112258 C155.625105,81.4813654 155.593756,81.3497501 155.558924,81.2233995 L155.558924,81.2233995 C155.536284,81.1444303 155.511902,81.0654611 155.487519,80.9882469 L155.46662,80.9250715 C155.447463,80.8654059 155.428305,80.8074952 155.407406,80.7495845 L155.386507,80.6899189 C155.363866,80.6267436 155.341226,80.5653231 155.316844,80.5021478 L155.302911,80.4652956 C154.970267,79.6036543 154.527904,78.7823751 154.257957,77.8961657 C154.186988,77.6602893 154.128849,77.4206856 154.083798,77.1784238 C154.071607,77.1170033 154.062899,77.053828 154.05245,76.9924075 C154.042,76.9309871 154.036775,76.8871153 154.029809,76.8344692 C154.022843,76.7818231 154.014135,76.7116283 154.007168,76.6502079 L153.991494,76.4747209 C153.991494,76.418565 153.982786,76.3624092 153.979303,76.2992338 C153.979303,76.1921868 153.968853,76.0851397 153.967112,75.9780926 C153.967112,75.9394855 153.967112,75.9026332 153.967112,75.864026 C153.967112,75.783302 153.967112,75.7008231 153.967112,75.6200991 C153.967112,75.5762273 153.967112,75.5323556 153.967112,75.4902387 C153.967112,75.4095147 153.979303,75.3287907 153.986269,75.2498215 C153.986269,75.2112144 153.986269,75.1726072 153.99846,75.1357549 C154.010071,75.0187636 154.025745,74.9017723 154.045483,74.7847809 L154.045483,74.7847809 C154.062899,74.6812436 154.082057,74.5759514 154.102956,74.4706592 C154.166038,74.1824572 154.198729,73.8883469 154.200485,73.5932241 C154.200485,73.5370682 154.200485,73.4791575 154.188294,73.4177371 C154.176103,73.3563166 154.174361,73.3229741 154.165653,73.2773475 C154.164816,73.2633212 154.164816,73.2492569 154.165653,73.2352306 C154.165653,73.2036429 154.149979,73.1720553 154.143012,73.1404676 C154.136046,73.1088799 154.134304,73.1106348 154.12908,73.0965958 C154.123855,73.0825569 154.109922,73.0351754 154.099473,73.0053426 C154.089023,72.9755098 154.090765,72.9790195 154.08554,72.9649806 C154.080315,72.9509416 154.061158,72.9018053 154.047225,72.8719725 L154.035034,72.8403848 C154.017618,72.8017777 153.99846,72.7649254 153.979303,72.7280731 L153.979303,72.7280731 C153.911809,72.6000225 153.833743,72.4779209 153.74593,72.3630601 L153.74593,72.3630601 C153.172947,71.6049562 152.220298,71.0276039 151.696079,70.1922858 C151.390008,69.6509182 151.190712,69.0550243 151.109164,68.4374156 C151.08304,68.297026 151.060399,68.1566364 151.036017,68.0180017 C151.011635,67.8793669 150.990736,67.742487 150.966353,67.6056072 C150.950679,67.5213734 150.935005,67.4301202 150.917589,67.3529059 L150.907139,67.2985049 C150.893207,67.2318198 150.879274,67.1633799 150.8636,67.0966948 L150.85315,67.0493133 C150.837476,66.9791185 150.821802,66.9089237 150.804386,66.8387289 L150.793936,66.8018767 C150.77652,66.7281721 150.757363,66.6544676 150.738205,66.580763 C150.737417,66.5720067 150.737417,66.5631963 150.738205,66.55444 C150.717306,66.4772257 150.694665,66.4000114 150.672025,66.3227971 L150.672025,66.3070033 C150.647643,66.2262793 150.62326,66.1473101 150.597136,66.0683409 L150.597136,66.0683409 C150.571013,65.9876169 150.543147,65.905138 150.51354,65.824414 L150.51354,65.824414 C150.482192,65.7419351 150.452585,65.6594562 150.419494,65.5787322 L150.419494,65.5787322 C150.200447,65.0133577 149.903812,64.4817217 149.53825,63.999349 C148.740602,62.9674854 147.507557,62.2269302 146.22923,62.2760666 C145.543044,62.3023896 144.884724,62.5445617 144.238594,62.7849789 L142.561443,63.4079578 L143.029931,63.1903539 C142.542286,63.2342257 142.044191,63.2798523 141.603569,63.4974562 C141.162947,63.7150601 140.790247,64.1414935 140.776314,64.6398766 C140.767606,64.9294302 140.88081,65.2172289 140.844236,65.5050276 C140.783281,65.9805974 140.349625,66.3034935 140.12496,66.7246624 C139.993293,66.9784249 139.933065,67.2636585 139.950801,67.5494513 L139.950801,67.5634903 C139.950801,67.5968328 139.950801,67.6284205 139.950801,67.661763 C139.949955,67.6711029 139.949955,67.6805011 139.950801,67.6898409 L139.950801,67.7459968 C139.254165,67.4406494 138.55753,67.1230179 137.860894,66.7825731 C136.709703,66.2122403 135.54458,65.5418799 134.827045,64.4608799 C134.597155,64.1099059 134.419513,63.7308539 134.191365,63.3833896 C133.929604,63.0094446 133.638399,62.6573338 133.320571,62.3304675 L131.18364,60 C131.019931,60.310612 131.230663,60.6773799 131.396114,60.986237 C131.571819,61.3101912 131.704726,61.655907 131.791455,62.0145909 C131.833601,62.1314664 131.829864,62.2601476 131.781006,62.3743393 C131.70323,62.46848 131.60236,62.5404745 131.488419,62.5831688 C131.087053,62.837722 130.906144,63.3327103 131.047796,63.7887646 C131.202067,64.2330759 131.577355,64.5625402 132.035278,64.6556705 C132.186133,64.6729838 132.334193,64.7095439 132.4759,64.7644724 C132.733655,64.8925779 132.855566,65.1909059 133.040175,65.4137744 C133.376301,65.8209042 133.910969,65.973578 134.421255,66.1069481 C135.211937,67.0265 136.033967,67.9074448 136.824648,68.8269968 C138.02112,70.2186088 139.245457,71.634789 140.805921,72.5753994 C140.967889,72.6736721 141.13334,72.7649254 141.300533,72.8491592 C141.300533,72.8772371 141.300533,72.905315 141.291825,72.9333929 C141.248145,73.1408154 141.274503,73.3569974 141.366713,73.5475975 C141.50604,73.770466 141.793403,73.837151 142.049416,73.8827777 L143.230214,74.0951169 C143.21975,74.2493523 143.200561,74.4028604 143.172741,74.5548929 C143.157067,74.647901 143.137909,74.7391543 143.120494,74.8321624 L143.120494,74.8321624 L143.099594,74.9514936 C143.099594,74.9514936 143.099594,74.9637777 143.099594,74.9690423 C143.099594,74.9743069 143.099594,75.0322176 143.087403,75.0655601 C143.075212,75.0989027 143.087403,75.0883734 143.087403,75.0989027 L143.087403,75.1831364 L143.087403,75.2182338 C143.087403,75.2550861 143.087403,75.2936933 143.087403,75.3323004 C143.12746,75.7990959 143.435721,76.1851673 143.743983,76.5414059 L143.909434,76.743216 C143.646881,77.0763004 143.462866,77.4651391 143.371282,77.8803718 C143.318771,78.1408263 143.293092,78.4060483 143.294653,78.6718183 C143.136738,78.82361 143.017286,79.0113754 142.946335,79.2193378 C142.863785,79.506905 142.833111,79.8070638 142.855772,80.1055472 L142.855772,80.1266056 C142.855772,80.2371624 142.855772,80.3459644 142.855772,80.4565212 C142.835552,80.8758138 142.904429,81.294623 143.057796,81.6849303 C143.073471,81.716518 143.090887,81.7445959 143.106561,81.7744287 C142.845322,82.2903605 142.409925,82.6922258 142.098181,83.1783248 C141.452217,84.2839559 141.562939,85.6788848 142.375093,86.6670066 C142.613691,86.9442761 142.920211,87.2110164 142.948076,87.5795391 C142.943917,87.7466435 142.927619,87.9132167 142.899312,88.0779222 C142.871446,88.4745229 143.052572,88.8500651 143.150101,89.2343816 C143.231955,89.553768 143.235438,89.9363297 143.054313,90.1925407 C142.871094,90.4617821 142.786723,90.7869456 142.815715,91.1120927 C142.904536,91.6087209 142.700771,92.1053492 142.665939,92.6089969 C142.650264,92.8248459 142.665939,93.0442047 142.646781,93.2600537 C142.621688,93.4668867 142.579155,93.6711901 142.519645,93.8707485 C142.519645,93.891807 142.509196,93.9146203 142.502229,93.9374336 C142.072057,94.1287144 141.645367,94.3270148 141.234352,94.5569028 C141.012386,94.6565443 140.828885,94.8266519 140.711876,95.0412469 C140.642398,95.2568088 140.632762,95.4874137 140.68401,95.7080976 L141.054969,98.3088151 L140.99053,98.2807372 C141.019556,98.7065857 141.049744,99.134189 141.081092,99.5635473 C141.103733,99.8881982 141.13334,100.232153 141.324915,100.491874 C141.422383,100.596677 141.510391,100.710022 141.587895,100.830564 C141.734188,101.128891 141.56003,101.476356 141.431152,101.781703 C141.302274,102.087051 141.256993,102.520503 141.540872,102.685461 C141.68891,102.789237 141.848477,102.875224 142.016326,102.941672 C141.668008,104.405234 141.988461,105.93899 142.312396,107.407817 C142.559702,108.530934 142.807588,109.652881 143.056055,110.773658 C143.153222,111.249793 143.20801,111.733718 143.219764,112.219671 C143.219764,112.289866 143.219764,112.36006 143.219764,112.430255 C143.254706,113.098555 143.371704,113.759916 143.568082,114.399219 C143.954715,115.711862 143.583756,117.287736 143.705668,118.717955 C143.786709,119.405908 143.923,120.086103 144.113199,120.751849 C144.954387,124.11418 145.705012,127.409827 145.994116,130.866921 C146.303413,131.26376 146.72296,131.558827 147.199296,131.714523 C147.164464,132.139202 147.211487,132.625301 147.199296,132.872737 C147.198812,133.077628 147.167093,133.281228 147.10525,133.476413 C146.957215,133.865994 146.582773,134.12045 146.194399,134.25733 C146.072487,134.299447 145.948835,134.332789 145.82344,134.362622 L145.962767,134.243291 C145.16653,134.068954 144.334193,134.216401 143.644712,134.653931 C143.425971,134.766243 143.261002,134.962175 143.186674,135.19794 C143.158022,135.420867 143.215375,135.646373 143.3469,135.827939 C143.73032,136.393472 144.301649,136.802364 144.95787,136.980888 C145.606343,137.152945 146.272835,137.246612 146.943282,137.259913 L148.172844,137.331862 C148.086474,137.478214 148.120693,137.666357 148.252957,137.772335 C148.384745,137.869314 148.541188,137.926525 148.704029,137.937293 C149.206448,138.012405 149.716533,138.020076 150.220953,137.960106 C150.347454,137.95646 150.469491,137.912192 150.569271,137.833755 C150.616163,137.790848 150.642902,137.729989 150.642902,137.666165 C150.642902,137.602341 150.616163,137.541482 150.569271,137.498575 C150.720252,137.493717 150.852903,137.396255 150.903656,137.252893 C150.951861,137.11025 150.967343,136.958451 150.948938,136.808911 C150.915847,136.231559 150.865341,135.392731 150.567529,134.878554 C150.461686,134.686259 150.241597,134.588652 150.029378,134.639892 C149.836721,133.612332 149.720293,132.57174 149.681061,131.526752 C149.98791,131.410772 150.286935,131.274775 150.576237,131.119622 C149.721117,129.72801 149.705443,127.960856 149.966681,126.342866 C150.070317,125.832037 150.146477,125.315937 150.194829,124.796825 C150.252302,123.761452 150.0973,122.589198 149.527801,121.732822 C150.565954,122.398054 151.484608,123.235895 152.24468,124.210698 C153.448118,125.790081 154.181327,127.70289 155.656453,129.019043 C155.85035,128.828347 156.046569,128.638821 156.245111,128.450465 C156.556275,128.981605 156.850603,129.52386 157.128096,130.077229 C157.345799,130.484215 157.517547,130.914504 157.640124,131.360039 C157.775967,132.041602 157.791884,132.741917 157.687147,133.429031 C157.646509,133.794044 157.597164,134.157302 157.539111,134.518806 C157.515699,134.67348 157.480176,134.826045 157.432875,134.975072 C157.432212,134.927517 157.4209,134.880727 157.399784,134.838192 C157.30748,134.674989 157.051466,134.748694 156.912139,134.861005 C156.663997,135.048627 156.459034,135.288077 156.311291,135.562953 C156.230009,135.697181 156.192267,135.853598 156.203312,136.010445 C156.248967,136.201565 156.376605,136.362329 156.55163,136.449163 C157.19776,136.82997 158.009341,136.554455 158.702493,136.273676 C158.893981,136.20425 159.076431,136.11174 159.245869,135.998161 C159.594187,135.74546 159.78402,135.329556 160.130596,135.083874 C160.315604,134.981591 160.494167,134.867893 160.665264,134.743429 C160.987458,134.446856 161.013582,133.946718 161.248697,133.571176 C161.638813,132.923629 162.511349,132.756916 162.8527,132.070762 C163.248041,131.312658 162.78652,130.356254 162.190897,129.86138 Z" id="Path" fill="url(#linearGradient-1)"></path>
                                <path d="M146.958886,132.827077 C146.957773,133.017193 146.924076,133.205997 146.859,133.386735 C146.706446,133.747221 146.314165,133.982606 145.910986,134.109352 C145.507808,134.236098 145.079204,134.273958 144.668762,134.384243 C144.488482,134.421449 144.321612,134.49962 144.183858,134.611399 C143.820634,134.940609 144.038569,135.533188 144.46354,135.77845 C144.888512,136.023712 145.429715,136.015482 145.934596,135.984207 C147.005901,135.92768 148.070174,135.790586 149.116435,135.57434 C149.494187,135.493683 149.935504,135.335662 149.995436,134.988345 C150.006776,134.87791 149.996945,134.76653 149.966378,134.659134 C149.708645,133.480831 149.571852,132.283428 149.557751,131.08226 C149.557751,131.00325 147.451054,130.952222 147.254914,131.067446 C146.815413,131.329168 146.982496,132.422148 146.958886,132.827077 Z" id="Path" fill="#A1616A"></path>
                                <path d="M156.411819,128.796208 C156.767988,129.355654 157.102514,129.926242 157.415398,130.507972 C157.647153,130.909877 157.830115,131.335404 157.96078,131.776401 C158.104552,132.450274 158.121508,133.142951 158.010866,133.822425 C157.967582,134.182488 157.914404,134.541964 157.851333,134.900854 C157.790116,135.252706 157.691799,135.652059 157.374587,135.854375 C157.660984,136.015411 158.008952,136.044529 158.320659,135.933542 C158.626754,135.821164 158.908923,135.657266 159.153573,135.449744 C160.743344,134.205945 161.936137,132.399181 161.995498,130.444639 C162.012264,130.291973 161.981979,130.137973 161.908311,130.001304 C161.833355,129.90566 161.738687,129.825457 161.630055,129.765563 C160.443786,128.999297 159.341897,128.121689 158.341064,127.146019 C158.282246,127.070981 158.196436,127.019024 158.099908,127 C158.023946,127.000421 157.949545,127.020494 157.884723,127.058056 C157.274414,127.348334 156.254141,127.761761 156,128.421485 C156.173717,128.5045 156.317175,128.635035 156.411819,128.796208 L156.411819,128.796208 Z" id="Path" fill="#A1616A"></path>
                                <path d="M149.220267,134.801114 C147.9282,135.361071 146.528461,135.562656 145.130516,135.754908 C144.951062,135.777306 144.759047,135.792238 144.640607,135.661582 C144.54436,135.536817 144.531536,135.363423 144.608306,135.224815 C144.684488,135.090161 144.786501,134.973255 144.907993,134.881375 L145.835769,134.07317 C145.026825,133.894652 144.182863,134.045631 143.477747,134.495004 C143.256151,134.609849 143.087159,134.811114 143.007578,135.054961 C142.977692,135.289759 143.036911,135.527431 143.172676,135.717577 C143.569742,136.312785 144.157543,136.741545 144.830828,136.927085 C145.498866,137.107184 146.184837,137.205531 146.874807,137.220129 L148.130983,137.29479 C148.041399,137.448867 148.077753,137.648389 148.215326,137.757688 C148.35171,137.861288 148.513435,137.92275 148.681906,137.935008 C149.199147,138.013377 149.724031,138.020907 150.243154,137.957406 C150.373484,137.955128 150.499523,137.908589 150.602061,137.824883 C150.650123,137.780262 150.677603,137.716437 150.677603,137.64943 C150.677603,137.582423 150.650123,137.518597 150.602061,137.473977 C150.757176,137.469103 150.893729,137.366279 150.946612,137.21453 C150.994566,137.065001 151.010491,136.906372 150.99327,136.749765 C150.959174,136.145011 150.907133,135.256546 150.600267,134.72832 C150.293401,134.200093 149.654545,134.614462 149.220267,134.801114 Z" id="Path" fill="#3F3D56"></path>
                                <path d="M162.159917,129.707831 C161.749601,129.42888 161.300805,129.200967 160.825227,129.030035 C160.786765,129.002949 160.736882,128.993523 160.689872,129.004459 C160.642863,129.015394 160.603916,129.045484 160.584192,129.086106 C159.734713,130.142985 159.071298,131.315478 158.618133,132.560842 C158.360909,133.269972 158.157647,134.025278 157.636003,134.599178 C157.56765,134.675039 157.456126,134.752548 157.36259,134.708021 C157.227682,134.645354 157.310425,134.445808 157.234877,134.325421 C157.141341,134.1737 156.885915,134.242964 156.733019,134.34686 C156.475939,134.521939 156.264572,134.747269 156.114241,135.006516 C156.028113,135.129371 155.988888,135.274957 156.002717,135.42045 C156.048172,135.596703 156.176681,135.745336 156.353478,135.826138 C157.020823,136.180703 157.859051,135.925086 158.573164,135.661224 C158.770405,135.59746 158.9583,135.511604 159.132582,135.405607 C159.492337,135.173079 159.688403,134.785531 160.046359,134.559599 C160.237384,134.464604 160.421812,134.358857 160.598582,134.242964 C160.929556,133.967558 160.958337,133.50415 161.199372,133.154532 C161.602297,132.555895 162.503483,132.400876 162.856042,131.764308 C163.249973,131.053529 162.775097,130.166292 162.159917,129.707831 Z" id="Path" fill="#3F3D56"></path>
                                <path d="M152.711829,94.8989256 C154.109991,95.9362965 154.697006,97.7807067 154.634747,99.5073138 C154.572487,101.233921 153.95879,102.890198 153.35043,104.509551 C152.478802,106.826932 151.608361,109.143727 150.739105,111.459936 C150.83602,111.714013 150.895913,111.980415 150.916988,112.251151 C150.972731,112.523424 150.907992,112.806261 150.739105,113.0283 C150.657278,113.121488 150.561221,113.193576 150.47228,113.285005 C150.216128,113.566326 150.200119,113.988308 150.241032,114.362816 C150.281945,114.737325 150.369108,115.124141 150.271272,115.489858 C150.230359,115.646343 150.155648,115.794036 150.127186,115.952279 C150.086769,116.112307 150.136344,116.281465 150.257041,116.39536 C150.434924,116.53602 150.790691,116.490306 150.842277,116.711846 C153.234101,118.748144 155.23992,121.189205 156.765787,123.920694 C157.342129,124.945757 157.923807,126.08159 159,126.577419 C157.951391,127.398477 156.946208,128.272313 155.988438,129.195461 C154.485325,127.894352 153.736436,126.000711 152.509042,124.448171 C151.732106,123.482627 150.794988,122.654447 149.737622,121.998921 C150.3193,122.844642 150.477616,124.00509 150.418915,125.026637 C150.369653,125.539785 150.29186,126.049864 150.185888,126.554561 C149.910169,128.154574 149.935073,129.895247 150.808479,131.277236 C149.876371,131.755482 148.805514,132.110649 147.764898,131.968231 C147.11194,131.876449 146.519003,131.541906 146.107026,131.032838 C145.81174,127.614789 145.039727,124.351467 144.187667,121.033638 C143.992333,120.371738 143.853688,119.694766 143.773199,119.009886 C143.648681,117.603281 144.027572,116.038434 143.630892,114.740841 C143.431039,114.109755 143.31153,113.456511 143.275126,112.79621 C143.275126,112.72588 143.275126,112.657308 143.275126,112.586978 C143.263012,112.10707 143.207048,111.629225 143.107916,111.159274 L142.350133,107.832655 C142.019271,106.378577 141.688408,104.862961 142.045953,103.415916 C141.875419,103.350794 141.713063,103.266425 141.562111,103.164486 C141.272161,103.000968 141.318411,102.573712 141.450044,102.271292 C141.581678,101.968872 141.757782,101.626012 141.610139,101.330625 C141.53138,101.210659 141.441455,101.098229 141.341536,100.994798 C141.145864,100.738093 141.115624,100.398749 141.092499,100.078747 L141,98.8092863 C141.536976,99.0197191 141.984237,99.4065453 142.266528,99.9046796 C141.565669,98.8321436 141.910762,97.3024611 142.428402,96.1314628 C142.625991,95.3947667 143.290607,94.8745196 144.06137,94.853211 C146.912837,94.3714489 150.39579,93.1775933 152.711829,94.8989256 Z" id="Path" fill="#3F3D56"></path>
                                <path d="M151,102 C151,102 149.493628,102.904409 149.493628,103.581856 C149.493628,104.259303 149.1113,110.356328 149.1113,110.356328 L149.1113,114.654851 C149.1113,114.654851 149.361725,116.914154 149.1113,117.47812 C148.860875,118.042086 149.1113,120.640113 149.1113,120.978837 C149.1113,121.317561 149.493628,117.47812 149.493628,117.47812 L149.493628,113.40656 L149.875956,104.145822 L151,102 Z" id="Path" fill="#000000" opacity="0.1"></path>
                                <path d="M144,70.0129627 L143.16897,69.7019912 C141.470698,69.0487772 139.770616,68.393826 138.12666,67.6276894 C136.931715,67.0700254 135.720474,66.4115996 134.976349,65.3605506 C134.73736,65.0130964 134.552686,64.6482694 134.315508,64.306027 C134.04295,63.9399499 133.740225,63.5954442 133.410246,63.2758252 L131.190543,61 C131.020354,61.3040225 131.237617,61.6619003 131.411427,61.9624482 C131.593309,62.2792187 131.731465,62.6173502 131.822416,62.9683282 C131.865106,63.0813718 131.860565,63.2058794 131.809742,63.3157824 C131.729812,63.4087651 131.62542,63.4795432 131.507385,63.5207804 C131.091458,63.7654679 130.902572,64.2504562 131.049322,64.696913 C131.210973,65.1332848 131.600466,65.4555156 132.074079,65.5447013 C132.230676,65.5620955 132.38449,65.5976808 132.532142,65.6506749 C132.800099,65.7774957 132.926836,66.0676199 133.118751,66.2847788 C133.468182,66.6826139 134.024013,66.8337565 134.552686,66.9623146 C135.374664,67.8604838 136.227421,68.720433 137.049399,69.6186022 C138.291418,70.9771482 139.562406,72.360016 141.184635,73.2807697 C141.760718,73.6186817 142.391636,73.8617775 143.051285,74 C143.269436,72.6512373 143.586461,71.3189188 144,70.0129627 Z" id="Path" fill="#A1616A"></path>
                                <path d="M144,70.0129627 L143.16897,69.7019912 C141.470698,69.0487772 139.770616,68.393826 138.12666,67.6276894 C136.931715,67.0700254 135.720474,66.4115996 134.976349,65.3605506 C134.73736,65.0130964 134.552686,64.6482694 134.315508,64.306027 C134.04295,63.9399499 133.740225,63.5954442 133.410246,63.2758252 L131.190543,61 C131.020354,61.3040225 131.237617,61.6619003 131.411427,61.9624482 C131.593309,62.2792187 131.731465,62.6173502 131.822416,62.9683282 C131.865106,63.0813718 131.860565,63.2058794 131.809742,63.3157824 C131.729812,63.4087651 131.62542,63.4795432 131.507385,63.5207804 C131.091458,63.7654679 130.902572,64.2504562 131.049322,64.696913 C131.210973,65.1332848 131.600466,65.4555156 132.074079,65.5447013 C132.230676,65.5620955 132.38449,65.5976808 132.532142,65.6506749 C132.800099,65.7774957 132.926836,66.0676199 133.118751,66.2847788 C133.468182,66.6826139 134.024013,66.8337565 134.552686,66.9623146 C135.374664,67.8604838 136.227421,68.720433 137.049399,69.6186022 C138.291418,70.9771482 139.562406,72.360016 141.184635,73.2807697 C141.760718,73.6186817 142.391636,73.8617775 143.051285,74 C143.269436,72.6512373 143.586461,71.3189188 144,70.0129627 Z" id="Path" fill="#000000" opacity="0.15"></path>
                                <path d="M141.813039,74.506583 C141.545553,74.4638666 141.245315,74.4047208 141.099745,74.1977104 C141.003402,74.0222033 140.975819,73.8223861 141.021501,73.6308963 C141.166234,72.3926027 141.471599,71.1739504 141.931314,70 C142.337091,70.678534 143.135907,71.0744824 143.892872,71.4310003 C144.568619,71.7702232 145.273224,72.0602982 146,72.2984724 C145.818037,72.2458983 145.372229,74.7727392 145.12112,74.9271755 C144.804505,75.1276142 144.040262,74.8565291 143.689074,74.8023121 L141.813039,74.506583 Z" id="Path" fill="#FFAF20"></path>
                                <circle id="Oval" fill="#A1616A" cx="143.5" cy="70.5" r="3.5"></circle>
                                <path d="M143,73.4201232 C143,73.4201232 145.371162,75.3875563 144.35495,76.6991784 C143.338737,78.0108004 142.773029,78.8863248 144.127978,78.9961815 C145.482928,79.1060381 150,76.8090351 150,76.8090351 C150,76.8090351 145.821665,73.5299799 146.49914,71.5625468 C147.176615,69.5951137 143,73.4201232 143,73.4201232 Z" id="Path" fill="#FBBEBE"></path>
                                <path d="M145.81412,76.6410501 C144.766304,76.8983444 143.949985,77.7374367 143.704286,78.8097439 C143.433346,80.0745176 144.008437,81.4893491 143.466558,82.6540841 C143.21135,83.2078692 142.737642,83.6223148 142.417758,84.1421582 C141.772162,85.2512336 141.882925,86.6561593 142.693942,87.6452954 C142.933418,87.9239743 143.241066,88.1937212 143.269034,88.5617203 C143.264943,88.7294651 143.248583,88.8966623 143.22009,89.0619133 C143.192122,89.4602813 143.373914,89.8389988 143.471802,90.2248619 C143.553958,90.5446281 143.557454,90.9287049 143.375662,91.185947 C143.192302,91.4555089 143.108098,91.7826409 143.137934,92.1095176 C143.225334,92.6097105 143.020818,93.1081171 142.985858,93.6136693 C142.970126,93.8316105 142.985858,94.0495517 142.96663,94.2674929 C142.94118,94.4749182 142.899087,94.679854 142.840774,94.8802293 L142.533126,96.0396051 C144.200717,96.7684577 145.973188,97.0310591 147.777123,96.9971174 C149.392274,96.9649621 150.984702,96.6237591 152.564893,96.282556 C153.045593,96.1789446 153.526292,96.0753332 154,95.9413529 C153.000145,94.6051232 152.893517,92.8347974 152.865549,91.1537917 C152.821977,88.3511679 152.617108,85.5535909 152.252001,82.7755596 C152.736197,81.8412706 152.951201,80.7997974 153.150472,79.761897 C153.239943,79.3438125 153.277529,78.9158761 153.262344,78.4881913 C153.2134,77.5949896 152.811361,76.7464479 152.418061,75.9372072 C152.057973,75.1976362 151.668169,74.4187643 150.865838,74.098998 C150.472022,73.9293855 150.020371,73.9800707 149.671954,74.2329783 C149.065399,74.701016 149.245443,75.5084704 149.089871,76.1980221 C148.885355,77.0912238 148.079527,77.7325426 147.22126,77.9844255 C146.580724,78.1559743 145.917052,78.2193343 145.256509,78.1719979 C145.124553,78.1642963 145.008128,78.0812008 144.955617,77.9572437 C144.903106,77.8332865 144.923488,77.6896624 145.008293,77.5860576 C145.289721,77.2680777 145.572897,76.9447387 145.81412,76.6410501 Z" id="Path" fill="#FFAF20"></path>
                                <path d="M147.994295,91 C146.58022,92.123278 145.149786,93.2571529 143.517602,94.0519251 C142.559738,94.5181915 141.541895,94.8625927 140.609477,95.3641823 C140.378929,95.4626365 140.187558,95.6312379 140.064204,95.8445779 C139.98997,96.0581828 139.979882,96.2879151 140.035123,96.506888 L140.449531,99.2832921 C140.564038,100.035676 141.307427,100.519604 141.903593,101 C141.870876,100.747439 141.818167,100.551395 141.941762,100.327093 C141.984609,100.256987 142.031329,100.189185 142.081715,100.123984 C142.336176,99.7495585 142.345264,99.2638644 142.283466,98.8187919 C142.221669,98.3737195 142.101709,97.9357118 142.125337,97.4800424 C142.114936,97.3266448 142.188057,97.1791774 142.318,97.0914871 C144.348235,96.143059 146.53478,95.4154009 148.586825,94.5146591 C149.129766,94.3013966 149.641304,94.0193098 150.108138,93.675733 C150.577238,93.3260676 150.892812,92.8168812 150.991481,92.2504415 C151.010504,92.1762477 150.997363,92.0977189 150.955129,92.0332038 C150.913953,91.9893271 150.860107,91.9585489 150.800635,91.9448958 C149.880941,91.6199223 148.910354,91.3214412 147.994295,91 Z" id="Path" fill="#A1616A"></path>
                                <path d="M144.775513,79.0091825 C144.075475,79.1215306 143.339166,79.4672172 143.101588,80.1067374 C143.016129,80.3871074 142.984187,80.6798241 143.007283,80.9709538 C142.985546,81.3801899 143.057966,81.7890063 143.219471,82.1687578 C143.338798,82.3783559 143.481048,82.5753402 143.643846,82.756425 C145.319584,84.8028896 146.16108,87.3730693 147.793293,89.4523741 C147.938379,89.635588 148.20316,89.8741117 148.121549,90.0901658 C148.091895,90.1462171 148.065852,90.2039385 148.043566,90.2630091 C148.028493,90.3764988 148.073307,90.4897455 148.163261,90.5654849 C148.250273,90.6415329 148.317889,90.7355352 148.36094,90.8403057 C148.391771,90.949197 148.315601,91.0909285 148.197719,91.0822863 C148.393584,91.6595829 148.993876,91.9966273 149.563337,92.2697197 C150.51002,92.7242975 151.558263,93.0820831 152.611947,92.9835625 C152.809626,92.2282373 153.085289,91.3743914 152.974661,90.6052388 C152.858885,90.0178605 152.654235,89.4496158 152.367115,88.9182883 L151.65801,87.4422066 C151.054091,86.182179 150.444732,84.9135093 149.603235,83.7848426 C149.300073,83.4275385 149.044811,83.0356213 148.84335,82.6181504 C148.627535,82.0840646 148.034498,81.7089947 147.675411,81.25096 C147.142221,80.5595868 146.587269,79.8682137 145.872723,79.3686965 C145.586179,79.1578277 145.125532,78.9538727 144.775513,79.0091825 Z" id="Path" fill="#000000" opacity="0.1"></path>
                                <path d="M144.775385,79.0091861 C144.075337,79.1215481 143.339016,79.4672773 143.101435,80.1051477 C143.016282,80.3856096 142.984345,80.6783094 143.007128,80.9694707 C142.98539,81.3787573 143.057812,81.787624 143.219319,82.1674224 C143.338648,82.3770463 143.4809,82.5740549 143.6437,82.755162 C145.319465,84.8018789 146.160974,87.3723755 147.793212,89.4519367 C147.9383,89.6351731 148.203085,89.8737263 148.121473,90.089807 C148.091819,90.1458652 148.065776,90.2035938 148.043489,90.2626716 C148.028416,90.3761754 148.073231,90.489436 148.163186,90.5651847 C148.2502,90.6412421 148.317817,90.735256 148.360868,90.8400394 C148.391699,90.9489441 148.315528,91.0906931 148.197644,91.0820498 C148.393513,91.6594176 148.993814,91.9965036 149.563283,92.2696296 C150.509981,92.7242635 151.558241,93.0820933 152.611941,92.9835604 C152.809623,92.2281421 153.08529,91.374191 152.974661,90.6049435 C152.858883,90.0174928 152.65423,89.449178 152.367106,88.917785 L151.657989,87.4415213 C151.054061,86.1813384 150.444692,84.9125122 149.603183,83.7837064 C149.299639,83.4259879 149.044349,83.0334044 148.843285,82.6151417 C148.627467,82.0827187 148.034421,81.7076025 147.675328,81.2495114 C147.14213,80.5580529 146.58717,79.8665945 145.872612,79.3670159 C145.586064,79.1578497 145.12541,78.9538695 144.775385,79.0091861 Z" id="Path" fill="#FFAF20"></path>
                                <path d="M143.127049,63.9177516 C142.63359,63.9601411 142.125982,64.0060631 141.680277,64.2215433 C141.234573,64.4370235 140.854309,64.860919 140.840159,65.3554637 C140.840159,65.6433594 140.946279,65.9294889 140.909137,66.2138521 C140.847234,66.687202 140.406835,67.0068899 140.180445,67.4254866 C139.784263,68.1531739 140.092012,69.078679 140.604926,69.7215871 C141.11784,70.3644952 141.812928,70.85904 142.339991,71.4984156 C143.181243,72.5328328 143.531054,73.881162 143.29861,75.1933712 C143.23319,75.4453557 143.201667,75.7049184 143.204871,75.9652142 C143.24555,76.4279668 143.558604,76.8112389 143.86989,77.1644851 C145.384138,78.9327475 146.785341,80.7945092 148.065175,82.7387106 C148.449158,83.3033998 148.794254,83.893504 149.098078,84.5049418 C149.398752,85.1372525 149.628679,85.8119528 150.046085,86.3718481 C150.431428,86.8525799 150.903554,87.2569581 151.438028,87.5640541 C152.786173,88.3942846 154.315246,88.8869125 155.895075,89 L154.98421,86.7445228 C154.823261,86.3435884 154.657007,85.9214591 154.710067,85.492265 C154.810881,84.6797986 155.631543,84.1463968 155.898613,83.3727876 C156.07548,82.8747104 155.995889,82.3254125 155.850859,81.8185042 C155.528961,80.6757526 154.885165,79.6478061 154.538506,78.5121195 C154.234564,77.5163289 154.166746,76.4635844 154.340415,75.4371111 C154.416467,74.9849559 154.540274,74.5310345 154.483677,74.0771131 C154.315653,72.6959204 152.693783,72.0353499 151.943867,70.8643387 C151.459252,70.1119242 151.365512,69.1846528 151.202795,68.3050697 C150.967562,67.0210197 150.548387,65.7387359 149.738336,64.7143218 C148.928286,63.6899078 147.679605,62.9480907 146.377864,63.0028439 C145.681008,63.0293373 145.01422,63.271311 144.358043,63.507986 L142.653046,64.1279331" id="Path" fill="#3F3D56"></path>
                                <g id="Group" opacity="0.1" transform="translate(140.000000, 66.000000)" fill="#000000">
                                    <path d="M10.6956522,0.621 C10.84,1.41538462 10.9304348,2.24869231 11.2956522,2.95815385 C11.2452174,2.68215385 11.2034783,2.40438462 11.1530435,2.13192308 C11.0349386,1.43839315 10.847292,0.758999178 10.5930435,0.104384615 C10.6365217,0.276 10.666087,0.447615385 10.6956522,0.621 Z" id="Path"></path>
                                    <path d="M13.7808696,7.76515385 C13.611038,8.79400817 13.677707,9.84889525 13.9756522,10.8471538 C14.0573913,11.1178462 14.1495652,11.3779231 14.2608696,11.6433077 C14.1160125,10.861777 14.108358,10.0603234 14.2382609,9.27607692 C14.3130435,8.82315385 14.4347826,8.36846154 14.3791304,7.91376923 C14.3279091,7.5241626 14.171372,7.15667099 13.9269565,6.85223077 C13.9008696,7.16007692 13.8313043,7.46261538 13.7808696,7.76515385 Z" id="Path"></path>
                                    <path d="M15.7234783,15.6683077 C15.6271227,15.335891 15.5109659,15.0097494 15.3756522,14.6916923 C15.4341636,15.0330446 15.4115032,15.3836865 15.3095652,15.7143077 C15.0469565,16.4874615 14.2382609,17.0235385 14.1408696,17.8373846 C14.0886957,18.2673077 14.2504348,18.6901538 14.4104348,19.0917692 C14.4695652,19.2421538 14.5286957,19.3943077 14.5843478,19.5446923 C14.5800088,19.4793052 14.5800088,19.4136948 14.5843478,19.3483077 C14.6834783,18.5344615 15.4904348,18.0001538 15.7530435,17.2252308 C15.9408696,16.7263077 15.866087,16.1760769 15.7234783,15.6683077 Z" id="Path"></path>
                                    <path d="M10.9286957,19.9126923 C10.4032118,19.6042428 9.93901316,19.1986145 9.56,18.7166923 C9.14782609,18.1558462 8.92173913,17.4782308 8.62608696,16.8466154 C8.3277868,16.2338929 7.98843617,15.6427559 7.61043478,15.0773846 C6.35244693,13.1294328 4.9752338,11.2639274 3.48695652,9.49192308 C3.43304348,9.43 3.38086957,9.36630769 3.32869565,9.30261538 C3.29282146,9.46625261 3.27936067,9.63415015 3.28869565,9.80153846 C3.32869565,10.2650769 3.63652174,10.649 3.9426087,11.0028462 C5.43156656,12.7741116 6.80936723,14.6390352 8.06782609,16.5865385 C8.44539593,17.1521867 8.78472899,17.7432931 9.08347826,18.3557692 C9.37913043,18.9891538 9.60521739,19.665 10.0156522,20.2258462 C10.3945595,20.7073945 10.8588003,21.1124594 11.3843478,21.4200769 C12.7099775,22.2517174 14.2135128,22.745182 15.7669565,22.8584615 L15.1582609,21.3369231 C13.6587038,21.2033151 12.2104662,20.7156469 10.9286957,19.9126923 L10.9286957,19.9126923 Z" id="Path"></path>
                                    <path d="M1.98086957,3.82153846 C1.45913043,3.18107692 0.779130435,2.69453846 0.274782609,2.04346154 C0.229565217,1.98330769 0.186086957,1.92138462 0.142608696,1.85592308 C0.132236162,2.4751995 0.341538952,3.07754581 0.732173913,3.55261538 C1.23652174,4.20546154 1.92,4.692 2.43826087,5.33246154 C2.64059721,5.58120653 2.81555278,5.85174167 2.96,6.13923077 C2.85230432,5.28894009 2.51317363,4.48618639 1.98086957,3.82153846 L1.98086957,3.82153846 Z" id="Path"></path>
                                </g>
                                <path d="M72.8028253,52.4418379 L71.5492339,51.1950314 C71.4242175,51.0702177 71.2539557,51 71.0763273,51 C70.8986989,51 70.7284371,51.0702177 70.6034207,51.1950314 L62.7308664,58.9101809 L59.4006359,55.5922049 C59.1413505,55.3357926 58.7210245,55.3357926 58.4617391,55.5922049 L57.1943149,56.8321701 C56.9352284,57.0913642 56.9352284,57.5085085 57.1943149,57.7677026 L62.251908,62.8079476 C62.51336,63.0640175 62.9345401,63.0640175 63.1959921,62.8079476 L72.8028253,53.3773703 C72.9290107,53.2537128 73,53.0853018 73,52.9096041 C73,52.7339065 72.9290107,52.5654954 72.8028253,52.4418379 L72.8028253,52.4418379 Z" id="Path" fill="#3ACC6C"></path>
                                <path d="M108.802825,52.4418379 L107.549234,51.1950314 C107.424217,51.0702177 107.253956,51 107.076327,51 C106.898699,51 106.728437,51.0702177 106.603421,51.1950314 L98.7308664,58.9101809 L95.4006359,55.5922049 C95.1413505,55.3357926 94.7210245,55.3357926 94.4617391,55.5922049 L93.1943149,56.8321701 C92.9352284,57.0913642 92.9352284,57.5085085 93.1943149,57.7677026 L98.251908,62.8079476 C98.51336,63.0640175 98.9345401,63.0640175 99.1959921,62.8079476 L108.802825,53.3773703 C108.929011,53.2537128 109,53.0853018 109,52.9096041 C109,52.7339065 108.929011,52.5654954 108.802825,52.4418379 L108.802825,52.4418379 Z" id="Path" fill="#3ACC6C"></path>
                            </g>
                        </g>
                    </g>
                </g>
            </g>
        </g>
    </g>
</svg>